<?xml version="1.0" encoding="UTF-8"?> <svg xmlns="http://www.w3.org/2000/svg" id="Слой_1" data-name="Слой 1" viewBox="0 0 58 2014.44"> <defs> <style>.cls-1,.cls-2,.cls-5,.cls-6{fill:none;}.cls-1{stroke:#50fdbf;}.cls-2{stroke:#51fec0;}.cls-3{isolation:isolate;}.cls-4{fill:#51fec0;}.cls-5{stroke:#00fedb;}.cls-5,.cls-6{stroke-width:0.5px;}.cls-6{stroke:#00fdda;}</style> </defs> <g id="Group_498" data-name="Group 498"> <path id="Path_13304" data-name="Path 13304" class="cls-1" d="M29,399.38v111.5"></path> <line id="Line_103" data-name="Line 103" class="cls-2" x1="29.04" y1="790" x2="29.04" y2="942"></line> <line id="Line_104" data-name="Line 104" class="cls-2" x1="29.04" y1="1504" x2="29.04" y2="1659"></line> <g id="Group_497" data-name="Group 497"> <g id="Group_159" data-name="Group 159"> <g id="wEb" class="cls-3"> <g class="cls-3"> <path class="cls-4" d="M11.69,736.44l.35.12.42-.48,23.78,6.38a4,4,0,0,0-.09-.8,2.21,2.21,0,0,0-.39-.86L13.17,718.44A4.52,4.52,0,0,1,12,716.61a5.92,5.92,0,0,1-.32-1.71v-.47a5,5,0,0,1,.35-1.74,2.59,2.59,0,0,1,1.3-1.39l.18-.06a3.47,3.47,0,0,1,.47-.35L33.29,701a2,2,0,0,0,.11-.83v-2.42L11.69,692V676.19l.35.12.42-.47,36.4,9.73V701l-.41.41v.41l-4.66-1.18V712a3,3,0,0,1-.71,1.89,4.63,4.63,0,0,1-2.18,2.06l-6.55,2.84,10,9.61a10.71,10.71,0,0,1,1.56,2,4.26,4.26,0,0,1,.74,2.21v24a3,3,0,0,1-.65,2,2.86,2.86,0,0,1-1,1.3,7.65,7.65,0,0,1-1.56.83l-31.69-8.5Zm25.25,6.37v.77l-.17.29L12.4,737.38v14.28l31,8.26a5.46,5.46,0,0,0,1.5-1,2.34,2.34,0,0,0,.62-1.77v-24a4,4,0,0,0-.68-2,9.76,9.76,0,0,0-1.44-1.89l-11-10.51,8.14-3.54A3.7,3.7,0,0,0,42,714.19a2.46,2.46,0,0,0,.68-1.65v-13l5.07,1.36V686.58L12.4,677.14v14.28l21.53,5.72.18.41V699q0,.53-.06,1.47c0,.63-.17,1-.41,1.18L13.64,712a1.82,1.82,0,0,0-1,1.06,4.13,4.13,0,0,0-.29,1.42v.47a5.14,5.14,0,0,0,.29,1.53,3.84,3.84,0,0,0,1,1.54l22.83,22.6a1.74,1.74,0,0,1,.41,1.06C36.92,742.06,36.94,742.46,36.94,742.81Z"></path> <path class="cls-4" d="M36.59,619.73l.29.3.48-.47,9.26,9v45.2a3.48,3.48,0,0,1-.77,2.3,3.35,3.35,0,0,1-1.77,1.74,6.38,6.38,0,0,1-2.71.56,7.07,7.07,0,0,1-1-.08l-1.18-.21-21.54-5.78a7.08,7.08,0,0,1-2-.92,10.53,10.53,0,0,1-1.94-1.59,9.15,9.15,0,0,1-1.45-1.92,4,4,0,0,1-.56-2V613.36l.29.29.48-.47L21.9,622v34.29a1.42,1.42,0,0,0,.68,1.15,5.65,5.65,0,0,0,1.5.79V616.37l.3.29.47-.47,9.26,9v35.4l.06-.06s.12,0,.24,0l.17.06.59.18.71.18a3,3,0,0,0,.59.06h.12Zm8.91,9.62-8.2-8v40a1.55,1.55,0,0,1-1.42.83,3.37,3.37,0,0,1-1-.15c-.34-.1-.7-.19-1.09-.27l-.18,0c-.43-.12-.65-.26-.65-.42V626l-8.2-8v40.71a3,3,0,0,1-.09.51c-.06.25-.17.38-.32.38l-.65-.18a5.32,5.32,0,0,1-2-1,2,2,0,0,1-.91-1.56V622.8L12.4,615v50.92a3.42,3.42,0,0,0,.53,1.72,8.92,8.92,0,0,0,1.33,1.68A10.73,10.73,0,0,0,16,670.74a6.27,6.27,0,0,0,1.83.86l21.53,5.78,1.15.21a5,5,0,0,0,.86.09,5.42,5.42,0,0,0,2.86-.77,2.73,2.73,0,0,0,1.27-2.54Z"></path> <path class="cls-4" d="M24.08,586.75l-9.56,3.9v-33a2.5,2.5,0,0,1,.56-1.63,5.24,5.24,0,0,1,1.39-1.15,5.37,5.37,0,0,1,1.62-.82,5.76,5.76,0,0,1,1.8-.3h.77a1.34,1.34,0,0,0,.41.12L40.25,559a9.77,9.77,0,0,1,2,.8,10.28,10.28,0,0,1,2.07,1.39A8.07,8.07,0,0,1,46,563.06a4.13,4.13,0,0,1,.65,2.22v46.79a2.16,2.16,0,0,1-.18.88,3.88,3.88,0,0,1-.47.83,4.4,4.4,0,0,1-1.86,2,5.29,5.29,0,0,1-2.33.85,1.7,1.7,0,0,1-.53.06,2,2,0,0,1-.82-.12l-32.1-8.61v-15.4l.35.12.41-.48,26.26,7a.59.59,0,0,0,.3,0h.11a2,2,0,0,0,.77-.11,1.32,1.32,0,0,0,.12-.59V575.78a1.77,1.77,0,0,0-.74-1.53,5.73,5.73,0,0,0-1.68-.83l-8.14-2.24H26l-.53-.12a1.94,1.94,0,0,0-1,.29v14.7l-.41.41Zm18.74,28.89a5.23,5.23,0,0,0,1.26-.71,4.48,4.48,0,0,0,1-1,2.19,2.19,0,0,0,.41-1.24V565.87a3.63,3.63,0,0,0-.62-2,7.47,7.47,0,0,0-1.5-1.68,10.78,10.78,0,0,0-3.84-2L20.36,555l-.35-.09-.12,0H19.3a5.68,5.68,0,0,0-1.41.18,4.55,4.55,0,0,0-1.3.53,3.33,3.33,0,0,0-1,.88,2,2,0,0,0-.38,1.19v31.92l8.14-3.31V571.47a2.36,2.36,0,0,1,2.13-1.12,2.54,2.54,0,0,1,.41,0l.41.09,8.21,2.24a5.52,5.52,0,0,1,1.94,1,2.52,2.52,0,0,1,.89,2.07v22.78a1.4,1.4,0,0,1-.65,1.35,4.3,4.3,0,0,1-1.48.48h-.17a1,1,0,0,1-.48-.06L9,593.48v13.93l31.51,8.43a1.23,1.23,0,0,0,.71.12.62.62,0,0,0,.36-.06A3.34,3.34,0,0,0,42.82,615.64Zm2.15-.8a.85.85,0,0,1,.18-.15.28.28,0,0,0,.11-.14l.12-.12a.17.17,0,0,1-.12.06l-.29.29Z"></path> </g> <g class="cls-3"> <path class="cls-5" d="M11.69,736.44l.35.12.42-.48,23.78,6.38a4,4,0,0,0-.09-.8,2.21,2.21,0,0,0-.39-.86L13.17,718.44A4.52,4.52,0,0,1,12,716.61a5.92,5.92,0,0,1-.32-1.71v-.47a5,5,0,0,1,.35-1.74,2.59,2.59,0,0,1,1.3-1.39l.18-.06a3.47,3.47,0,0,1,.47-.35L33.29,701a2,2,0,0,0,.11-.83v-2.42L11.69,692V676.19l.35.12.42-.47,36.4,9.73V701l-.41.41v.41l-4.66-1.18V712a3,3,0,0,1-.71,1.89,4.63,4.63,0,0,1-2.18,2.06l-6.55,2.84,10,9.61a10.71,10.71,0,0,1,1.56,2,4.26,4.26,0,0,1,.74,2.21v24a3,3,0,0,1-.65,2,2.86,2.86,0,0,1-1,1.3,7.65,7.65,0,0,1-1.56.83l-31.69-8.5Zm25.25,6.37v.77l-.17.29L12.4,737.38v14.28l31,8.26a5.46,5.46,0,0,0,1.5-1,2.34,2.34,0,0,0,.62-1.77v-24a4,4,0,0,0-.68-2,9.76,9.76,0,0,0-1.44-1.89l-11-10.51,8.14-3.54A3.7,3.7,0,0,0,42,714.19a2.46,2.46,0,0,0,.68-1.65v-13l5.07,1.36V686.58L12.4,677.14v14.28l21.53,5.72.18.41V699q0,.53-.06,1.47c0,.63-.17,1-.41,1.18L13.64,712a1.82,1.82,0,0,0-1,1.06,4.13,4.13,0,0,0-.29,1.42v.47a5.14,5.14,0,0,0,.29,1.53,3.84,3.84,0,0,0,1,1.54l22.83,22.6a1.74,1.74,0,0,1,.41,1.06C36.92,742.06,36.94,742.46,36.94,742.81Z"></path> <path class="cls-5" d="M36.59,619.73l.29.3.48-.47,9.26,9v45.2a3.48,3.48,0,0,1-.77,2.3,3.35,3.35,0,0,1-1.77,1.74,6.38,6.38,0,0,1-2.71.56,7.07,7.07,0,0,1-1-.08l-1.18-.21-21.54-5.78a7.08,7.08,0,0,1-2-.92,10.53,10.53,0,0,1-1.94-1.59,9.15,9.15,0,0,1-1.45-1.92,4,4,0,0,1-.56-2V613.36l.29.29.48-.47L21.9,622v34.29a1.42,1.42,0,0,0,.68,1.15,5.65,5.65,0,0,0,1.5.79V616.37l.3.29.47-.47,9.26,9v35.4l.06-.06s.12,0,.24,0l.17.06.59.18.71.18a3,3,0,0,0,.59.06h.12Zm8.91,9.62-8.2-8v40a1.55,1.55,0,0,1-1.42.83,3.37,3.37,0,0,1-1-.15c-.34-.1-.7-.19-1.09-.27l-.18,0c-.43-.12-.65-.26-.65-.42V626l-8.2-8v40.71a3,3,0,0,1-.09.51c-.06.25-.17.38-.32.38l-.65-.18a5.32,5.32,0,0,1-2-1,2,2,0,0,1-.91-1.56V622.8L12.4,615v50.92a3.42,3.42,0,0,0,.53,1.72,8.92,8.92,0,0,0,1.33,1.68A10.73,10.73,0,0,0,16,670.74a6.27,6.27,0,0,0,1.83.86l21.53,5.78,1.15.21a5,5,0,0,0,.86.09,5.42,5.42,0,0,0,2.86-.77,2.73,2.73,0,0,0,1.27-2.54Z"></path> <path class="cls-5" d="M24.08,586.75l-9.56,3.9v-33a2.5,2.5,0,0,1,.56-1.63,5.24,5.24,0,0,1,1.39-1.15,5.37,5.37,0,0,1,1.62-.82,5.76,5.76,0,0,1,1.8-.3h.77a1.34,1.34,0,0,0,.41.12L40.25,559a9.77,9.77,0,0,1,2,.8,10.28,10.28,0,0,1,2.07,1.39A8.07,8.07,0,0,1,46,563.06a4.13,4.13,0,0,1,.65,2.22v46.79a2.16,2.16,0,0,1-.18.88,3.88,3.88,0,0,1-.47.83,4.4,4.4,0,0,1-1.86,2,5.29,5.29,0,0,1-2.33.85,1.7,1.7,0,0,1-.53.06,2,2,0,0,1-.82-.12l-32.1-8.61v-15.4l.35.12.41-.48,26.26,7a.59.59,0,0,0,.3,0h.11a2,2,0,0,0,.77-.11,1.32,1.32,0,0,0,.12-.59V575.78a1.77,1.77,0,0,0-.74-1.53,5.73,5.73,0,0,0-1.68-.83l-8.14-2.24H26l-.53-.12a1.94,1.94,0,0,0-1,.29v14.7l-.41.41Zm18.74,28.89a5.23,5.23,0,0,0,1.26-.71,4.48,4.48,0,0,0,1-1,2.19,2.19,0,0,0,.41-1.24V565.87a3.63,3.63,0,0,0-.62-2,7.47,7.47,0,0,0-1.5-1.68,10.78,10.78,0,0,0-3.84-2L20.36,555l-.35-.09-.12,0H19.3a5.68,5.68,0,0,0-1.41.18,4.55,4.55,0,0,0-1.3.53,3.33,3.33,0,0,0-1,.88,2,2,0,0,0-.38,1.19v31.92l8.14-3.31V571.47a2.36,2.36,0,0,1,2.13-1.12,2.54,2.54,0,0,1,.41,0l.41.09,8.21,2.24a5.52,5.52,0,0,1,1.94,1,2.52,2.52,0,0,1,.89,2.07v22.78a1.4,1.4,0,0,1-.65,1.35,4.3,4.3,0,0,1-1.48.48h-.17a1,1,0,0,1-.48-.06L9,593.48v13.93l31.51,8.43a1.23,1.23,0,0,0,.71.12.62.62,0,0,0,.36-.06A3.34,3.34,0,0,0,42.82,615.64Zm2.15-.8a.85.85,0,0,1,.18-.15.28.28,0,0,0,.11-.14l.12-.12a.17.17,0,0,1-.12.06l-.29.29Z"></path> </g> </g> <g id="sOcial" class="cls-3"> <g class="cls-3"> <path class="cls-4" d="M37.44,2003.07v-35.94l-.18-.06a2.74,2.74,0,0,0-.84-.6,8.46,8.46,0,0,0-1.08-.36l-.42-.12v38.82l-.42.42v.24a4.52,4.52,0,0,1-1.62,1.35,4.12,4.12,0,0,1-1.62.33,5.32,5.32,0,0,1-1-.06l-.12,0-.12,0-11.7-3.12a6.67,6.67,0,0,1-2.07-1,11.8,11.8,0,0,1-2-1.71,11.23,11.23,0,0,1-1.5-2,3.82,3.82,0,0,1-.6-1.92v-53.46l.3.3.48-.48,9.6,8.94v34.86a1.45,1.45,0,0,0,.69,1.17,5.89,5.89,0,0,0,1.53.81v-41.82l.36.12.42-.48L41,1951.41a8.86,8.86,0,0,1,2.25,1,12.52,12.52,0,0,1,2.16,1.68,9.23,9.23,0,0,1,1.62,2.07,4.41,4.41,0,0,1,.63,2.19v52.86l-.42.42v.6Zm.72-35.58v35.28l8.34,7.8V1959a3.9,3.9,0,0,0-.6-2,9.6,9.6,0,0,0-1.5-1.92,10.21,10.21,0,0,0-2-1.56,9.39,9.39,0,0,0-2.13-1l-14.82-4V1990a3,3,0,0,1-.09.51q-.09.39-.33.39l-.66-.18a5.49,5.49,0,0,1-2.07-1,2.09,2.09,0,0,1-.93-1.59v-34.62l-8.52-7.92v51.78a3.46,3.46,0,0,0,.54,1.71,8.66,8.66,0,0,0,1.38,1.77,12,12,0,0,0,1.83,1.5,6.45,6.45,0,0,0,1.89.9l11.7,3.12.54.09a4.39,4.39,0,0,0,.54,0,3,3,0,0,0,1.26-.27,4.05,4.05,0,0,0,1.26-1v-39.9a.58.58,0,0,1,.42-.18,1.21,1.21,0,0,1,.54.06l.78.24a8.35,8.35,0,0,1,1.14.39,3.48,3.48,0,0,1,1,.75,2,2,0,0,1,.36.57Q38.22,1967.49,38.16,1967.49Zm-3.84,37.92-.12.12A.11.11,0,0,0,34.32,2005.41Z"></path> <path class="cls-4" d="M47.58,1942.53a6.81,6.81,0,0,1-.84,1.62,4.74,4.74,0,0,1-1.8,1.86,4.62,4.62,0,0,1-2.34.66h-.72l-.06-.06a1.82,1.82,0,0,1-.54-.06l-23.4-6.3a5.86,5.86,0,0,1-2.13-1,8.81,8.81,0,0,1-1.86-1.8,9.58,9.58,0,0,1-1.29-2.22,6.2,6.2,0,0,1-.48-2.37v-45.36a4.86,4.86,0,0,1,.81-2.73,5.51,5.51,0,0,1,2.07-1.89,4.85,4.85,0,0,1,3.06-1.08h.24l23.7,6.36a5.87,5.87,0,0,1,1.77.81,10.72,10.72,0,0,1,1.83,1.47,10.16,10.16,0,0,1,1.44,1.8,3.51,3.51,0,0,1,.6,1.86v48.24Zm-1.08.42v-48.24a3.15,3.15,0,0,0-.54-1.65,8.57,8.57,0,0,0-1.35-1.65,10.78,10.78,0,0,0-1.71-1.35,5.71,5.71,0,0,0-1.62-.75L17.58,1883h-.12a4.48,4.48,0,0,0-3.24,1.35,4.34,4.34,0,0,0-1.38,3.21v45.36a5.58,5.58,0,0,0,.45,2.16,8.2,8.2,0,0,0,1.17,2,8.47,8.47,0,0,0,1.68,1.59,5.66,5.66,0,0,0,1.92.93l23.52,6.3.54.12h.48a3.83,3.83,0,0,0,2.28-.78A4.67,4.67,0,0,0,46.5,1943Zm-10.38-12.84-12.24-3.3a3.78,3.78,0,0,1-1.8-1.2,3,3,0,0,1-.78-2v-22.8a1.87,1.87,0,0,1,.6-1.41,2.26,2.26,0,0,1,1.44-.63h.6l11.28,3.06a6,6,0,0,1,1.83,1,2.06,2.06,0,0,1,1,1.68V1929a.91.91,0,0,1-.72.9A4,4,0,0,1,36.12,1930.11Zm.72-1.14a1.25,1.25,0,0,0,.48-.06v-24.48a1.49,1.49,0,0,0-.81-1.2,5.2,5.2,0,0,0-1.47-.72l-11.34-3.06h-.36a2.67,2.67,0,0,0-.84.36.84.84,0,0,0-.06.36V1923a2.41,2.41,0,0,0,.66,1.68,3.66,3.66,0,0,0,1.56,1Z"></path> <path class="cls-4" d="M47.64,1878.93a2.62,2.62,0,0,1-.21,1.11,3.71,3.71,0,0,1-.51.81,3.21,3.21,0,0,1-1.89,1.71,7.37,7.37,0,0,1-2.61.51,5.46,5.46,0,0,1-1.62-.18L19.08,1877a10.14,10.14,0,0,1-2.52-1,9.42,9.42,0,0,1-2.25-1.71,8.91,8.91,0,0,1-1.62-2.31,6.41,6.41,0,0,1-.63-2.85v-45.54a6.81,6.81,0,0,1,.09-1,4.77,4.77,0,0,1,.39-1.26,5.47,5.47,0,0,1,.84-1.29,3.71,3.71,0,0,1,1.38-1,5.61,5.61,0,0,1,1.2-.6,4.77,4.77,0,0,1,1.62-.24,9.77,9.77,0,0,1,1.08.06,7.94,7.94,0,0,1,1.2.24l8.22,2.22v15.36l-.42.42v.42l-3.48-1h-.12a.12.12,0,0,1-.09,0,.12.12,0,0,0-.09,0h-.54a3.05,3.05,0,0,0-.6.06v24.48q0,1.5,1.8,1.92L36,1865.49l.18.12v-.06H37a1.47,1.47,0,0,0,.54-.12v-40l.3.3.48-.48,9.36,8.7Zm-12.36-12.3-11.46-3.06q-2.22-.6-2.22-2.46v-24.84q0-.6.81-.81a5.91,5.91,0,0,1,1.47-.21,1.26,1.26,0,0,1,.3,0l.24,0,2.52.72v-14.22l-7.8-2.1a8.13,8.13,0,0,0-1.17-.24,8.47,8.47,0,0,0-1-.06,4.11,4.11,0,0,0-2.16.51,4,4,0,0,0-1.29,1.2,4.11,4.11,0,0,0-.6,1.41,5.84,5.84,0,0,0-.15,1.08v45.54a5.74,5.74,0,0,0,.57,2.55,8.1,8.1,0,0,0,1.47,2.1,8.4,8.4,0,0,0,2.07,1.56,10.22,10.22,0,0,0,2.37.93l21.84,5.88a4.21,4.21,0,0,0,1.32.18,6.77,6.77,0,0,0,1.38-.15,4.72,4.72,0,0,0,1.32-.48,3,3,0,0,0,1-.87,2.19,2.19,0,0,0,.39-1.32v-44.7l-8.28-7.68v38.1q0,.66-.84,1a3.84,3.84,0,0,1-1.62.39A1,1,0,0,1,35.28,1866.63Z"></path> <path class="cls-4" d="M12.12,1811.49v-15.66l.36.12.42-.48,34.74,9.3v15.3l-.42.42v.42Zm.72-14.7V1811l33.66,9v-14.16Z"></path> <path class="cls-4" d="M47.64,1793.43a3,3,0,0,1-.78,1.86,5.21,5.21,0,0,1-2,2,5.36,5.36,0,0,1-2.82.84H41.7a1.33,1.33,0,0,1-.42-.06l-.15,0-.15,0-22.74-6.06a7.38,7.38,0,0,1-2.07-.93,11.17,11.17,0,0,1-2-1.59,9.23,9.23,0,0,1-1.5-2,4.25,4.25,0,0,1-.6-2.13v-52.91l.36.12.42-.49,34.8,9.36v15.12l-.42.42v.42l-24.84-6.6v24.54a1.81,1.81,0,0,0,.72,1.26,2.92,2.92,0,0,0,1.32.78l12.24,3.3a2.85,2.85,0,0,0,.78.18v-22.5l.3.3.48-.48,9.42,8.82Zm-1.14.6v-26.22l-8.34-7.8v20.82a1.72,1.72,0,0,1-.18.78q-.18.36-.9.36a5,5,0,0,1-1.14-.18l-12.24-3.3a3.76,3.76,0,0,1-1.59-1,2.32,2.32,0,0,1-.87-1.56v-26l.3-.12,25,6.66v-14l-33.72-9v51.95a3.73,3.73,0,0,0,.54,1.89A8,8,0,0,0,14.7,1789a10.38,10.38,0,0,0,1.83,1.41,7.33,7.33,0,0,0,1.89.84l22.74,6.06.54.09.36,0a4.47,4.47,0,0,0,1.62-.3,5.18,5.18,0,0,0,1.41-.81,4.81,4.81,0,0,0,1-1.11A2.11,2.11,0,0,0,46.5,1794Z"></path> <path class="cls-4" d="M38.1,1688.19l9.54,2.58v40a2.48,2.48,0,0,1-.18.93,2.2,2.2,0,0,1-.48.75,3.54,3.54,0,0,1-1.92,1.8,6.87,6.87,0,0,1-2.76.6,5.44,5.44,0,0,1-1-.06l-.12,0-.12,0-29-7.8v-15.6l.36.12.42-.48,23,6.18h.12a3.28,3.28,0,0,0,.72.12,1.26,1.26,0,0,1,.3,0,.34.34,0,0,0,.24,0v-28.68l.36.12ZM38,1717.11a1,1,0,0,1-.57,1,2.73,2.73,0,0,1-1.29.3,3.68,3.68,0,0,1-.51,0l-.45-.09-22.38-6v14.1L41.28,1734l.54.09.48,0a5.92,5.92,0,0,0,1.44-.18,5.3,5.3,0,0,0,1.35-.54,3.36,3.36,0,0,0,1-.87,1.87,1.87,0,0,0,.39-1.17v-39.54L38,1689.51Z"></path> </g> <g class="cls-3"> <path class="cls-6" d="M37.44,2003.07v-35.94l-.18-.06a2.74,2.74,0,0,0-.84-.6,8.46,8.46,0,0,0-1.08-.36l-.42-.12v38.82l-.42.42v.24a4.52,4.52,0,0,1-1.62,1.35,4.12,4.12,0,0,1-1.62.33,5.32,5.32,0,0,1-1-.06l-.12,0-.12,0-11.7-3.12a6.67,6.67,0,0,1-2.07-1,11.8,11.8,0,0,1-2-1.71,11.23,11.23,0,0,1-1.5-2,3.82,3.82,0,0,1-.6-1.92v-53.46l.3.3.48-.48,9.6,8.94v34.86a1.45,1.45,0,0,0,.69,1.17,5.89,5.89,0,0,0,1.53.81v-41.82l.36.12.42-.48L41,1951.41a8.86,8.86,0,0,1,2.25,1,12.52,12.52,0,0,1,2.16,1.68,9.23,9.23,0,0,1,1.62,2.07,4.41,4.41,0,0,1,.63,2.19v52.86l-.42.42v.6Zm.72-35.58v35.28l8.34,7.8V1959a3.9,3.9,0,0,0-.6-2,9.6,9.6,0,0,0-1.5-1.92,10.21,10.21,0,0,0-2-1.56,9.39,9.39,0,0,0-2.13-1l-14.82-4V1990a3,3,0,0,1-.09.51q-.09.39-.33.39l-.66-.18a5.49,5.49,0,0,1-2.07-1,2.09,2.09,0,0,1-.93-1.59v-34.62l-8.52-7.92v51.78a3.46,3.46,0,0,0,.54,1.71,8.66,8.66,0,0,0,1.38,1.77,12,12,0,0,0,1.83,1.5,6.45,6.45,0,0,0,1.89.9l11.7,3.12.54.09a4.39,4.39,0,0,0,.54,0,3,3,0,0,0,1.26-.27,4.05,4.05,0,0,0,1.26-1v-39.9a.58.58,0,0,1,.42-.18,1.21,1.21,0,0,1,.54.06l.78.24a8.35,8.35,0,0,1,1.14.39,3.48,3.48,0,0,1,1,.75,2,2,0,0,1,.36.57Q38.22,1967.49,38.16,1967.49Zm-3.84,37.92-.12.12A.11.11,0,0,0,34.32,2005.41Z"></path> <path class="cls-6" d="M47.58,1942.53a6.81,6.81,0,0,1-.84,1.62,4.74,4.74,0,0,1-1.8,1.86,4.62,4.62,0,0,1-2.34.66h-.72l-.06-.06a1.82,1.82,0,0,1-.54-.06l-23.4-6.3a5.86,5.86,0,0,1-2.13-1,8.81,8.81,0,0,1-1.86-1.8,9.58,9.58,0,0,1-1.29-2.22,6.2,6.2,0,0,1-.48-2.37v-45.36a4.86,4.86,0,0,1,.81-2.73,5.51,5.51,0,0,1,2.07-1.89,4.85,4.85,0,0,1,3.06-1.08h.24l23.7,6.36a5.87,5.87,0,0,1,1.77.81,10.72,10.72,0,0,1,1.83,1.47,10.16,10.16,0,0,1,1.44,1.8,3.51,3.51,0,0,1,.6,1.86v48.24Zm-1.08.42v-48.24a3.15,3.15,0,0,0-.54-1.65,8.57,8.57,0,0,0-1.35-1.65,10.78,10.78,0,0,0-1.71-1.35,5.71,5.71,0,0,0-1.62-.75L17.58,1883h-.12a4.48,4.48,0,0,0-3.24,1.35,4.34,4.34,0,0,0-1.38,3.21v45.36a5.58,5.58,0,0,0,.45,2.16,8.2,8.2,0,0,0,1.17,2,8.47,8.47,0,0,0,1.68,1.59,5.66,5.66,0,0,0,1.92.93l23.52,6.3.54.12h.48a3.83,3.83,0,0,0,2.28-.78A4.67,4.67,0,0,0,46.5,1943Zm-10.38-12.84-12.24-3.3a3.78,3.78,0,0,1-1.8-1.2,3,3,0,0,1-.78-2v-22.8a1.87,1.87,0,0,1,.6-1.41,2.26,2.26,0,0,1,1.44-.63h.6l11.28,3.06a6,6,0,0,1,1.83,1,2.06,2.06,0,0,1,1,1.68V1929a.91.91,0,0,1-.72.9A4,4,0,0,1,36.12,1930.11Zm.72-1.14a1.25,1.25,0,0,0,.48-.06v-24.48a1.49,1.49,0,0,0-.81-1.2,5.2,5.2,0,0,0-1.47-.72l-11.34-3.06h-.36a2.67,2.67,0,0,0-.84.36.84.84,0,0,0-.06.36V1923a2.41,2.41,0,0,0,.66,1.68,3.66,3.66,0,0,0,1.56,1Z"></path> <path class="cls-6" d="M47.64,1878.93a2.62,2.62,0,0,1-.21,1.11,3.71,3.71,0,0,1-.51.81,3.21,3.21,0,0,1-1.89,1.71,7.37,7.37,0,0,1-2.61.51,5.46,5.46,0,0,1-1.62-.18L19.08,1877a10.14,10.14,0,0,1-2.52-1,9.42,9.42,0,0,1-2.25-1.71,8.91,8.91,0,0,1-1.62-2.31,6.41,6.41,0,0,1-.63-2.85v-45.54a6.81,6.81,0,0,1,.09-1,4.77,4.77,0,0,1,.39-1.26,5.47,5.47,0,0,1,.84-1.29,3.71,3.71,0,0,1,1.38-1,5.61,5.61,0,0,1,1.2-.6,4.77,4.77,0,0,1,1.62-.24,9.77,9.77,0,0,1,1.08.06,7.94,7.94,0,0,1,1.2.24l8.22,2.22v15.36l-.42.42v.42l-3.48-1h-.12a.12.12,0,0,1-.09,0,.12.12,0,0,0-.09,0h-.54a3.05,3.05,0,0,0-.6.06v24.48q0,1.5,1.8,1.92L36,1865.49l.18.12v-.06H37a1.47,1.47,0,0,0,.54-.12v-40l.3.3.48-.48,9.36,8.7Zm-12.36-12.3-11.46-3.06q-2.22-.6-2.22-2.46v-24.84q0-.6.81-.81a5.91,5.91,0,0,1,1.47-.21,1.26,1.26,0,0,1,.3,0l.24,0,2.52.72v-14.22l-7.8-2.1a8.13,8.13,0,0,0-1.17-.24,8.47,8.47,0,0,0-1-.06,4.11,4.11,0,0,0-2.16.51,4,4,0,0,0-1.29,1.2,4.11,4.11,0,0,0-.6,1.41,5.84,5.84,0,0,0-.15,1.08v45.54a5.74,5.74,0,0,0,.57,2.55,8.1,8.1,0,0,0,1.47,2.1,8.4,8.4,0,0,0,2.07,1.56,10.22,10.22,0,0,0,2.37.93l21.84,5.88a4.21,4.21,0,0,0,1.32.18,6.77,6.77,0,0,0,1.38-.15,4.72,4.72,0,0,0,1.32-.48,3,3,0,0,0,1-.87,2.19,2.19,0,0,0,.39-1.32v-44.7l-8.28-7.68v38.1q0,.66-.84,1a3.84,3.84,0,0,1-1.62.39A1,1,0,0,1,35.28,1866.63Z"></path> <path class="cls-6" d="M12.12,1811.49v-15.66l.36.12.42-.48,34.74,9.3v15.3l-.42.42v.42Zm.72-14.7V1811l33.66,9v-14.16Z"></path> <path class="cls-6" d="M47.64,1793.43a3,3,0,0,1-.78,1.86,5.21,5.21,0,0,1-2,2,5.36,5.36,0,0,1-2.82.84H41.7a1.33,1.33,0,0,1-.42-.06l-.15,0-.15,0-22.74-6.06a7.38,7.38,0,0,1-2.07-.93,11.17,11.17,0,0,1-2-1.59,9.23,9.23,0,0,1-1.5-2,4.25,4.25,0,0,1-.6-2.13v-52.91l.36.12.42-.49,34.8,9.36v15.12l-.42.42v.42l-24.84-6.6v24.54a1.81,1.81,0,0,0,.72,1.26,2.92,2.92,0,0,0,1.32.78l12.24,3.3a2.85,2.85,0,0,0,.78.18v-22.5l.3.3.48-.48,9.42,8.82Zm-1.14.6v-26.22l-8.34-7.8v20.82a1.72,1.72,0,0,1-.18.78q-.18.36-.9.36a5,5,0,0,1-1.14-.18l-12.24-3.3a3.76,3.76,0,0,1-1.59-1,2.32,2.32,0,0,1-.87-1.56v-26l.3-.12,25,6.66v-14l-33.72-9v51.95a3.73,3.73,0,0,0,.54,1.89A8,8,0,0,0,14.7,1789a10.38,10.38,0,0,0,1.83,1.41,7.33,7.33,0,0,0,1.89.84l22.74,6.06.54.09.36,0a4.47,4.47,0,0,0,1.62-.3,5.18,5.18,0,0,0,1.41-.81,4.81,4.81,0,0,0,1-1.11A2.11,2.11,0,0,0,46.5,1794Z"></path> <path class="cls-6" d="M38.1,1688.19l9.54,2.58v40a2.48,2.48,0,0,1-.18.93,2.2,2.2,0,0,1-.48.75,3.54,3.54,0,0,1-1.92,1.8,6.87,6.87,0,0,1-2.76.6,5.44,5.44,0,0,1-1-.06l-.12,0-.12,0-29-7.8v-15.6l.36.12.42-.48,23,6.18h.12a3.28,3.28,0,0,0,.72.12,1.26,1.26,0,0,1,.3,0,.34.34,0,0,0,.24,0v-28.68l.36.12ZM38,1717.11a1,1,0,0,1-.57,1,2.73,2.73,0,0,1-1.29.3,3.68,3.68,0,0,1-.51,0l-.45-.09-22.38-6v14.1L41.28,1734l.54.09.48,0a5.92,5.92,0,0,0,1.44-.18,5.3,5.3,0,0,0,1.35-.54,3.36,3.36,0,0,0,1-.87,1.87,1.87,0,0,0,.39-1.17v-39.54L38,1689.51Z"></path> </g> </g> <g id="stRategy" class="cls-3"> <g class="cls-3"> <path class="cls-4" d="M36.59,1471.79v-35.35l-.18-.06a2.8,2.8,0,0,0-.82-.59,7.29,7.29,0,0,0-1.06-.35l-.42-.12v38.18l-.41.41v.23a4.38,4.38,0,0,1-1.59,1.33,4.06,4.06,0,0,1-1.6.33,5.14,5.14,0,0,1-1-.06l-.12,0-.12,0-11.5-3.07a6.68,6.68,0,0,1-2-1,11.88,11.88,0,0,1-2-1.68,11.33,11.33,0,0,1-1.47-2,3.8,3.8,0,0,1-.59-1.89v-52.57l.29.29.48-.47,9.44,8.79v34.28a1.39,1.39,0,0,0,.68,1.15,5.68,5.68,0,0,0,1.5.8v-41.13l.35.12.42-.47L40.07,1421a8.72,8.72,0,0,1,2.21,1,12.69,12.69,0,0,1,2.13,1.66,8.89,8.89,0,0,1,1.59,2,4.29,4.29,0,0,1,.62,2.16v52l-.41.41v.59Zm.71-35v34.7l8.2,7.67v-50.74a3.88,3.88,0,0,0-.59-2,9.32,9.32,0,0,0-1.48-1.89,9.81,9.81,0,0,0-2-1.53,9.14,9.14,0,0,0-2.1-1l-14.57-3.89v40.71a2.77,2.77,0,0,1-.09.5c-.06.26-.17.39-.32.39l-.65-.18a5.47,5.47,0,0,1-2-1,2.05,2.05,0,0,1-.91-1.57v-34l-8.38-7.79v50.92a3.44,3.44,0,0,0,.53,1.68,8.39,8.39,0,0,0,1.36,1.74,12.22,12.22,0,0,0,1.8,1.48,6.07,6.07,0,0,0,1.85.88L29.45,1475l.53.09a4.33,4.33,0,0,0,.53,0,2.91,2.91,0,0,0,1.24-.27,3.8,3.8,0,0,0,1.24-1v-39.24a.57.57,0,0,1,.41-.18c.32,0,.5,0,.53.06l.77.24a8.08,8.08,0,0,1,1.12.38,3.58,3.58,0,0,1,1,.74,2.38,2.38,0,0,1,.35.56C37.3,1436.67,37.34,1436.79,37.3,1436.79Zm-3.78,37.3-.12.11C33.48,1474.2,33.52,1474.16,33.52,1474.09Z"></path> <path class="cls-4" d="M35.82,1398.86a1.4,1.4,0,0,0,.71-.12.91.91,0,0,0,.12-.59v-22.77a1.84,1.84,0,0,0-1.15-1.71,14.85,14.85,0,0,0-2.27-1l-.12,0-.12,0-1.65-.59v-15.28l.35.12.42-.47,8.14,2.18a9.25,9.25,0,0,1,2,.8,10.66,10.66,0,0,1,2.07,1.38,7.91,7.91,0,0,1,1.62,1.86,4.12,4.12,0,0,1,.65,2.21v47.21a2.47,2.47,0,0,1-.71,1.71,3.83,3.83,0,0,1-1.83,1.71,6.11,6.11,0,0,1-2.3.71,1.7,1.7,0,0,1-.53.06,2,2,0,0,1-.82-.12l-32.1-8.62v-15.34l.35.12.41-.47,5.43,1.47v-27.37l.3.29.47-.53,9.2,8.26v22l10.86,2.83a.47.47,0,0,0,.3.06Zm5.79,16.64a4.22,4.22,0,0,0,1.21-.21,5.1,5.1,0,0,0,1.26-.56,3.56,3.56,0,0,0,1-.88,1.92,1.92,0,0,0,.41-1.18v-47.21a3.6,3.6,0,0,0-.62-2,7.47,7.47,0,0,0-1.5-1.68,9.83,9.83,0,0,0-1.92-1.27,9.6,9.6,0,0,0-1.92-.77l-7.49-2v13.81l.35.12c.43.16.93.31,1.48.47a8.57,8.57,0,0,1,1.62.65,4.43,4.43,0,0,1,1.33,1,2.37,2.37,0,0,1,.53,1.57v22.77a1.42,1.42,0,0,1-.65,1.36,4.29,4.29,0,0,1-1.48.47h-.17a1,1,0,0,1-.48-.06l-11.21-3v-22.18l-8.14-7.32v27.38L9,1393.14V1407l31.51,8.44a1.23,1.23,0,0,0,.71.12A.62.62,0,0,0,41.61,1415.5Z"></path> <path class="cls-4" d="M46.21,1314.19,30,1335.2l16.58,4.37v14.92l-.41.42v.41l-34.46-9.26v-51.57a3.65,3.65,0,0,1,.56-1.92,4.31,4.31,0,0,1,1.62-1.51,4.17,4.17,0,0,1,2.89-1,4.9,4.9,0,0,1,1.66.24l13.27,3.54a10.14,10.14,0,0,1,2.24.94,11.19,11.19,0,0,1,2.19,1.56,8.41,8.41,0,0,1,1.65,2,4.77,4.77,0,0,1,.65,2.42v5l7.73-9.8v.3l.41-.42v17.7l-.41.54ZM29,1335.32,45.5,1314v-16l-8.14,10.32v-6.9a4.24,4.24,0,0,0-.62-2.21,8.92,8.92,0,0,0-1.54-1.89,9.48,9.48,0,0,0-2-1.45A11.48,11.48,0,0,0,31,1295l-13.27-3.54a3.9,3.9,0,0,0-1.54-.24,3.65,3.65,0,0,0-2.77,1.06,3.24,3.24,0,0,0-1,2.25v51l33,8.85v-13.81L20.84,1334v-25.84a.92.92,0,0,1,.73-1,4.56,4.56,0,0,1,1.21-.2h.42a4.79,4.79,0,0,1,.85.08l1.15.21a7.57,7.57,0,0,1,1.83.8,3.61,3.61,0,0,1,1.3,1.33c.12.19.26.46.44.79s.25.52.21.56ZM22,1333l6.31,1.71v-24.13l.18.11v-.06l-.27-.23a2,2,0,0,1-.32-.36.35.35,0,0,0-.12-.23,3,3,0,0,0-1.15-1.12,8.08,8.08,0,0,0-1.68-.71,11.49,11.49,0,0,0-1.71-.3h-.77a1,1,0,0,0-.47.12Z"></path> <path class="cls-4" d="M46.62,1286.7a2.9,2.9,0,0,1-.77,1.83,5.1,5.1,0,0,1-1.94,2,5.31,5.31,0,0,1-2.78.83h-.35a1.22,1.22,0,0,1-.41-.06l-.15,0-.15,0-22.36-6a7.19,7.19,0,0,1-2-.92,11.09,11.09,0,0,1-2-1.56,9,9,0,0,1-1.48-1.92,4.2,4.2,0,0,1-.59-2.09v-52l.35.12.42-.47,34.22,9.2v14.87l-.41.42v.41l-24.43-6.49v24.13a1.78,1.78,0,0,0,.71,1.24,2.88,2.88,0,0,0,1.3.77l12,3.24a2.81,2.81,0,0,0,.77.18v-22.12l.29.29.48-.47,9.26,8.67Zm-1.12.59v-25.78l-8.2-7.67v20.47a1.68,1.68,0,0,1-.18.77c-.12.23-.41.35-.88.35a5.25,5.25,0,0,1-1.12-.17l-12-3.25a3.74,3.74,0,0,1-1.57-1,2.26,2.26,0,0,1-.85-1.54v-25.6l.29-.12,24.55,6.55v-13.75l-33.16-8.91v51.1a3.71,3.71,0,0,0,.53,1.86,7.75,7.75,0,0,0,1.36,1.71,10,10,0,0,0,1.8,1.38,7,7,0,0,0,1.86.83l22.36,6,.53.09.35,0a4.37,4.37,0,0,0,1.6-.3,5,5,0,0,0,1.38-.79,4.72,4.72,0,0,0,1-1.1A2.09,2.09,0,0,0,45.5,1287.29Z"></path> <path class="cls-4" d="M35.82,1211.65a1.56,1.56,0,0,0,.71-.11.93.93,0,0,0,.12-.59v-22.78a1.84,1.84,0,0,0-1.15-1.71,14.85,14.85,0,0,0-2.27-1l-.12,0a.25.25,0,0,0-.12,0l-1.65-.59v-15.29l.35.12.42-.47,8.14,2.18a9.25,9.25,0,0,1,2,.8,10.28,10.28,0,0,1,2.07,1.39,8.07,8.07,0,0,1,1.62,1.85,4.13,4.13,0,0,1,.65,2.22v47.2a2.47,2.47,0,0,1-.71,1.71,3.83,3.83,0,0,1-1.83,1.71,5.93,5.93,0,0,1-2.3.71,1.7,1.7,0,0,1-.53.06,2,2,0,0,1-.82-.12l-32.1-8.61V1205l.35.11.41-.47,5.43,1.48v-27.38l.3.29.47-.53,9.2,8.26v22l10.86,2.83a.47.47,0,0,0,.3.06Zm5.79,16.64a4.54,4.54,0,0,0,1.21-.2,6,6,0,0,0,1.26-.56,3.6,3.6,0,0,0,1-.89,1.9,1.9,0,0,0,.41-1.18v-47.2a3.63,3.63,0,0,0-.62-2,7.47,7.47,0,0,0-1.5-1.68,10.78,10.78,0,0,0-3.84-2l-7.49-2v13.8l.35.12c.43.16.93.32,1.48.47a9.29,9.29,0,0,1,1.62.65,4.46,4.46,0,0,1,1.33,1,2.32,2.32,0,0,1,.53,1.56V1211a1.4,1.4,0,0,1-.65,1.35,4.3,4.3,0,0,1-1.48.48h-.17a1,1,0,0,1-.48-.06l-11.21-3v-22.19l-8.14-7.32v27.38L9,1205.93v13.87l31.51,8.43a1.23,1.23,0,0,0,.71.12A.62.62,0,0,0,41.61,1228.29Z"></path> <path class="cls-4" d="M46.62,1161.68a3,3,0,0,1-.71,1.89,4.77,4.77,0,0,1-1.65,1.83,6.44,6.44,0,0,1-2.06,1v.12h-.89l-1.42-.12-21.36-5.72a10.12,10.12,0,0,1-2.47-1,9.45,9.45,0,0,1-2.22-1.69,8.44,8.44,0,0,1-1.59-2.27,6.32,6.32,0,0,1-.62-2.8v-44.79a6.58,6.58,0,0,1,.09-.94,5,5,0,0,1,.38-1.24,5.64,5.64,0,0,1,.83-1.27,3.59,3.59,0,0,1,1.36-1,5.21,5.21,0,0,1,1.18-.59,4.59,4.59,0,0,1,1.59-.24,9.42,9.42,0,0,1,1.06.06,7.49,7.49,0,0,1,1.18.24l12.22,3.24a2.5,2.5,0,0,1,.76.47,6.06,6.06,0,0,1,.8.86c.25.34.49.67.71,1a2.47,2.47,0,0,1,.38.92v39.18a1.27,1.27,0,0,0,.62.2,5.19,5.19,0,0,0,.92.09h.53a1.31,1.31,0,0,0,.41-.06v-35.52l.29.3.48-.47,9.2,8.55Zm-5.07,4.07h.06a3,3,0,0,0,1.12-.26,5.53,5.53,0,0,0,1.27-.77,5.9,5.9,0,0,0,1.06-1.12,2.28,2.28,0,0,0,.44-1.33V1122.8l-8.14-7.56v33.87a1,1,0,0,1-.74.92,4.31,4.31,0,0,1-1.5.26,3.52,3.52,0,0,1-1.33-.29c-.49-.2-.74-.39-.74-.59v-39a2.74,2.74,0,0,0-.32-.83,8.93,8.93,0,0,0-.6-.91,3.75,3.75,0,0,0-.67-.74,1.59,1.59,0,0,0-.65-.36l-12.22-3.24a7.65,7.65,0,0,0-1.15-.24,8.14,8.14,0,0,0-1-.06,4,4,0,0,0-2.13.51,3.76,3.76,0,0,0-1.26,1.17,3.89,3.89,0,0,0-.59,1.39,5.67,5.67,0,0,0-.15,1.06V1153a5.73,5.73,0,0,0,.56,2.51,8,8,0,0,0,1.44,2.06,8.42,8.42,0,0,0,2,1.54,10.31,10.31,0,0,0,2.33.91l21.48,5.72,1.18.12h.12A.05.05,0,0,1,41.55,1165.75Zm-17.06-18h-.17c.11,0,0,0-.42-.12l-.7-.18C21.74,1147,21,1146.22,21,1145v-24.43c0-.31.23-.57.68-.76a4.91,4.91,0,0,1,1-.36.12.12,0,0,0,.09,0l0,0,1.36.36c.43.12.65.29.65.53v27C24.85,1147.56,24.73,1147.7,24.49,1147.7Zm-.59-1.42.24.06v-25.79a.16.16,0,0,1-.12,0l-1.18-.3h-.06l-.65.18v24.07Q22.13,1145.88,23.9,1146.28Z"></path> <path class="cls-4" d="M35.47,1061.44a11.12,11.12,0,0,0-1.24-.83l-5.72-1.53v-15.76l.35.12.41-.47,22.43,6v15.4l-.42.41v.41L46.62,1064v34.63a4.42,4.42,0,0,1-.94,2.95,3.59,3.59,0,0,1-1.77,1.71,6.32,6.32,0,0,1-2.66.53,7.19,7.19,0,0,1-1-.08l-1.3-.21-21.48-5.73a7,7,0,0,1-1.92-.88,11.24,11.24,0,0,1-1.88-1.48,9.22,9.22,0,0,1-1.45-1.77,3.49,3.49,0,0,1-.59-1.83V1039l.3.29.47-.47,9.2,8.85v33.75a1.23,1.23,0,0,0,.33.71,4.6,4.6,0,0,0,.76.77,7.8,7.8,0,0,0,.92.62,2.94,2.94,0,0,0,.77.32l11,3a.84.84,0,0,0,.36.06,1.84,1.84,0,0,0,.47.06v-24.61C36.18,1062.07,35.94,1061.79,35.47,1061.44ZM36,1061c.57.45.85.87.85,1.26v24.43a1.14,1.14,0,0,1-1.29,1.3,3.19,3.19,0,0,1-.45,0l-.5-.09-11-2.95a2.61,2.61,0,0,1-.89-.38,9.72,9.72,0,0,1-1.06-.77,5.34,5.34,0,0,1-.88-.91,1.51,1.51,0,0,1-.36-.89V1048.4l-8.14-7.85v51.33a3,3,0,0,0,.53,1.6A8,8,0,0,0,14.2,1095a10.11,10.11,0,0,0,1.74,1.3,8.5,8.5,0,0,0,1.71.8l21.48,5.72a16.11,16.11,0,0,0,2.12.3,5,5,0,0,0,3-.92,3.41,3.41,0,0,0,1.27-3v-36.35l5.07,1.36V1050l-21.36-5.72v14.28l5.32,1.41A10.9,10.9,0,0,1,36,1061Z"></path> <path class="cls-4" d="M23.25,1019.67V994.83l-11.5-3.07V976.48l.35.11.42-.47,31.86,8.56a9.37,9.37,0,0,1,1,.41,4.2,4.2,0,0,1,.38.24,11.18,11.18,0,0,1,1.33.94,11.6,11.6,0,0,1,1.39,1.33,8.12,8.12,0,0,1,1.09,1.56,3.31,3.31,0,0,1,.44,1.6v43a2.94,2.94,0,0,1-.71,2,2.83,2.83,0,0,1-1.74,1.59,7.53,7.53,0,0,1-2.5.41,6.75,6.75,0,0,1-1.09-.08l-1.21-.21-8-2.18V1020l.36.12.41-.47,1.06.35.65.18,1.21.24a6.08,6.08,0,0,0,1.15.12H40a1.25,1.25,0,0,0,.06-.48v-18.58a1.9,1.9,0,0,0-.53-1.3,4.41,4.41,0,0,0-1.18-.95c-.24-.23-.41-.35-.53-.35l-4.6-1.18v35.7a3,3,0,0,1-.65,1.89,3,3,0,0,1-1.8,1.68,7.67,7.67,0,0,1-2.69.5,5.86,5.86,0,0,1-2.24-.3l-14.1-3.77v-15.23l.35.12.42-.47,7.19,2h.12l1.39.26a6.94,6.94,0,0,0,1.39.15h.59A1.28,1.28,0,0,0,23.25,1019.67ZM44.38,986l-.41-.18-31.51-8.44v13.81L24,994.3v25.37a1.33,1.33,0,0,1-.56,1.27,2.76,2.76,0,0,1-1.38.32,8.43,8.43,0,0,1-1.57-.15l-1.44-.26-6.55-1.77v13.75l13.69,3.66a5.59,5.59,0,0,0,1.94.23,6.1,6.1,0,0,0,2.75-.62,2.2,2.2,0,0,0,1.27-2.15V996.54l5.9,1.59a1,1,0,0,1,.59.36,5.64,5.64,0,0,1,1.5,1.24,2.53,2.53,0,0,1,.68,1.71V1020a1.41,1.41,0,0,1-.5,1.27,2.28,2.28,0,0,1-1.27.33,7,7,0,0,1-1.68-.21c-.57-.14-1.07-.25-1.51-.33l-.35-.11v13.74l7.49,2a12.23,12.23,0,0,0,2.13.3,5.92,5.92,0,0,0,2.62-.59,2.16,2.16,0,0,0,1.21-2.13V991.35a3,3,0,0,0-.41-1.45,9.4,9.4,0,0,0-1-1.42,10.07,10.07,0,0,0-1.3-1.23,9.47,9.47,0,0,0-1.24-.86A1.83,1.83,0,0,0,44.38,986Z"></path> </g> <g class="cls-3"> <path class="cls-5" d="M36.59,1471.79v-35.35l-.18-.06a2.8,2.8,0,0,0-.82-.59,7.29,7.29,0,0,0-1.06-.35l-.42-.12v38.18l-.41.41v.23a4.38,4.38,0,0,1-1.59,1.33,4.06,4.06,0,0,1-1.6.33,5.14,5.14,0,0,1-1-.06l-.12,0-.12,0-11.5-3.07a6.68,6.68,0,0,1-2-1,11.88,11.88,0,0,1-2-1.68,11.33,11.33,0,0,1-1.47-2,3.8,3.8,0,0,1-.59-1.89v-52.57l.29.29.48-.47,9.44,8.79v34.28a1.39,1.39,0,0,0,.68,1.15,5.68,5.68,0,0,0,1.5.8v-41.13l.35.12.42-.47L40.07,1421a8.72,8.72,0,0,1,2.21,1,12.69,12.69,0,0,1,2.13,1.66,8.89,8.89,0,0,1,1.59,2,4.29,4.29,0,0,1,.62,2.16v52l-.41.41v.59Zm.71-35v34.7l8.2,7.67v-50.74a3.88,3.88,0,0,0-.59-2,9.32,9.32,0,0,0-1.48-1.89,9.81,9.81,0,0,0-2-1.53,9.14,9.14,0,0,0-2.1-1l-14.57-3.89v40.71a2.77,2.77,0,0,1-.09.5c-.06.26-.17.39-.32.39l-.65-.18a5.47,5.47,0,0,1-2-1,2.05,2.05,0,0,1-.91-1.57v-34l-8.38-7.79v50.92a3.44,3.44,0,0,0,.53,1.68,8.39,8.39,0,0,0,1.36,1.74,12.22,12.22,0,0,0,1.8,1.48,6.07,6.07,0,0,0,1.85.88L29.45,1475l.53.09a4.33,4.33,0,0,0,.53,0,2.91,2.91,0,0,0,1.24-.27,3.8,3.8,0,0,0,1.24-1v-39.24a.57.57,0,0,1,.41-.18c.32,0,.5,0,.53.06l.77.24a8.08,8.08,0,0,1,1.12.38,3.58,3.58,0,0,1,1,.74,2.38,2.38,0,0,1,.35.56C37.3,1436.67,37.34,1436.79,37.3,1436.79Zm-3.78,37.3-.12.11C33.48,1474.2,33.52,1474.16,33.52,1474.09Z"></path> <path class="cls-5" d="M35.82,1398.86a1.4,1.4,0,0,0,.71-.12.91.91,0,0,0,.12-.59v-22.77a1.84,1.84,0,0,0-1.15-1.71,14.85,14.85,0,0,0-2.27-1l-.12,0-.12,0-1.65-.59v-15.28l.35.12.42-.47,8.14,2.18a9.25,9.25,0,0,1,2,.8,10.66,10.66,0,0,1,2.07,1.38,7.91,7.91,0,0,1,1.62,1.86,4.12,4.12,0,0,1,.65,2.21v47.21a2.47,2.47,0,0,1-.71,1.71,3.83,3.83,0,0,1-1.83,1.71,6.11,6.11,0,0,1-2.3.71,1.7,1.7,0,0,1-.53.06,2,2,0,0,1-.82-.12l-32.1-8.62v-15.34l.35.12.41-.47,5.43,1.47v-27.37l.3.29.47-.53,9.2,8.26v22l10.86,2.83a.47.47,0,0,0,.3.06Zm5.79,16.64a4.22,4.22,0,0,0,1.21-.21,5.1,5.1,0,0,0,1.26-.56,3.56,3.56,0,0,0,1-.88,1.92,1.92,0,0,0,.41-1.18v-47.21a3.6,3.6,0,0,0-.62-2,7.47,7.47,0,0,0-1.5-1.68,9.83,9.83,0,0,0-1.92-1.27,9.6,9.6,0,0,0-1.92-.77l-7.49-2v13.81l.35.12c.43.16.93.31,1.48.47a8.57,8.57,0,0,1,1.62.65,4.43,4.43,0,0,1,1.33,1,2.37,2.37,0,0,1,.53,1.57v22.77a1.42,1.42,0,0,1-.65,1.36,4.29,4.29,0,0,1-1.48.47h-.17a1,1,0,0,1-.48-.06l-11.21-3v-22.18l-8.14-7.32v27.38L9,1393.14V1407l31.51,8.44a1.23,1.23,0,0,0,.71.12A.62.62,0,0,0,41.61,1415.5Z"></path> <path class="cls-5" d="M46.21,1314.19,30,1335.2l16.58,4.37v14.92l-.41.42v.41l-34.46-9.26v-51.57a3.65,3.65,0,0,1,.56-1.92,4.31,4.31,0,0,1,1.62-1.51,4.17,4.17,0,0,1,2.89-1,4.9,4.9,0,0,1,1.66.24l13.27,3.54a10.14,10.14,0,0,1,2.24.94,11.19,11.19,0,0,1,2.19,1.56,8.41,8.41,0,0,1,1.65,2,4.77,4.77,0,0,1,.65,2.42v5l7.73-9.8v.3l.41-.42v17.7l-.41.54ZM29,1335.32,45.5,1314v-16l-8.14,10.32v-6.9a4.24,4.24,0,0,0-.62-2.21,8.92,8.92,0,0,0-1.54-1.89,9.48,9.48,0,0,0-2-1.45A11.48,11.48,0,0,0,31,1295l-13.27-3.54a3.9,3.9,0,0,0-1.54-.24,3.65,3.65,0,0,0-2.77,1.06,3.24,3.24,0,0,0-1,2.25v51l33,8.85v-13.81L20.84,1334v-25.84a.92.92,0,0,1,.73-1,4.56,4.56,0,0,1,1.21-.2h.42a4.79,4.79,0,0,1,.85.08l1.15.21a7.57,7.57,0,0,1,1.83.8,3.61,3.61,0,0,1,1.3,1.33c.12.19.26.46.44.79s.25.52.21.56ZM22,1333l6.31,1.71v-24.13l.18.11v-.06l-.27-.23a2,2,0,0,1-.32-.36.35.35,0,0,0-.12-.23,3,3,0,0,0-1.15-1.12,8.08,8.08,0,0,0-1.68-.71,11.49,11.49,0,0,0-1.71-.3h-.77a1,1,0,0,0-.47.12Z"></path> <path class="cls-5" d="M46.62,1286.7a2.9,2.9,0,0,1-.77,1.83,5.1,5.1,0,0,1-1.94,2,5.31,5.31,0,0,1-2.78.83h-.35a1.22,1.22,0,0,1-.41-.06l-.15,0-.15,0-22.36-6a7.19,7.19,0,0,1-2-.92,11.09,11.09,0,0,1-2-1.56,9,9,0,0,1-1.48-1.92,4.2,4.2,0,0,1-.59-2.09v-52l.35.12.42-.47,34.22,9.2v14.87l-.41.42v.41l-24.43-6.49v24.13a1.78,1.78,0,0,0,.71,1.24,2.88,2.88,0,0,0,1.3.77l12,3.24a2.81,2.81,0,0,0,.77.18v-22.12l.29.29.48-.47,9.26,8.67Zm-1.12.59v-25.78l-8.2-7.67v20.47a1.68,1.68,0,0,1-.18.77c-.12.23-.41.35-.88.35a5.25,5.25,0,0,1-1.12-.17l-12-3.25a3.74,3.74,0,0,1-1.57-1,2.26,2.26,0,0,1-.85-1.54v-25.6l.29-.12,24.55,6.55v-13.75l-33.16-8.91v51.1a3.71,3.71,0,0,0,.53,1.86,7.75,7.75,0,0,0,1.36,1.71,10,10,0,0,0,1.8,1.38,7,7,0,0,0,1.86.83l22.36,6,.53.09.35,0a4.37,4.37,0,0,0,1.6-.3,5,5,0,0,0,1.38-.79,4.72,4.72,0,0,0,1-1.1A2.09,2.09,0,0,0,45.5,1287.29Z"></path> <path class="cls-5" d="M35.82,1211.65a1.56,1.56,0,0,0,.71-.11.93.93,0,0,0,.12-.59v-22.78a1.84,1.84,0,0,0-1.15-1.71,14.85,14.85,0,0,0-2.27-1l-.12,0a.25.25,0,0,0-.12,0l-1.65-.59v-15.29l.35.12.42-.47,8.14,2.18a9.25,9.25,0,0,1,2,.8,10.28,10.28,0,0,1,2.07,1.39,8.07,8.07,0,0,1,1.62,1.85,4.13,4.13,0,0,1,.65,2.22v47.2a2.47,2.47,0,0,1-.71,1.71,3.83,3.83,0,0,1-1.83,1.71,5.93,5.93,0,0,1-2.3.71,1.7,1.7,0,0,1-.53.06,2,2,0,0,1-.82-.12l-32.1-8.61V1205l.35.11.41-.47,5.43,1.48v-27.38l.3.29.47-.53,9.2,8.26v22l10.86,2.83a.47.47,0,0,0,.3.06Zm5.79,16.64a4.54,4.54,0,0,0,1.21-.2,6,6,0,0,0,1.26-.56,3.6,3.6,0,0,0,1-.89,1.9,1.9,0,0,0,.41-1.18v-47.2a3.63,3.63,0,0,0-.62-2,7.47,7.47,0,0,0-1.5-1.68,10.78,10.78,0,0,0-3.84-2l-7.49-2v13.8l.35.12c.43.16.93.32,1.48.47a9.29,9.29,0,0,1,1.62.65,4.46,4.46,0,0,1,1.33,1,2.32,2.32,0,0,1,.53,1.56V1211a1.4,1.4,0,0,1-.65,1.35,4.3,4.3,0,0,1-1.48.48h-.17a1,1,0,0,1-.48-.06l-11.21-3v-22.19l-8.14-7.32v27.38L9,1205.93v13.87l31.51,8.43a1.23,1.23,0,0,0,.71.12A.62.62,0,0,0,41.61,1228.29Z"></path> <path class="cls-5" d="M46.62,1161.68a3,3,0,0,1-.71,1.89,4.77,4.77,0,0,1-1.65,1.83,6.44,6.44,0,0,1-2.06,1v.12h-.89l-1.42-.12-21.36-5.72a10.12,10.12,0,0,1-2.47-1,9.45,9.45,0,0,1-2.22-1.69,8.44,8.44,0,0,1-1.59-2.27,6.32,6.32,0,0,1-.62-2.8v-44.79a6.58,6.58,0,0,1,.09-.94,5,5,0,0,1,.38-1.24,5.64,5.64,0,0,1,.83-1.27,3.59,3.59,0,0,1,1.36-1,5.21,5.21,0,0,1,1.18-.59,4.59,4.59,0,0,1,1.59-.24,9.42,9.42,0,0,1,1.06.06,7.49,7.49,0,0,1,1.18.24l12.22,3.24a2.5,2.5,0,0,1,.76.47,6.06,6.06,0,0,1,.8.86c.25.34.49.67.71,1a2.47,2.47,0,0,1,.38.92v39.18a1.27,1.27,0,0,0,.62.2,5.19,5.19,0,0,0,.92.09h.53a1.31,1.31,0,0,0,.41-.06v-35.52l.29.3.48-.47,9.2,8.55Zm-5.07,4.07h.06a3,3,0,0,0,1.12-.26,5.53,5.53,0,0,0,1.27-.77,5.9,5.9,0,0,0,1.06-1.12,2.28,2.28,0,0,0,.44-1.33V1122.8l-8.14-7.56v33.87a1,1,0,0,1-.74.92,4.31,4.31,0,0,1-1.5.26,3.52,3.52,0,0,1-1.33-.29c-.49-.2-.74-.39-.74-.59v-39a2.74,2.74,0,0,0-.32-.83,8.93,8.93,0,0,0-.6-.91,3.75,3.75,0,0,0-.67-.74,1.59,1.59,0,0,0-.65-.36l-12.22-3.24a7.65,7.65,0,0,0-1.15-.24,8.14,8.14,0,0,0-1-.06,4,4,0,0,0-2.13.51,3.76,3.76,0,0,0-1.26,1.17,3.89,3.89,0,0,0-.59,1.39,5.67,5.67,0,0,0-.15,1.06V1153a5.73,5.73,0,0,0,.56,2.51,8,8,0,0,0,1.44,2.06,8.42,8.42,0,0,0,2,1.54,10.31,10.31,0,0,0,2.33.91l21.48,5.72,1.18.12h.12A.05.05,0,0,1,41.55,1165.75Zm-17.06-18h-.17c.11,0,0,0-.42-.12l-.7-.18C21.74,1147,21,1146.22,21,1145v-24.43c0-.31.23-.57.68-.76a4.91,4.91,0,0,1,1-.36.12.12,0,0,0,.09,0l0,0,1.36.36c.43.12.65.29.65.53v27C24.85,1147.56,24.73,1147.7,24.49,1147.7Zm-.59-1.42.24.06v-25.79a.16.16,0,0,1-.12,0l-1.18-.3h-.06l-.65.18v24.07Q22.13,1145.88,23.9,1146.28Z"></path> <path class="cls-5" d="M35.47,1061.44a11.12,11.12,0,0,0-1.24-.83l-5.72-1.53v-15.76l.35.12.41-.47,22.43,6v15.4l-.42.41v.41L46.62,1064v34.63a4.42,4.42,0,0,1-.94,2.95,3.59,3.59,0,0,1-1.77,1.71,6.32,6.32,0,0,1-2.66.53,7.19,7.19,0,0,1-1-.08l-1.3-.21-21.48-5.73a7,7,0,0,1-1.92-.88,11.24,11.24,0,0,1-1.88-1.48,9.22,9.22,0,0,1-1.45-1.77,3.49,3.49,0,0,1-.59-1.83V1039l.3.29.47-.47,9.2,8.85v33.75a1.23,1.23,0,0,0,.33.71,4.6,4.6,0,0,0,.76.77,7.8,7.8,0,0,0,.92.62,2.94,2.94,0,0,0,.77.32l11,3a.84.84,0,0,0,.36.06,1.84,1.84,0,0,0,.47.06v-24.61C36.18,1062.07,35.94,1061.79,35.47,1061.44ZM36,1061c.57.45.85.87.85,1.26v24.43a1.14,1.14,0,0,1-1.29,1.3,3.19,3.19,0,0,1-.45,0l-.5-.09-11-2.95a2.61,2.61,0,0,1-.89-.38,9.72,9.72,0,0,1-1.06-.77,5.34,5.34,0,0,1-.88-.91,1.51,1.51,0,0,1-.36-.89V1048.4l-8.14-7.85v51.33a3,3,0,0,0,.53,1.6A8,8,0,0,0,14.2,1095a10.11,10.11,0,0,0,1.74,1.3,8.5,8.5,0,0,0,1.71.8l21.48,5.72a16.11,16.11,0,0,0,2.12.3,5,5,0,0,0,3-.92,3.41,3.41,0,0,0,1.27-3v-36.35l5.07,1.36V1050l-21.36-5.72v14.28l5.32,1.41A10.9,10.9,0,0,1,36,1061Z"></path> <path class="cls-5" d="M23.25,1019.67V994.83l-11.5-3.07V976.48l.35.11.42-.47,31.86,8.56a9.37,9.37,0,0,1,1,.41,4.2,4.2,0,0,1,.38.24,11.18,11.18,0,0,1,1.33.94,11.6,11.6,0,0,1,1.39,1.33,8.12,8.12,0,0,1,1.09,1.56,3.31,3.31,0,0,1,.44,1.6v43a2.94,2.94,0,0,1-.71,2,2.83,2.83,0,0,1-1.74,1.59,7.53,7.53,0,0,1-2.5.41,6.75,6.75,0,0,1-1.09-.08l-1.21-.21-8-2.18V1020l.36.12.41-.47,1.06.35.65.18,1.21.24a6.08,6.08,0,0,0,1.15.12H40a1.25,1.25,0,0,0,.06-.48v-18.58a1.9,1.9,0,0,0-.53-1.3,4.41,4.41,0,0,0-1.18-.95c-.24-.23-.41-.35-.53-.35l-4.6-1.18v35.7a3,3,0,0,1-.65,1.89,3,3,0,0,1-1.8,1.68,7.67,7.67,0,0,1-2.69.5,5.86,5.86,0,0,1-2.24-.3l-14.1-3.77v-15.23l.35.12.42-.47,7.19,2h.12l1.39.26a6.94,6.94,0,0,0,1.39.15h.59A1.28,1.28,0,0,0,23.25,1019.67ZM44.38,986l-.41-.18-31.51-8.44v13.81L24,994.3v25.37a1.33,1.33,0,0,1-.56,1.27,2.76,2.76,0,0,1-1.38.32,8.43,8.43,0,0,1-1.57-.15l-1.44-.26-6.55-1.77v13.75l13.69,3.66a5.59,5.59,0,0,0,1.94.23,6.1,6.1,0,0,0,2.75-.62,2.2,2.2,0,0,0,1.27-2.15V996.54l5.9,1.59a1,1,0,0,1,.59.36,5.64,5.64,0,0,1,1.5,1.24,2.53,2.53,0,0,1,.68,1.71V1020a1.41,1.41,0,0,1-.5,1.27,2.28,2.28,0,0,1-1.27.33,7,7,0,0,1-1.68-.21c-.57-.14-1.07-.25-1.51-.33l-.35-.11v13.74l7.49,2a12.23,12.23,0,0,0,2.13.3,5.92,5.92,0,0,0,2.62-.59,2.16,2.16,0,0,0,1.21-2.13V991.35a3,3,0,0,0-.41-1.45,9.4,9.4,0,0,0-1-1.42,10.07,10.07,0,0,0-1.3-1.23,9.47,9.47,0,0,0-1.24-.86A1.83,1.83,0,0,0,44.38,986Z"></path> </g> </g> <g id="aDs" class="cls-3"> <g class="cls-3"> <path class="cls-4" d="M46.62,357.5a2.9,2.9,0,0,1-.77,1.83,5.1,5.1,0,0,1-1.94,1.95,5.29,5.29,0,0,1-2.78.82h-.35a1.58,1.58,0,0,1-.41-.05l-.15,0-.15,0-22.36-6a7.48,7.48,0,0,1-2-.92,11.09,11.09,0,0,1-2-1.56,9,9,0,0,1-1.48-1.92,4.22,4.22,0,0,1-.59-2.09V297.49l.35.12.42-.47,34.22,9.2v14.87l-.41.42V322l-24.43-6.49v24.13a1.78,1.78,0,0,0,.71,1.24,2.88,2.88,0,0,0,1.3.77l12,3.24a2.81,2.81,0,0,0,.77.18V323l.29.3.48-.47,9.26,8.67Zm-1.12.59V332.31l-8.2-7.67v20.47a1.68,1.68,0,0,1-.18.77c-.12.23-.41.35-.88.35a4.78,4.78,0,0,1-1.12-.18l-12-3.24a3.74,3.74,0,0,1-1.57-1,2.28,2.28,0,0,1-.85-1.54V314.66l.29-.11L45.5,321.1V307.35l-33.16-8.91v51.1a3.71,3.71,0,0,0,.53,1.86,8,8,0,0,0,1.36,1.71,10,10,0,0,0,1.8,1.38,7,7,0,0,0,1.86.83l22.36,6,.53.09.35,0a4.37,4.37,0,0,0,1.6-.3,5,5,0,0,0,1.38-.8,4.49,4.49,0,0,0,1-1.09A2.09,2.09,0,0,0,45.5,358.09Z"></path> <path class="cls-4" d="M36.35,282.57h.24a1.68,1.68,0,0,0,.06-.59V259.2a1.81,1.81,0,0,0-.56-1.32,8.7,8.7,0,0,0-1.27-1l-.21-.08a.57.57,0,0,1-.2-.15l-26.08-7v-15.4l.35.11.41-.47,32.16,8.62.36.17a3.05,3.05,0,0,0,.5.27,2.09,2.09,0,0,1,.44.26,14,14,0,0,1,1.24,1,12.24,12.24,0,0,1,1.33,1.36A10.22,10.22,0,0,1,46.18,247a3.24,3.24,0,0,1,.44,1.56v47.09a2.74,2.74,0,0,1-.71,2,3,3,0,0,1-1.77,1.62,7.74,7.74,0,0,1-2.59.44,8.26,8.26,0,0,1-2.3-.23l-19.06-5.14a6,6,0,0,1-1.77-.79,9.85,9.85,0,0,1-1.86-1.51,10.34,10.34,0,0,1-1.45-1.89,3.8,3.8,0,0,1-.59-1.89V254.72l.3.3.47-.48,9.2,8.68v14.93a5,5,0,0,0,1.15,1.38,3.56,3.56,0,0,0,1.39.74L33.7,282H34c.83.24,1.38.38,1.66.44A3.35,3.35,0,0,0,36.35,282.57Zm5.26-38.47a1.67,1.67,0,0,0-.59-.33,1.73,1.73,0,0,1-.48-.2L9,235.13v13.93l25.55,6.84a1,1,0,0,0,.3.15l.35.14a7.2,7.2,0,0,1,1.48,1.27,2.59,2.59,0,0,1,.65,1.74V282a1.7,1.7,0,0,1-.44,1.36,1.84,1.84,0,0,1-1.16.35,4.24,4.24,0,0,1-.76-.09c-.32-.06-.89-.2-1.71-.44a.12.12,0,0,0-.09,0l0,0-6.85-1.83a4.69,4.69,0,0,1-1.65-.91,5.12,5.12,0,0,1-1.3-1.63V264l-8.14-7.67v31.92a3.24,3.24,0,0,0,.53,1.69,8.67,8.67,0,0,0,1.33,1.62,11,11,0,0,0,1.68,1.33,5.47,5.47,0,0,0,1.59.73l19.18,5.14a6.91,6.91,0,0,0,2,.23,5.9,5.9,0,0,0,2.71-.62,2.2,2.2,0,0,0,1.24-2.15V249.17a3.15,3.15,0,0,0-.41-1.47,8.22,8.22,0,0,0-1-1.45A11.34,11.34,0,0,0,42.82,245C42.36,244.64,42,244.33,41.61,244.1Z"></path> <path class="cls-4" d="M36.59,230.47V195.13l-.18-.06a2.8,2.8,0,0,0-.82-.59,8.76,8.76,0,0,0-1.06-.35l-.42-.12v38.18l-.41.41v.23a4.38,4.38,0,0,1-1.59,1.33,4.06,4.06,0,0,1-1.6.33,5.14,5.14,0,0,1-1-.06l-.12,0a.27.27,0,0,0-.12,0l-11.5-3.07a6.68,6.68,0,0,1-2-1,11.88,11.88,0,0,1-2-1.68,11.33,11.33,0,0,1-1.47-2,3.8,3.8,0,0,1-.59-1.89V172.24l.29.29.48-.47,9.44,8.79v34.28a1.39,1.39,0,0,0,.68,1.15,5.68,5.68,0,0,0,1.5.8V176l.35.12.42-.47,15.22,4.07a8.72,8.72,0,0,1,2.21,1,12.69,12.69,0,0,1,2.13,1.66,8.89,8.89,0,0,1,1.59,2,4.29,4.29,0,0,1,.62,2.16v52l-.41.41v.59Zm.71-35v34.7l8.2,7.67V187.11a3.88,3.88,0,0,0-.59-2,9.32,9.32,0,0,0-1.48-1.89,9.81,9.81,0,0,0-2-1.53,9.14,9.14,0,0,0-2.1-1L24.79,176.9v40.71a2.77,2.77,0,0,1-.09.5c-.06.26-.17.39-.32.39l-.65-.18a5.47,5.47,0,0,1-2-1,2.05,2.05,0,0,1-.91-1.57v-34l-8.38-7.79v50.92a3.44,3.44,0,0,0,.53,1.68,8.39,8.39,0,0,0,1.36,1.74,12.22,12.22,0,0,0,1.8,1.48,6.07,6.07,0,0,0,1.85.88l11.51,3.07.53.09a4.33,4.33,0,0,0,.53,0,2.91,2.91,0,0,0,1.24-.27,3.8,3.8,0,0,0,1.24-1V193.3a.57.57,0,0,1,.41-.18c.32,0,.5,0,.53.06l.77.24a9.67,9.67,0,0,1,1.12.38,3.58,3.58,0,0,1,1,.74,2.38,2.38,0,0,1,.35.56C37.3,195.36,37.34,195.48,37.3,195.48Zm-3.78,37.3-.12.11C33.48,232.89,33.52,232.85,33.52,232.78Z"></path> </g> <g class="cls-3"> <path class="cls-5" d="M46.62,357.5a2.9,2.9,0,0,1-.77,1.83,5.1,5.1,0,0,1-1.94,1.95,5.29,5.29,0,0,1-2.78.82h-.35a1.58,1.58,0,0,1-.41-.05l-.15,0-.15,0-22.36-6a7.48,7.48,0,0,1-2-.92,11.09,11.09,0,0,1-2-1.56,9,9,0,0,1-1.48-1.92,4.22,4.22,0,0,1-.59-2.09V297.49l.35.12.42-.47,34.22,9.2v14.87l-.41.42V322l-24.43-6.49v24.13a1.78,1.78,0,0,0,.71,1.24,2.88,2.88,0,0,0,1.3.77l12,3.24a2.81,2.81,0,0,0,.77.18V323l.29.3.48-.47,9.26,8.67Zm-1.12.59V332.31l-8.2-7.67v20.47a1.68,1.68,0,0,1-.18.77c-.12.23-.41.35-.88.35a4.78,4.78,0,0,1-1.12-.18l-12-3.24a3.74,3.74,0,0,1-1.57-1,2.28,2.28,0,0,1-.85-1.54V314.66l.29-.11L45.5,321.1V307.35l-33.16-8.91v51.1a3.71,3.71,0,0,0,.53,1.86,8,8,0,0,0,1.36,1.71,10,10,0,0,0,1.8,1.38,7,7,0,0,0,1.86.83l22.36,6,.53.09.35,0a4.37,4.37,0,0,0,1.6-.3,5,5,0,0,0,1.38-.8,4.49,4.49,0,0,0,1-1.09A2.09,2.09,0,0,0,45.5,358.09Z"></path> <path class="cls-5" d="M36.35,282.57h.24a1.68,1.68,0,0,0,.06-.59V259.2a1.81,1.81,0,0,0-.56-1.32,8.7,8.7,0,0,0-1.27-1l-.21-.08a.57.57,0,0,1-.2-.15l-26.08-7v-15.4l.35.11.41-.47,32.16,8.62.36.17a3.05,3.05,0,0,0,.5.27,2.09,2.09,0,0,1,.44.26,14,14,0,0,1,1.24,1,12.24,12.24,0,0,1,1.33,1.36A10.22,10.22,0,0,1,46.18,247a3.24,3.24,0,0,1,.44,1.56v47.09a2.74,2.74,0,0,1-.71,2,3,3,0,0,1-1.77,1.62,7.74,7.74,0,0,1-2.59.44,8.26,8.26,0,0,1-2.3-.23l-19.06-5.14a6,6,0,0,1-1.77-.79,9.85,9.85,0,0,1-1.86-1.51,10.34,10.34,0,0,1-1.45-1.89,3.8,3.8,0,0,1-.59-1.89V254.72l.3.3.47-.48,9.2,8.68v14.93a5,5,0,0,0,1.15,1.38,3.56,3.56,0,0,0,1.39.74L33.7,282H34c.83.24,1.38.38,1.66.44A3.35,3.35,0,0,0,36.35,282.57Zm5.26-38.47a1.67,1.67,0,0,0-.59-.33,1.73,1.73,0,0,1-.48-.2L9,235.13v13.93l25.55,6.84a1,1,0,0,0,.3.15l.35.14a7.2,7.2,0,0,1,1.48,1.27,2.59,2.59,0,0,1,.65,1.74V282a1.7,1.7,0,0,1-.44,1.36,1.84,1.84,0,0,1-1.16.35,4.24,4.24,0,0,1-.76-.09c-.32-.06-.89-.2-1.71-.44a.12.12,0,0,0-.09,0l0,0-6.85-1.83a4.69,4.69,0,0,1-1.65-.91,5.12,5.12,0,0,1-1.3-1.63V264l-8.14-7.67v31.92a3.24,3.24,0,0,0,.53,1.69,8.67,8.67,0,0,0,1.33,1.62,11,11,0,0,0,1.68,1.33,5.47,5.47,0,0,0,1.59.73l19.18,5.14a6.91,6.91,0,0,0,2,.23,5.9,5.9,0,0,0,2.71-.62,2.2,2.2,0,0,0,1.24-2.15V249.17a3.15,3.15,0,0,0-.41-1.47,8.22,8.22,0,0,0-1-1.45A11.34,11.34,0,0,0,42.82,245C42.36,244.64,42,244.33,41.61,244.1Z"></path> <path class="cls-5" d="M36.59,230.47V195.13l-.18-.06a2.8,2.8,0,0,0-.82-.59,8.76,8.76,0,0,0-1.06-.35l-.42-.12v38.18l-.41.41v.23a4.38,4.38,0,0,1-1.59,1.33,4.06,4.06,0,0,1-1.6.33,5.14,5.14,0,0,1-1-.06l-.12,0a.27.27,0,0,0-.12,0l-11.5-3.07a6.68,6.68,0,0,1-2-1,11.88,11.88,0,0,1-2-1.68,11.33,11.33,0,0,1-1.47-2,3.8,3.8,0,0,1-.59-1.89V172.24l.29.29.48-.47,9.44,8.79v34.28a1.39,1.39,0,0,0,.68,1.15,5.68,5.68,0,0,0,1.5.8V176l.35.12.42-.47,15.22,4.07a8.72,8.72,0,0,1,2.21,1,12.69,12.69,0,0,1,2.13,1.66,8.89,8.89,0,0,1,1.59,2,4.29,4.29,0,0,1,.62,2.16v52l-.41.41v.59Zm.71-35v34.7l8.2,7.67V187.11a3.88,3.88,0,0,0-.59-2,9.32,9.32,0,0,0-1.48-1.89,9.81,9.81,0,0,0-2-1.53,9.14,9.14,0,0,0-2.1-1L24.79,176.9v40.71a2.77,2.77,0,0,1-.09.5c-.06.26-.17.39-.32.39l-.65-.18a5.47,5.47,0,0,1-2-1,2.05,2.05,0,0,1-.91-1.57v-34l-8.38-7.79v50.92a3.44,3.44,0,0,0,.53,1.68,8.39,8.39,0,0,0,1.36,1.74,12.22,12.22,0,0,0,1.8,1.48,6.07,6.07,0,0,0,1.85.88l11.51,3.07.53.09a4.33,4.33,0,0,0,.53,0,2.91,2.91,0,0,0,1.24-.27,3.8,3.8,0,0,0,1.24-1V193.3a.57.57,0,0,1,.41-.18c.32,0,.5,0,.53.06l.77.24a9.67,9.67,0,0,1,1.12.38,3.58,3.58,0,0,1,1,.74,2.38,2.38,0,0,1,.35.56C37.3,195.36,37.34,195.48,37.3,195.48Zm-3.78,37.3-.12.11C33.48,232.89,33.52,232.85,33.52,232.78Z"></path> </g> </g> </g> <line id="Line_106" data-name="Line 106" class="cls-2" x1="29.04" y1="150" x2="29.04"></line> </g> </g> </svg> 