<?xml version="1.0" encoding="UTF-8"?> <svg xmlns="http://www.w3.org/2000/svg" width="181.599" height="59.891" viewBox="0 0 181.599 59.891"> <g id="Контур_13424" data-name="Контур 13424" transform="translate(0.022 6.343) rotate(-2)" fill="none"> <path d="M90.033-.062c49.66-.291,89.858,11.481,89.784,26.292S139.425,53.284,89.764,53.575-.094,42.094-.019,27.283,40.373.229,90.033-.062Z" stroke="none"></path> <path d="M 91.83269500732422 0.9329452514648438 C 91.23662567138672 0.9329452514648438 90.63317108154297 0.9347190856933594 90.0390625 0.9381942749023438 C 77.94181060791016 1.009037017822266 66.20451354980469 1.784149169921875 55.15322113037109 3.242057800292969 C 44.49299621582031 4.64837646484375 34.92083740234375 6.626762390136719 26.70262145996094 9.122261047363281 C 18.53533935546875 11.6022834777832 12.13426208496094 14.46092224121094 7.677215576171875 17.61874008178711 C 5.47003173828125 19.18251419067383 3.7813720703125 20.80278396606445 2.658172607421875 22.43453598022461 C 1.553085327148438 24.04001235961914 0.9886322021484375 25.6729679107666 0.9805145263671875 27.2881031036377 C 0.9688720703125 29.6116943359375 2.102371215820312 31.93498992919922 4.349563598632812 34.19346618652344 C 6.928634643554688 36.78549194335938 10.898193359375 39.23751068115234 16.14805603027344 41.48139953613281 C 21.38481140136719 43.71969604492188 27.75608825683594 45.69007873535156 35.08493041992188 47.33782958984375 C 42.50883483886719 49.00694274902344 50.73844909667969 50.30439758300781 59.54519653320312 51.19412612915039 C 68.64976501464844 52.11396789550781 78.21147155761719 52.58035278320312 87.9647216796875 52.58035278320312 C 88.560791015625 52.58035278320312 89.16424560546875 52.57858276367188 89.75835418701172 52.57510375976562 C 101.8556060791016 52.5042610168457 113.592903137207 51.72914886474609 124.6441955566406 50.271240234375 C 135.3043975830078 48.86492156982422 144.8765563964844 46.88653564453125 153.0947570800781 44.39103698730469 C 161.2620544433594 41.9110107421875 167.6631317138672 39.05237579345703 172.1201782226562 35.89455795288086 C 174.3273620605469 34.33078765869141 176.0160217285156 32.71051025390625 177.1392211914062 31.07876205444336 C 178.2443084716797 29.47328567504883 178.8087615966797 27.84033012390137 178.8168792724609 26.22519493103027 C 178.8285217285156 23.90160369873047 177.6950225830078 21.57830810546875 175.4478302001953 19.31983184814453 C 172.8687591552734 16.72780990600586 168.8992004394531 14.27578353881836 163.6493377685547 12.03189849853516 C 158.4125823974609 9.793601989746094 152.0413055419922 7.823215484619141 144.7124633789062 6.175468444824219 C 137.28857421875 4.506355285644531 129.0589447021484 3.208900451660156 120.252197265625 2.319171905517578 C 111.1476287841797 1.399330139160156 101.5859222412109 0.9329452514648438 91.83269500732422 0.9329452514648438 M 91.83270263671875 -0.06705474853515625 C 140.6625671386719 -0.06705474853515625 179.8902282714844 11.59780502319336 179.8168487548828 26.23021697998047 C 179.7425537109375 41.0416259765625 139.4246215820312 53.28433227539062 89.76422119140625 53.57508087158203 C 89.16407775878906 53.57859420776367 88.56204223632812 53.58035278320312 87.96471405029297 53.58035278320312 C 39.13482666015625 53.58035278320312 -0.09283447265625 41.91549682617188 -0.0194549560546875 27.2830810546875 C 0.054840087890625 12.47167205810547 40.37277221679688 0.2289657592773438 90.03319549560547 -0.0617828369140625 C 90.63333892822266 -0.06529617309570312 91.23537445068359 -0.06705474853515625 91.83270263671875 -0.06705474853515625 Z" stroke="none" fill="#51fec0"></path> </g> </svg> 