<?xml version="1.0" encoding="UTF-8"?> <svg xmlns="http://www.w3.org/2000/svg" width="180.688" height="56.737" viewBox="0 0 180.688 56.737"> <g id="Контур_13422" data-name="Контур 13422" transform="translate(0.01 3.17) rotate(-1)" fill="none"> <path d="M89.947-.031c49.645-.145,89.86,11.738,89.823,26.54s-40.312,26.92-89.957,27.065S-.046,41.836-.009,27.034,40.3.114,89.947-.031Z" stroke="none"></path> <path d="M 90.84524536132812 0.9676971435546875 C 90.5499267578125 0.9676971435546875 90.24619293212891 0.9681510925292969 89.9501953125 0.9690170288085938 C 77.85683441162109 1.004310607910156 66.12506103515625 1.744537353515625 55.08083343505859 3.169151306152344 C 44.42753601074219 4.543357849121094 34.86341857910156 6.492446899414062 26.65414428710938 8.962310791015625 C 18.49620056152344 11.41674423217773 12.1048583984375 14.25458526611328 7.657745361328125 17.39703750610352 C 5.455963134765625 18.95285797119141 3.772598266601562 20.5665168762207 2.654403686523438 22.19317436218262 C 1.554397583007812 23.79337882995605 0.994598388671875 25.42278861999512 0.9905853271484375 27.03612899780273 C 0.984771728515625 29.36531066894531 2.130172729492188 31.69756126403809 4.39501953125 33.96806335449219 C 7.005172729492188 36.58476638793945 11.02304077148438 39.06242370605469 16.33699035644531 41.33224487304688 C 21.63755798339844 43.59633255004883 28.0830078125 45.59058380126953 35.49433898925781 47.25958251953125 C 43.00479125976562 48.95092391967773 51.32344055175781 50.2659912109375 60.21923828125 51.16828918457031 C 69.42176818847656 52.1016960144043 79.0765380859375 52.57497024536133 88.91532897949219 52.57497024536133 C 89.21064758300781 52.57497024536133 89.51438140869141 52.57451629638672 89.81037902832031 52.57365036010742 C 101.9037628173828 52.53835678100586 113.6355133056641 51.79813003540039 124.6797409057617 50.37351608276367 C 135.3330688476562 48.99930953979492 144.8971710205078 47.05022048950195 153.1064300537109 44.58035659790039 C 161.264404296875 42.12592315673828 167.6557006835938 39.2880859375 172.1028289794922 36.1456298828125 C 174.3046112060547 34.58981323242188 175.9879760742188 32.97615051269531 177.1061553955078 31.3494930267334 C 178.2061462402344 29.74928855895996 178.7659454345703 28.1198787689209 178.7699737548828 26.50653839111328 C 178.7757873535156 24.1773567199707 177.63037109375 21.84510612487793 175.3655395507812 19.57460784912109 C 172.7554016113281 16.95790100097656 168.7375335693359 14.48024368286133 163.423583984375 12.21042633056641 C 158.1230163574219 9.946334838867188 151.6775665283203 7.952083587646484 144.2662658691406 6.283084869384766 C 136.7558135986328 4.591743469238281 128.4371337890625 3.276676177978516 119.5413360595703 2.374378204345703 C 110.3388061523438 1.440971374511719 100.6840362548828 0.9676971435546875 90.84524536132812 0.9676971435546875 M 90.84523010253906 -0.03229522705078125 C 140.0797882080078 -0.03229522705078125 179.8067626953125 11.79507827758789 179.7699737548828 26.5090389251709 C 179.7329711914062 41.31153869628906 139.4580078125 53.42878723144531 89.81328582763672 53.57365036010742 C 89.51634216308594 53.57452011108398 89.21160888671875 53.5749626159668 88.91534423828125 53.5749626159668 C 39.6807861328125 53.5749626159668 -0.04620361328125 41.74758911132812 -0.0094146728515625 27.03362846374512 C 0.0276031494140625 12.23112869262695 40.30258178710938 0.1138801574707031 89.94728851318359 -0.03098297119140625 C 90.24423217773438 -0.03185272216796875 90.54896545410156 -0.03229522705078125 90.84523010253906 -0.03229522705078125 Z" stroke="none" fill="#51fec0"></path> </g> </svg> 