<?xml version="1.0" encoding="UTF-8"?> <svg xmlns="http://www.w3.org/2000/svg" id="Group_132" data-name="Group 132" width="63.012" height="63.278" viewBox="0 0 63.012 63.278"> <path id="Path_172" data-name="Path 172" d="M58.52,60.645-.709,1.141,1.147-.705,60.375,58.8Z" transform="translate(1.673 1.669)"></path> <path id="Path_172_-_Outline" data-name="Path 172 - Outline" d="M58.775,61.866-1.416,1.4,1.406-1.413,61.6,59.057ZM.512,1.4,58.779,59.937l.889-.885L1.4.515Z" transform="translate(1.416 1.413)"></path> <path id="Path_171" data-name="Path 171" d="M1.135,59.452-.7,57.586,58.527-.713l1.836,1.866L38.046,23.12Z" transform="translate(1.675 1.968)"></path> <path id="Path_171_-_Outline" data-name="Path 171 - Outline" d="M1.384,60.673l-2.793-2.837L58.792-1.42l2.793,2.837ZM.519,57.851l.88.894L59.657,1.4l-.88-.894Z" transform="translate(1.418 1.711)"></path> </svg> 