<?xml version="1.0" encoding="UTF-8"?> <svg xmlns="http://www.w3.org/2000/svg" id="Слой_1" data-name="Слой 1" viewBox="0 0 398 2267"> <defs> <style>.cls-1{isolation:isolate;}.cls-2{fill:#00fed6;}.cls-3{fill:none;stroke:#00fdda;stroke-width:0.5px;}</style> </defs> <g id="sOcial" class="cls-1"> <g class="cls-1"> <path class="cls-2" d="M255.53,2190.8V1941l-1.25-.42a18.92,18.92,0,0,0-5.84-4.17,56.78,56.78,0,0,0-7.5-2.5l-2.92-.84V2202.9l-2.92,2.91v1.67q-5.83,7.09-11.26,9.39a28.77,28.77,0,0,1-11.26,2.29,36.74,36.74,0,0,1-7.09-.42,1.79,1.79,0,0,1-.83-.21,1.85,1.85,0,0,0-.84-.2l-81.31-21.69a46.15,46.15,0,0,1-14.39-6.88,82.24,82.24,0,0,1-14-11.88,78.07,78.07,0,0,1-10.43-13.77q-4.17-7.08-4.17-13.34V1779.22l2.09,2.08L85,1778l66.72,62.14v242.28q0,4.59,4.79,8.13a40.69,40.69,0,0,0,10.64,5.63V1805.49l2.5.83,2.92-3.33,107.59,28.77a61.42,61.42,0,0,1,15.63,7.09,86.85,86.85,0,0,1,15,11.68A63.92,63.92,0,0,1,322,1864.91a30.67,30.67,0,0,1,4.38,15.22v367.39l-2.92,2.92v4.17Zm5-247.28v245.2l58,54.21V1884.3a27.12,27.12,0,0,0-4.17-13.76,66.26,66.26,0,0,0-10.43-13.34,70.85,70.85,0,0,0-14-10.85,65.41,65.41,0,0,0-14.8-6.67l-103-27.52V2099.9a20.72,20.72,0,0,1-.63,3.54c-.41,1.81-1.18,2.71-2.29,2.71l-4.59-1.25a38.08,38.08,0,0,1-14.38-7.3q-6.47-5.2-6.47-11V1845.94l-59.21-55v359.88c0,3.61,1.25,7.58,3.75,11.88A60.41,60.41,0,0,0,97.9,2175a83.7,83.7,0,0,0,12.72,10.42,44.82,44.82,0,0,0,13.14,6.26l81.31,21.68c1.39.28,2.64.49,3.76.63a30.19,30.19,0,0,0,3.75.21,21.13,21.13,0,0,0,8.76-1.88,28.12,28.12,0,0,0,8.75-6.88V1928.09a4,4,0,0,1,2.92-1.25c2.23,0,3.48.14,3.76.41l5.42,1.67a59,59,0,0,1,7.92,2.71,24.22,24.22,0,0,1,7.09,5.22,13.83,13.83,0,0,1,2.5,4C260.54,1942.61,260.81,1943.52,260.54,1943.52Zm-26.69,263.55-.84.83A.74.74,0,0,0,233.85,2207.07Z"></path> <path class="cls-2" d="M326,1770.05a47.4,47.4,0,0,1-5.84,11.26,33,33,0,0,1-12.51,12.93,32.05,32.05,0,0,1-16.27,4.59h-5l-.42-.42a12.56,12.56,0,0,1-3.75-.42l-162.63-43.78a40.77,40.77,0,0,1-14.81-6.88,61.46,61.46,0,0,1-12.92-12.51,66.69,66.69,0,0,1-9-15.43,43.13,43.13,0,0,1-3.34-16.47V1387.66a33.81,33.81,0,0,1,5.63-19,38.44,38.44,0,0,1,14.39-13.13,33.65,33.65,0,0,1,21.27-7.51h1.67l164.71,44.21a40.7,40.7,0,0,1,12.31,5.63,74.75,74.75,0,0,1,12.72,10.21,70.49,70.49,0,0,1,10,12.51q4.17,6.68,4.17,12.93V1768.8ZM318.5,1773V1437.7q0-5.43-3.75-11.47a59.52,59.52,0,0,0-9.39-11.47,74.94,74.94,0,0,0-11.88-9.38,39.56,39.56,0,0,0-11.26-5.21L117.5,1356h-.83a31.13,31.13,0,0,0-22.52,9.38,30.15,30.15,0,0,0-9.59,22.31v315.26a38.71,38.71,0,0,0,3.13,15,56.78,56.78,0,0,0,8.13,13.76,58.94,58.94,0,0,0,11.67,11,39.24,39.24,0,0,0,13.35,6.46L284.31,1793a25.59,25.59,0,0,1,3.75.83h3.33a26.57,26.57,0,0,0,15.85-5.42Q314.76,1783,318.5,1773Zm-72.14-89.24-85.07-22.93a26.21,26.21,0,0,1-12.51-8.34,21,21,0,0,1-5.42-14.18V1479.82a13,13,0,0,1,4.17-9.8,15.73,15.73,0,0,1,10-4.38h4.17l78.39,21.27a41.57,41.57,0,0,1,12.72,6.67q6.89,5,6.88,11.67v170.56c0,3.06-1.67,5.14-5,6.26A27.5,27.5,0,0,1,246.36,1683.73Zm5-7.92a8.65,8.65,0,0,0,3.34-.42V1505.25q0-4.57-5.63-8.34a36,36,0,0,0-10.22-5L160,1470.64h-2.5a18.64,18.64,0,0,0-5.84,2.5,5.83,5.83,0,0,0-.42,2.51v158.46a16.74,16.74,0,0,0,4.59,11.68,25.51,25.51,0,0,0,10.84,7.09Z"></path> <path class="cls-2" d="M326.42,1328a18,18,0,0,1-1.46,7.71,25.56,25.56,0,0,1-3.54,5.63q-3.75,8.34-13.14,11.89a51.24,51.24,0,0,1-18.14,3.54q-7.5,0-11.26-1.25l-150.95-40.87a70.36,70.36,0,0,1-17.52-6.88,65.44,65.44,0,0,1-15.63-11.88,61.9,61.9,0,0,1-11.26-16.06,44.48,44.48,0,0,1-4.38-19.8V943.56a48.47,48.47,0,0,1,.62-6.68,33.35,33.35,0,0,1,2.71-8.75,38.08,38.08,0,0,1,5.84-9,25.76,25.76,0,0,1,9.59-6.88,39.16,39.16,0,0,1,8.34-4.17,33.21,33.21,0,0,1,11.26-1.67,67.51,67.51,0,0,1,7.51.42,54.81,54.81,0,0,1,8.34,1.67L190.48,924v106.75l-2.92,2.92v2.92l-24.19-6.67h-.83a.86.86,0,0,1-.63-.21.83.83,0,0,0-.62-.21h-3.75a21,21,0,0,0-4.17.42V1200q0,10.43,12.51,13.34l79.64,21.27,1.25.83V1235h5.43a10.14,10.14,0,0,0,3.75-.83V956.48l2.08,2.09,3.34-3.34,65.05,60.47Zm-85.9-85.49-79.65-21.27q-15.44-4.17-15.43-17.09V1031.55q0-4.17,5.63-5.63a40.73,40.73,0,0,1,10.22-1.46,8.66,8.66,0,0,1,2.08.21,7.4,7.4,0,0,0,1.67.2l17.52,5V931.05l-54.22-14.6a56.92,56.92,0,0,0-8.13-1.67,60.52,60.52,0,0,0-6.88-.41q-9.17,0-15,3.54a27.45,27.45,0,0,0-9,8.34,28.77,28.77,0,0,0-4.17,9.8,41,41,0,0,0-1,7.51v316.51a39.93,39.93,0,0,0,4,17.72,56.15,56.15,0,0,0,10.22,14.59,58.48,58.48,0,0,0,14.39,10.85,71,71,0,0,0,16.47,6.46L281,1350.56a29.36,29.36,0,0,0,9.17,1.25,47.31,47.31,0,0,0,9.59-1,32.92,32.92,0,0,0,9.18-3.34,20.69,20.69,0,0,0,6.88-6,15.22,15.22,0,0,0,2.71-9.17V1021.54L261,968.16V1233q0,4.59-5.83,7.3a26.69,26.69,0,0,1-11.26,2.71C241.91,1243,240.8,1242.83,240.52,1242.55Z"></path> <path class="cls-2" d="M79.55,859.33V750.5l2.51.83L85,748l241.44,64.64V919l-2.92,2.91v2.92Zm5-102.16v98.41L318.5,918.13V819.72Z"></path> <path class="cls-2" d="M326.42,733.82q0,6.25-5.42,12.93-4.17,7.92-13.76,13.76a37.29,37.29,0,0,1-19.6,5.84h-2.5a9.18,9.18,0,0,1-2.92-.42,3.35,3.35,0,0,1-1-.21,3.46,3.46,0,0,0-1-.21l-158-42.11a51.3,51.3,0,0,1-14.39-6.47,77.43,77.43,0,0,1-14-11,64,64,0,0,1-10.42-13.55,29.55,29.55,0,0,1-4.17-14.8V309.73l2.5.83,2.92-3.34,241.86,65.06V477.36l-2.92,2.92v2.92L150.86,437.33V607.89q0,4.17,5,8.75t9.17,5.42L250.11,645a20,20,0,0,0,5.42,1.25V489.87l2.09,2.09,3.33-3.34,65.47,61.3ZM318.5,738V555.76l-58-54.21v144.7a12,12,0,0,1-1.25,5.42c-.84,1.67-2.92,2.5-6.26,2.5a34.31,34.31,0,0,1-7.92-1.25L160,630q-5-1.26-11-7.09t-6.05-10.84v-181l2.09-.83L318.5,476.53V379.37l-234.36-63V677.53a25.91,25.91,0,0,0,3.75,13.13,55.54,55.54,0,0,0,9.6,12.09,71.64,71.64,0,0,0,12.72,9.8,50.74,50.74,0,0,0,13.13,5.84l158,42.12q2.08.42,3.75.63a21.32,21.32,0,0,0,2.5.2,31.09,31.09,0,0,0,11.26-2.08,36.16,36.16,0,0,0,9.8-5.63,33.38,33.38,0,0,0,7.09-7.71A14.68,14.68,0,0,0,318.5,738Z"></path> <path class="cls-2" d="M260.12,2.4l66.3,17.93V298.06a17.11,17.11,0,0,1-1.25,6.46,15.16,15.16,0,0,1-3.33,5.21q-3.76,8.34-13.35,12.51a47.76,47.76,0,0,1-19.18,4.17,37.72,37.72,0,0,1-6.67-.41,1.86,1.86,0,0,1-.84-.21,1.79,1.79,0,0,0-.83-.21L79.55,271.37V163l2.51.83L85,160.45l160.13,43h.83a23.17,23.17,0,0,0,5,.83,8.74,8.74,0,0,1,2.09.21,2.34,2.34,0,0,0,1.67-.21V4.9l2.5.84Zm-.42,201a7,7,0,0,1-4,6.67,19,19,0,0,1-9,2.08,27.12,27.12,0,0,1-3.54-.2,31,31,0,0,1-3.13-.63L84.56,169.62v98l197.66,53c1.39.27,2.64.48,3.75.62a26.74,26.74,0,0,0,3.34.21,41.34,41.34,0,0,0,10-1.25,37,37,0,0,0,9.38-3.75,23.46,23.46,0,0,0,7.09-6.05,13,13,0,0,0,2.71-8.13V27.42L259.7,11.57Z"></path> </g> <g class="cls-1"> <path class="cls-3" d="M255.53,2190.8V1941l-1.25-.42a18.92,18.92,0,0,0-5.84-4.17,56.78,56.78,0,0,0-7.5-2.5l-2.92-.84V2202.9l-2.92,2.91v1.67q-5.83,7.09-11.26,9.39a28.77,28.77,0,0,1-11.26,2.29,36.74,36.74,0,0,1-7.09-.42,1.79,1.79,0,0,1-.83-.21,1.85,1.85,0,0,0-.84-.2l-81.31-21.69a46.15,46.15,0,0,1-14.39-6.88,82.24,82.24,0,0,1-14-11.88,78.07,78.07,0,0,1-10.43-13.77q-4.17-7.08-4.17-13.34V1779.22l2.09,2.08L85,1778l66.72,62.14v242.28q0,4.59,4.79,8.13a40.69,40.69,0,0,0,10.64,5.63V1805.49l2.5.83,2.92-3.33,107.59,28.77a61.42,61.42,0,0,1,15.63,7.09,86.85,86.85,0,0,1,15,11.68A63.92,63.92,0,0,1,322,1864.91a30.67,30.67,0,0,1,4.38,15.22v367.39l-2.92,2.92v4.17Zm5-247.28v245.2l58,54.21V1884.3a27.12,27.12,0,0,0-4.17-13.76,66.26,66.26,0,0,0-10.43-13.34,70.85,70.85,0,0,0-14-10.85,65.41,65.41,0,0,0-14.8-6.67l-103-27.52V2099.9a20.72,20.72,0,0,1-.63,3.54c-.41,1.81-1.18,2.71-2.29,2.71l-4.59-1.25a38.08,38.08,0,0,1-14.38-7.3q-6.47-5.2-6.47-11V1845.94l-59.21-55v359.88c0,3.61,1.25,7.58,3.75,11.88A60.41,60.41,0,0,0,97.9,2175a83.7,83.7,0,0,0,12.72,10.42,44.82,44.82,0,0,0,13.14,6.26l81.31,21.68c1.39.28,2.64.49,3.76.63a30.19,30.19,0,0,0,3.75.21,21.13,21.13,0,0,0,8.76-1.88,28.12,28.12,0,0,0,8.75-6.88V1928.09a4,4,0,0,1,2.92-1.25c2.23,0,3.48.14,3.76.41l5.42,1.67a59,59,0,0,1,7.92,2.71,24.22,24.22,0,0,1,7.09,5.22,13.83,13.83,0,0,1,2.5,4C260.54,1942.61,260.81,1943.52,260.54,1943.52Zm-26.69,263.55-.84.83A.74.74,0,0,0,233.85,2207.07Z"></path> <path class="cls-3" d="M326,1770.05a47.4,47.4,0,0,1-5.84,11.26,33,33,0,0,1-12.51,12.93,32.05,32.05,0,0,1-16.27,4.59h-5l-.42-.42a12.56,12.56,0,0,1-3.75-.42l-162.63-43.78a40.77,40.77,0,0,1-14.81-6.88,61.46,61.46,0,0,1-12.92-12.51,66.69,66.69,0,0,1-9-15.43,43.13,43.13,0,0,1-3.34-16.47V1387.66a33.81,33.81,0,0,1,5.63-19,38.44,38.44,0,0,1,14.39-13.13,33.65,33.65,0,0,1,21.27-7.51h1.67l164.71,44.21a40.7,40.7,0,0,1,12.31,5.63,74.75,74.75,0,0,1,12.72,10.21,70.49,70.49,0,0,1,10,12.51q4.17,6.68,4.17,12.93V1768.8ZM318.5,1773V1437.7q0-5.43-3.75-11.47a59.52,59.52,0,0,0-9.39-11.47,74.94,74.94,0,0,0-11.88-9.38,39.56,39.56,0,0,0-11.26-5.21L117.5,1356h-.83a31.13,31.13,0,0,0-22.52,9.38,30.15,30.15,0,0,0-9.59,22.31v315.26a38.71,38.71,0,0,0,3.13,15,56.78,56.78,0,0,0,8.13,13.76,58.94,58.94,0,0,0,11.67,11,39.24,39.24,0,0,0,13.35,6.46L284.31,1793a25.59,25.59,0,0,1,3.75.83h3.33a26.57,26.57,0,0,0,15.85-5.42Q314.76,1783,318.5,1773Zm-72.14-89.24-85.07-22.93a26.21,26.21,0,0,1-12.51-8.34,21,21,0,0,1-5.42-14.18V1479.82a13,13,0,0,1,4.17-9.8,15.73,15.73,0,0,1,10-4.38h4.17l78.39,21.27a41.57,41.57,0,0,1,12.72,6.67q6.89,5,6.88,11.67v170.56c0,3.06-1.67,5.14-5,6.26A27.5,27.5,0,0,1,246.36,1683.73Zm5-7.92a8.65,8.65,0,0,0,3.34-.42V1505.25q0-4.57-5.63-8.34a36,36,0,0,0-10.22-5L160,1470.64h-2.5a18.64,18.64,0,0,0-5.84,2.5,5.83,5.83,0,0,0-.42,2.51v158.46a16.74,16.74,0,0,0,4.59,11.68,25.51,25.51,0,0,0,10.84,7.09Z"></path> <path class="cls-3" d="M326.42,1328a18,18,0,0,1-1.46,7.71,25.56,25.56,0,0,1-3.54,5.63q-3.75,8.34-13.14,11.89a51.24,51.24,0,0,1-18.14,3.54q-7.5,0-11.26-1.25l-150.95-40.87a70.36,70.36,0,0,1-17.52-6.88,65.44,65.44,0,0,1-15.63-11.88,61.9,61.9,0,0,1-11.26-16.06,44.48,44.48,0,0,1-4.38-19.8V943.56a48.47,48.47,0,0,1,.62-6.68,33.35,33.35,0,0,1,2.71-8.75,38.08,38.08,0,0,1,5.84-9,25.76,25.76,0,0,1,9.59-6.88,39.16,39.16,0,0,1,8.34-4.17,33.21,33.21,0,0,1,11.26-1.67,67.51,67.51,0,0,1,7.51.42,54.81,54.81,0,0,1,8.34,1.67L190.48,924v106.75l-2.92,2.92v2.92l-24.19-6.67h-.83a.86.86,0,0,1-.63-.21.83.83,0,0,0-.62-.21h-3.75a21,21,0,0,0-4.17.42V1200q0,10.43,12.51,13.34l79.64,21.27,1.25.83V1235h5.43a10.14,10.14,0,0,0,3.75-.83V956.48l2.08,2.09,3.34-3.34,65.05,60.47Zm-85.9-85.49-79.65-21.27q-15.44-4.17-15.43-17.09V1031.55q0-4.17,5.63-5.63a40.73,40.73,0,0,1,10.22-1.46,8.66,8.66,0,0,1,2.08.21,7.4,7.4,0,0,0,1.67.2l17.52,5V931.05l-54.22-14.6a56.92,56.92,0,0,0-8.13-1.67,60.52,60.52,0,0,0-6.88-.41q-9.17,0-15,3.54a27.45,27.45,0,0,0-9,8.34,28.77,28.77,0,0,0-4.17,9.8,41,41,0,0,0-1,7.51v316.51a39.93,39.93,0,0,0,4,17.72,56.15,56.15,0,0,0,10.22,14.59,58.48,58.48,0,0,0,14.39,10.85,71,71,0,0,0,16.47,6.46L281,1350.56a29.36,29.36,0,0,0,9.17,1.25,47.31,47.31,0,0,0,9.59-1,32.92,32.92,0,0,0,9.18-3.34,20.69,20.69,0,0,0,6.88-6,15.22,15.22,0,0,0,2.71-9.17V1021.54L261,968.16V1233q0,4.59-5.83,7.3a26.69,26.69,0,0,1-11.26,2.71C241.91,1243,240.8,1242.83,240.52,1242.55Z"></path> <path class="cls-3" d="M79.55,859.33V750.5l2.51.83L85,748l241.44,64.64V919l-2.92,2.91v2.92Zm5-102.16v98.41L318.5,918.13V819.72Z"></path> <path class="cls-3" d="M326.42,733.82q0,6.25-5.42,12.93-4.17,7.92-13.76,13.76a37.29,37.29,0,0,1-19.6,5.84h-2.5a9.18,9.18,0,0,1-2.92-.42,3.35,3.35,0,0,1-1-.21,3.46,3.46,0,0,0-1-.21l-158-42.11a51.3,51.3,0,0,1-14.39-6.47,77.43,77.43,0,0,1-14-11,64,64,0,0,1-10.42-13.55,29.55,29.55,0,0,1-4.17-14.8V309.73l2.5.83,2.92-3.34,241.86,65.06V477.36l-2.92,2.92v2.92L150.86,437.33V607.89q0,4.17,5,8.75t9.17,5.42L250.11,645a20,20,0,0,0,5.42,1.25V489.87l2.09,2.09,3.33-3.34,65.47,61.3ZM318.5,738V555.76l-58-54.21v144.7a12,12,0,0,1-1.25,5.42c-.84,1.67-2.92,2.5-6.26,2.5a34.31,34.31,0,0,1-7.92-1.25L160,630q-5-1.26-11-7.09t-6.05-10.84v-181l2.09-.83L318.5,476.53V379.37l-234.36-63V677.53a25.91,25.91,0,0,0,3.75,13.13,55.54,55.54,0,0,0,9.6,12.09,71.64,71.64,0,0,0,12.72,9.8,50.74,50.74,0,0,0,13.13,5.84l158,42.12q2.08.42,3.75.63a21.32,21.32,0,0,0,2.5.2,31.09,31.09,0,0,0,11.26-2.08,36.16,36.16,0,0,0,9.8-5.63,33.38,33.38,0,0,0,7.09-7.71A14.68,14.68,0,0,0,318.5,738Z"></path> <path class="cls-3" d="M260.12,2.4l66.3,17.93V298.06a17.11,17.11,0,0,1-1.25,6.46,15.16,15.16,0,0,1-3.33,5.21q-3.76,8.34-13.35,12.51a47.76,47.76,0,0,1-19.18,4.17,37.72,37.72,0,0,1-6.67-.41,1.86,1.86,0,0,1-.84-.21,1.79,1.79,0,0,0-.83-.21L79.55,271.37V163l2.51.83L85,160.45l160.13,43h.83a23.17,23.17,0,0,0,5,.83,8.74,8.74,0,0,1,2.09.21,2.34,2.34,0,0,0,1.67-.21V4.9l2.5.84Zm-.42,201a7,7,0,0,1-4,6.67,19,19,0,0,1-9,2.08,27.12,27.12,0,0,1-3.54-.2,31,31,0,0,1-3.13-.63L84.56,169.62v98l197.66,53c1.39.27,2.64.48,3.75.62a26.74,26.74,0,0,0,3.34.21,41.34,41.34,0,0,0,10-1.25,37,37,0,0,0,9.38-3.75,23.46,23.46,0,0,0,7.09-6.05,13,13,0,0,0,2.71-8.13V27.42L259.7,11.57Z"></path> </g> </g> </svg> 