<?xml version="1.0" encoding="UTF-8"?> <svg xmlns="http://www.w3.org/2000/svg" width="150.934" height="54.444" viewBox="0 0 150.934 54.444"> <g id="Контур_13427" data-name="Контур 13427" transform="matrix(0.998, 0.07, -0.07, 0.998, 3.084, 0)" fill="none"> <path d="M74.217,0c40.927-.24,74.056,9.462,73.995,21.668s-33.289,22.3-74.216,22.536S-.061,34.747,0,22.54,33.289.244,74.217,0Z" stroke="none"></path> <path d="M 75.6995849609375 0.9999771118164062 C 75.20860290527344 0.9999771118164062 74.71160125732422 1.001438140869141 74.22238159179688 1.004299163818359 C 64.25981903076172 1.062637329101562 54.59397888183594 1.700958251953125 45.49336242675781 2.901515960693359 C 36.71728515625 4.059276580810547 28.83788299560547 5.687717437744141 22.07404327392578 7.7415771484375 C 8.70806884765625 11.80021667480469 1.026901245117188 17.19601821899414 1.00006103515625 22.54545783996582 C 0.9907073974609375 24.41191864013672 1.907669067382812 26.28461837768555 3.725448608398438 28.11155700683594 C 5.8349609375 30.2316780090332 9.087783813476562 32.23981857299805 13.39356994628906 34.08017730712891 C 17.69956970214844 35.92065811157227 22.94013977050781 37.54119873046875 28.96974182128906 38.8968391418457 C 35.08124542236328 40.27089691162109 41.85660552978516 41.33903884887695 49.10764312744141 42.07159805297852 C 56.60528564453125 42.82905960083008 64.47956085205078 43.21313858032227 72.51177978515625 43.21313858032227 C 73.00276184082031 43.21313858032227 73.49976348876953 43.21167755126953 73.98898315429688 43.20881652832031 C 83.95154571533203 43.15047836303711 93.61738586425781 42.51217651367188 102.7180023193359 41.31159973144531 C 111.4940795898438 40.15383911132812 119.3734588623047 38.52541732788086 126.1372985839844 36.47153854370117 C 139.5032806396484 32.41289901733398 147.1844635009766 27.01709747314453 147.2113037109375 21.66765785217285 C 147.2206573486328 19.80119705200195 146.3036956787109 17.92849731445312 144.4859161376953 16.10155868530273 C 142.3764038085938 13.98143768310547 139.1235809326172 11.97329711914062 134.8178100585938 10.13293838500977 C 130.5118103027344 8.292457580566406 125.2712249755859 6.671916961669922 119.2416229248047 5.316276550292969 C 113.130126953125 3.942218780517578 106.3547668457031 2.874076843261719 99.10372161865234 2.141517639160156 C 91.6060791015625 1.384056091308594 83.73180389404297 0.9999771118164062 75.6995849609375 0.9999771118164062 M 75.6995849609375 -2.6702880859375e-05 C 115.9424896240234 -2.6702880859375e-05 148.2717590332031 9.613456726074219 148.2112884521484 21.67267799377441 C 148.1500396728516 33.87939834594727 114.9222259521484 43.96917724609375 73.99484252929688 44.20879745483398 C 73.50023651123047 44.21169281005859 73.00406646728516 44.21314239501953 72.51177978515625 44.21314239501953 C 32.26886749267578 44.21314239501953 -0.060394287109375 34.59965896606445 7.62939453125e-05 22.54043769836426 C 0.061309814453125 10.33371734619141 33.28913879394531 0.24395751953125 74.21652221679688 0.0043182373046875 C 74.71112823486328 0.001422882080078125 75.20729827880859 -2.6702880859375e-05 75.6995849609375 -2.6702880859375e-05 Z" stroke="none" fill="#51fec0"></path> </g> </svg> 