<?xml version="1.0" encoding="UTF-8"?> <svg xmlns="http://www.w3.org/2000/svg" width="151.451" height="56.925" viewBox="0 0 151.451 56.925"> <g id="Контур_13425" data-name="Контур 13425" transform="translate(3.851) rotate(5)" fill="none"> <path d="M74.137,0c40.914-.119,74.057,9.673,74.027,21.873S114.941,44.06,74.027,44.179-.03,34.506,0,22.306,33.223.12,74.137,0Z" stroke="none"></path> <path d="M 74.87749481201172 0.9999656677246094 C 74.63431549072266 0.9999656677246094 74.38407135009766 1.000324249267578 74.14031219482422 1.001045227050781 C 64.18093109130859 1.030105590820312 54.5196533203125 1.639686584472656 45.42487335205078 2.812847137451172 C 36.65451049804688 3.944145202636719 28.78177642822266 5.548465728759766 22.02532958984375 7.581226348876953 C 8.67681884765625 11.59730529785156 1.01336669921875 16.96526527404785 1.000015258789062 22.30870628356934 C 0.995330810546875 24.17986679077148 1.922027587890625 26.06004524230957 3.754379272460938 27.89698600769043 C 5.8895263671875 30.0374870300293 9.18218994140625 32.06680679321289 13.54084777832031 33.92858505249023 C 17.89947509765625 35.79032516479492 23.20121002197266 37.43056488037109 29.29878997802734 38.80370712280273 C 35.48163604736328 40.19606781005859 42.33039093017578 41.27872467041016 49.65483093261719 42.02164459228516 C 57.23316955566406 42.79030609130859 65.18413543701172 43.18004608154297 73.28683471679688 43.18004608154297 C 73.53001403808594 43.18004608154297 73.78025054931641 43.1796875 74.02400970458984 43.1789665222168 C 83.98339080810547 43.14990615844727 93.64466857910156 42.54032516479492 102.7394561767578 41.36716461181641 C 111.5098114013672 40.23584747314453 119.3825531005859 38.63154602050781 126.1389770507812 36.59878540039062 C 139.4874877929688 32.58270645141602 147.1509399414062 27.21474647521973 147.1642761230469 21.87130546569824 C 147.1689605712891 20.00014495849609 146.2422485351562 18.11996650695801 144.409912109375 16.28302574157715 C 142.2747497558594 14.14252662658691 138.9821166992188 12.11320495605469 134.6234588623047 10.25142669677734 C 130.2648468017578 8.389686584472656 124.9631118774414 6.749446868896484 118.8655090332031 5.376304626464844 C 112.6826782226562 3.98394775390625 105.8339080810547 2.901287078857422 98.50947570800781 2.158367156982422 C 90.93115234375 1.389705657958984 82.98019409179688 0.9999656677246094 74.87749481201172 0.9999656677246094 M 74.87750244140625 -3.4332275390625e-05 C 115.4539031982422 -3.4332275390625e-05 148.1946258544922 9.747394561767578 148.1642761230469 21.87380599975586 C 148.1337890625 34.07320404052734 114.9413757324219 44.05954742431641 74.02693176269531 44.1789665222168 C 73.78220367431641 44.17967987060547 73.53099060058594 44.18004608154297 73.28682708740234 44.18004608154297 C 32.71041107177734 44.18004608154297 -0.0303192138671875 34.4326171875 1.52587890625e-05 22.30620574951172 C 0.030517578125 10.10680770874023 33.22295379638672 0.1204452514648438 74.13739013671875 0.00104522705078125 C 74.38211822509766 0.000331878662109375 74.63333892822266 -3.4332275390625e-05 74.87750244140625 -3.4332275390625e-05 Z" stroke="none" fill="#51fec0"></path> </g> </svg> 