<?xml version="1.0" encoding="UTF-8"?> <svg xmlns="http://www.w3.org/2000/svg" width="149.411" height="46.931" viewBox="0 0 149.411 46.931"> <g id="Контур_13426" data-name="Контур 13426" transform="translate(0 2.594) rotate(-1)" fill="none"> <path d="M74.72.054c41.051-.843,74.154,8.376,73.939,20.591S114.99,43.446,73.94,44.29-.214,35.914,0,23.7,33.669.9,74.72.054Z" stroke="none"></path> <path d="M 79.913330078125 0.9999771118164062 C 78.2034912109375 0.9999771118164062 76.46302795410156 1.017917633056641 74.74028778076172 1.053295135498047 C 64.74735260009766 1.258575439453125 55.04460906982422 2.039875030517578 45.90158843994141 3.375495910644531 C 37.08405303955078 4.663578033447266 29.1597900390625 6.409515380859375 22.34893035888672 8.564838409423828 C 8.876571655273438 12.82819747924805 1.095504760742188 18.35063743591309 1.000885009765625 23.71613693237305 C 0.96856689453125 25.54893684387207 1.83306884765625 27.37483596801758 3.570404052734375 29.14305686950684 C 5.551651000976562 31.1595573425293 8.60894775390625 33.06105804443359 12.65740966796875 34.79475784301758 C 16.70793151855469 36.52935791015625 21.65237426757812 38.05237579345703 27.3533935546875 39.32153701782227 C 39.1717529296875 41.95253753662109 53.48506927490234 43.34321594238281 68.74599456787109 43.34321594238281 C 70.45583343505859 43.34321594238281 72.1962890625 43.32527542114258 73.91902923583984 43.28989791870117 C 83.9119873046875 43.08461761474609 93.61473083496094 42.30331802368164 102.7577362060547 40.96769714355469 C 111.5752716064453 39.67961502075195 119.4995269775391 37.93367767333984 126.3103942871094 35.77835845947266 C 139.7827301025391 31.51499557495117 147.5637969970703 25.99255561828613 147.6584320068359 20.62705612182617 C 147.6907501220703 18.79423713684082 146.8262329101562 16.96835708618164 145.0888977050781 15.20011711120605 C 143.1076507568359 13.18361663818359 140.0503540039062 11.2821159362793 136.0018920898438 9.548416137695312 C 131.9513854980469 7.813835144042969 127.0069274902344 6.290798187255859 121.305908203125 5.021636962890625 C 109.4875717163086 2.390655517578125 95.17425537109375 0.9999771118164062 79.913330078125 0.9999771118164062 M 79.91333770751953 -1.9073486328125e-05 C 118.5296936035156 -1.9073486328125e-05 148.8645324707031 8.948135375976562 148.6582641601562 20.64469718933105 C 148.4428253173828 32.86017608642578 114.9901504516602 43.44639587402344 73.93956756591797 44.28967666625977 C 72.19572448730469 44.32550048828125 70.45921325683594 44.34321212768555 68.74599456787109 44.34321212768555 C 30.12965393066406 44.34321212768555 -0.205230712890625 35.39503860473633 0.0010528564453125 23.69849586486816 C 0.2164764404296875 11.48301696777344 33.669189453125 0.8967971801757812 74.71974945068359 0.05351638793945312 C 76.46360015869141 0.01769256591796875 78.20011901855469 -1.9073486328125e-05 79.91333770751953 -1.9073486328125e-05 Z" stroke="none" fill="#51fec0"></path> </g> </svg> 