<?xml version="1.0" encoding="UTF-8"?> <svg xmlns="http://www.w3.org/2000/svg" id="Слой_1" data-name="Слой 1" viewBox="0 0 420 3787"> <defs> <style>.cls-1{isolation:isolate;}.cls-2{fill:#00fed6;}.cls-3{fill:none;stroke:#00fedb;stroke-width:0.5px;}</style> </defs> <g id="stRategy" class="cls-1"> <g class="cls-1"> <path class="cls-2" d="M269.91,3706.2V3442l-1.32-.44a20.09,20.09,0,0,0-6.18-4.41,63,63,0,0,0-7.94-2.65l-3.08-.88V3719l-3.09,3.08v1.77q-6.17,7.5-11.91,9.92a30.2,30.2,0,0,1-11.9,2.43,38.42,38.42,0,0,1-7.5-.45,1.91,1.91,0,0,1-.88-.22,2.08,2.08,0,0,0-.88-.22l-86-22.93A49,49,0,0,1,114,3705.1a87.08,87.08,0,0,1-14.77-12.57,82.28,82.28,0,0,1-11-14.56q-4.41-7.48-4.41-14.11V3270.94l2.21,2.2,3.52-3.53,70.56,65.71v256.22q0,4.85,5.07,8.6a43.2,43.2,0,0,0,11.25,6V3298.72l2.65.88,3.08-3.53,113.78,30.43a65.18,65.18,0,0,1,16.54,7.5,91.87,91.87,0,0,1,15.87,12.35,67.86,67.86,0,0,1,11.91,15.21,32.54,32.54,0,0,1,4.63,16.1v388.51l-3.09,3.09v4.41Zm5.29-261.51V3704l61.3,57.33V3382.07a28.69,28.69,0,0,0-4.41-14.56,70.76,70.76,0,0,0-11-14.11,74.86,74.86,0,0,0-14.78-11.46,68.89,68.89,0,0,0-15.65-7.06l-108.93-29.1v304.28a21.94,21.94,0,0,1-.66,3.75c-.44,1.91-1.25,2.87-2.43,2.87l-4.85-1.33a40.33,40.33,0,0,1-15.21-7.72q-6.84-5.51-6.84-11.68V3341.5L89.1,3283.28v380.58q0,5.73,4,12.57a64,64,0,0,0,10.14,13,87.77,87.77,0,0,0,13.45,11,47.54,47.54,0,0,0,13.9,6.62l86,22.93c1.47.29,2.79.52,4,.66a31.61,31.61,0,0,0,4,.22,22.37,22.37,0,0,0,9.26-2,29.67,29.67,0,0,0,9.26-7.28V3428.37a4.23,4.23,0,0,1,3.09-1.32c2.35,0,3.67.15,4,.44l5.73,1.76a61.06,61.06,0,0,1,8.38,2.87,25.6,25.6,0,0,1,7.49,5.51,14.51,14.51,0,0,1,2.65,4.19C275.2,3443.73,275.5,3444.69,275.2,3444.69ZM247,3723.4l-.88.88A.78.78,0,0,0,247,3723.4Z"></path> <path class="cls-2" d="M264.18,3161.13c2.64,0,4.41-.3,5.29-.88.59-.59.88-2.06.88-4.42V2985.61q0-8.37-8.6-12.79a108.88,108.88,0,0,0-17-7.05,2.08,2.08,0,0,1-.88-.22,1.91,1.91,0,0,0-.88-.22l-12.35-4.41V2846.7l2.65.88,3.08-3.53,60.86,16.32a71.61,71.61,0,0,1,15.22,6,81.44,81.44,0,0,1,15.43,10.37A60.11,60.11,0,0,1,340,2890.58a30.52,30.52,0,0,1,4.85,16.53v352.8a18.41,18.41,0,0,1-5.29,12.79q-4,7.93-13.67,12.79t-17.2,5.29a13.58,13.58,0,0,1-4,.44q-4.41,0-6.18-.88L58.67,3226V3111.29l2.65.89,3.09-3.53,40.57,11V2915.05l2.2,2.21,3.53-4,68.8,61.74v164.49l81.14,21.17a3.5,3.5,0,0,0,2.2.44Zm43.21,124.36a31.44,31.44,0,0,0,9-1.55,41.49,41.49,0,0,0,9.49-4.19,26.71,26.71,0,0,0,7.49-6.61,14,14,0,0,0,3.09-8.82v-352.8a26.82,26.82,0,0,0-4.63-15A57.32,57.32,0,0,0,320.62,2884a78.4,78.4,0,0,0-14.33-9.48,71.92,71.92,0,0,0-14.33-5.73l-56-15V2957l2.65.88q4.85,1.76,11,3.53a64.65,64.65,0,0,1,12.13,4.85,32.73,32.73,0,0,1,9.92,7.71,17.33,17.33,0,0,1,4,11.69v170.22q0,7.5-4.85,10.15a32.51,32.51,0,0,1-11,3.53h-1.33c-2.05,0-3.23-.15-3.52-.45l-83.79-22V2981.2l-60.86-54.68v204.62L64,3118.35V3222l235.49,63.07c.58.58,2.35.88,5.29.88C306.22,3285.93,307.1,3285.78,307.39,3285.49Z"></path> <path class="cls-2" d="M341.79,2528.29,221,2685.29l123.92,32.63v111.57l-3.09,3.09v3.09L84.25,2766.43V2381a27,27,0,0,1,4.19-14.33,32.1,32.1,0,0,1,12.13-11.25q8.37-7.49,21.61-7.49a36.75,36.75,0,0,1,12.34,1.76l99.23,26.46a78.69,78.69,0,0,1,16.76,7.06,84.59,84.59,0,0,1,16.31,11.68,63.66,63.66,0,0,1,12.35,15.22,35.49,35.49,0,0,1,4.85,18.08v37l57.77-73.2v2.2l3.09-3.08v132.29l-3.09,4ZM213,2686.17,336.5,2526.53V2407l-60.86,77.18v-51.6a31.59,31.59,0,0,0-4.63-16.54A65.26,65.26,0,0,0,259.55,2402a69.39,69.39,0,0,0-15.22-10.8,87.26,87.26,0,0,0-15.87-6.62l-99.23-26.46c-2.64-1.18-6.47-1.76-11.46-1.76q-13.23,0-20.73,7.93T89.54,2381v381.46l247,66.15V2725.42L152.16,2676V2482.87q0-5.73,5.52-7.27a35,35,0,0,1,9-1.55h3.08a37.8,37.8,0,0,1,6.4.66c2.5.44,5.36,1,8.6,1.55a57.41,57.41,0,0,1,13.67,5.95,27.36,27.36,0,0,1,9.7,9.92c.88,1.47,2,3.46,3.31,6s1.84,3.89,1.54,4.19Zm-52.48-17.64,47.19,12.79V2501l1.32.88v-.44c-.59-.58-1.25-1.17-2-1.76a14.46,14.46,0,0,1-2.43-2.65,2.54,2.54,0,0,0-.88-1.76,22.42,22.42,0,0,0-8.6-8.38,65.52,65.52,0,0,0-12.57-5.29q-10.14-2.21-12.79-2.21h-5.73a7.85,7.85,0,0,0-3.53.89Z"></path> <path class="cls-2" d="M344.88,2322.79q0,6.61-5.73,13.67-4.41,8.39-14.56,14.55a39.38,39.38,0,0,1-20.72,6.18h-2.65a9.93,9.93,0,0,1-3.09-.44,3.86,3.86,0,0,1-1.1-.22,3.6,3.6,0,0,0-1.1-.23l-167.14-44.54a54.15,54.15,0,0,1-15.21-6.83,82.08,82.08,0,0,1-14.78-11.69,67.94,67.94,0,0,1-11-14.33,31.25,31.25,0,0,1-4.41-15.66v-389l2.65.88,3.08-3.53,255.78,68.8v111.13l-3.09,3.08v3.09l-182.57-48.51v180.37q0,4.41,5.29,9.26t9.7,5.73l90,24.26a20.93,20.93,0,0,0,5.73,1.32V2064.81l2.21,2.2,3.52-3.53,69.24,64.83Zm-8.38,4.41V2134.48l-61.3-57.32v153a12.63,12.63,0,0,1-1.32,5.73q-1.32,2.65-6.62,2.65a36.92,36.92,0,0,1-8.38-1.32l-90-24.26q-5.29-1.32-11.68-7.5t-6.4-11.46V2002.63l2.21-.88L336.5,2050.7V1947.94L88.66,1881.35v381.9a27.36,27.36,0,0,0,4,13.9,59,59,0,0,0,10.14,12.78,76.46,76.46,0,0,0,13.45,10.37,53.77,53.77,0,0,0,13.89,6.17L297.25,2351c1.47.3,2.79.52,4,.66a22.76,22.76,0,0,0,2.65.22,32.86,32.86,0,0,0,11.9-2.2,38,38,0,0,0,10.37-6,35.45,35.45,0,0,0,7.49-8.16A15.53,15.53,0,0,0,336.5,2327.2Z"></path> <path class="cls-2" d="M264.18,1761.84c2.64,0,4.41-.3,5.29-.88.59-.59.88-2.06.88-4.41V1586.32q0-8.37-8.6-12.79a108.88,108.88,0,0,0-17-7,1.94,1.94,0,0,1-.88-.22,1.91,1.91,0,0,0-.88-.22l-12.35-4.41V1447.41l2.65.88,3.08-3.53,60.86,16.32a72.14,72.14,0,0,1,15.22,6,81.44,81.44,0,0,1,15.43,10.37A60.11,60.11,0,0,1,340,1491.29a30.56,30.56,0,0,1,4.85,16.54v352.79a18.39,18.39,0,0,1-5.29,12.79q-4,7.93-13.67,12.79t-17.2,5.29a13.25,13.25,0,0,1-4,.44q-4.41,0-6.18-.88l-239.9-64.38V1712l2.65.88,3.09-3.53,40.57,11V1515.76l2.2,2.21,3.53-4,68.8,61.74v164.49l81.14,21.17a3.5,3.5,0,0,0,2.2.44Zm43.21,124.36a31.75,31.75,0,0,0,9-1.54,42.38,42.38,0,0,0,9.49-4.19,26.91,26.91,0,0,0,7.49-6.62,14,14,0,0,0,3.09-8.82V1512.24a26.85,26.85,0,0,0-4.63-15,57.32,57.32,0,0,0-11.25-12.57,78.4,78.4,0,0,0-14.33-9.48,73.15,73.15,0,0,0-14.33-5.73l-56-15v103.19l2.65.88q4.85,1.77,11,3.53a64.65,64.65,0,0,1,12.13,4.85,32.6,32.6,0,0,1,9.92,7.72,17.28,17.28,0,0,1,4,11.68v170.23c0,5-1.61,8.38-4.85,10.14a32.51,32.51,0,0,1-11,3.53h-1.33c-2.05,0-3.23-.15-3.52-.44l-83.79-22V1581.91l-60.86-54.68v204.62L64,1719.06V1822.7l235.49,63.06c.58.59,2.35.88,5.29.88C306.22,1886.64,307.1,1886.49,307.39,1886.2Z"></path> <path class="cls-2" d="M344.88,1388.31a22.18,22.18,0,0,1-5.29,14.11,36.27,36.27,0,0,1-12.35,13.67q-8.39,5.75-15.44,7.5v.88h-6.61l-10.58-.88L135,1380.81a74.56,74.56,0,0,1-18.53-7.27A69.22,69.22,0,0,1,99.91,1361,65.62,65.62,0,0,1,88,1344a47,47,0,0,1-4.63-21V988.33a50.15,50.15,0,0,1,.66-7.06A35.1,35.1,0,0,1,86.9,972a40.18,40.18,0,0,1,6.17-9.48,27.34,27.34,0,0,1,10.14-7.28,41.78,41.78,0,0,1,8.82-4.41,35.28,35.28,0,0,1,11.91-1.76,72.85,72.85,0,0,1,7.94.44,58.47,58.47,0,0,1,8.82,1.77L232,975.54a17.74,17.74,0,0,1,5.74,3.53,41.44,41.44,0,0,1,5.95,6.39q2.87,3.75,5.29,7.5a17.44,17.44,0,0,1,2.87,6.83v292.83c.59.58,2.13,1.1,4.63,1.54a39.73,39.73,0,0,0,6.83.66h4a9.88,9.88,0,0,0,3.09-.44V1028.9l2.21,2.21,3.52-3.53,68.8,63.94ZM307,1418.74h.44a22.6,22.6,0,0,0,8.38-2,37.6,37.6,0,0,0,9.48-5.73,42.42,42.42,0,0,0,7.94-8.38,16.7,16.7,0,0,0,3.31-9.92v-295l-60.86-56.45v253.13q0,4.84-5.51,6.83a32.78,32.78,0,0,1-11.25,2A27.15,27.15,0,0,1,249,1301q-5.51-2.21-5.51-4.41V1005.09a19.39,19.39,0,0,0-2.43-6.18,67.76,67.76,0,0,0-4.4-6.83,31.08,31.08,0,0,0-5.08-5.52,11.35,11.35,0,0,0-4.85-2.64l-91.28-24.26a59.55,59.55,0,0,0-8.6-1.76,63.26,63.26,0,0,0-7.28-.44q-9.7,0-15.87,3.75A29.07,29.07,0,0,0,94.17,970a30.38,30.38,0,0,0-4.41,10.36,43.25,43.25,0,0,0-1.1,7.94V1323a42.29,42.29,0,0,0,4.19,18.75,59.59,59.59,0,0,0,10.81,15.43,61.82,61.82,0,0,0,15.21,11.47,75.38,75.38,0,0,0,17.42,6.83l160.52,42.78,8.82.88h.88A.39.39,0,0,1,307,1418.74Zm-127.44-135h-1.33q1.33,0-3.08-.88l-5.3-1.32q-16.31-4.41-16.31-17.64V1081.38q0-3.53,5.07-5.73a36.4,36.4,0,0,1,7.72-2.65.89.89,0,0,0,.66-.22l.22-.22,10.14,2.65c3.24.88,4.85,2.2,4.85,4v201.54C182.15,1282.77,181.27,1283.79,179.51,1283.79Zm-4.41-10.58,1.76.44V1080.94a1.28,1.28,0,0,1-.88-.44l-8.82-2.21h-.44c-.89.3-2.5.74-4.85,1.32v179.93Q161.87,1270.13,175.1,1273.21Z"></path> <path class="cls-2" d="M261.53,639.06a84.33,84.33,0,0,0-9.26-6.17l-42.78-11.47V503.68l2.65.88,3.09-3.53L382.8,546v115.1l-3.08,3.09v3.08l-34.84-8.82V917.33q0,13.67-7.06,22a26.67,26.67,0,0,1-13.23,12.79,47.92,47.92,0,0,1-19.84,4,44.86,44.86,0,0,1-7.5-.67c-2.64-.44-5.88-1-9.7-1.54L127,911.15a53.07,53.07,0,0,1-14.33-6.61,86.31,86.31,0,0,1-14.12-11,69.59,69.59,0,0,1-10.8-13.23q-4.41-7-4.41-13.67V471l2.2,2.21,3.53-3.53,68.8,66.15V788.12q0,2.21,2.42,5.29a35,35,0,0,0,5.74,5.73,49.78,49.78,0,0,0,6.83,4.63,21.34,21.34,0,0,0,5.73,2.43l82,22a6.2,6.2,0,0,0,2.64.44,14.77,14.77,0,0,0,3.53.44V645.23C266.82,643.76,265.06,641.71,261.53,639.06Zm4.19-3.31q6.39,5.07,6.4,9.48V827.81q0,9.69-9.71,9.7a24.36,24.36,0,0,1-3.3-.22q-1.55-.22-3.75-.66l-82-22a19.9,19.9,0,0,1-6.61-2.87,67.16,67.16,0,0,1-7.94-5.73,41.46,41.46,0,0,1-6.62-6.84,11.27,11.27,0,0,1-2.64-6.61V541.6L88.66,483V866.61c0,3.83,1.32,7.79,4,11.91a60.89,60.89,0,0,0,9.92,11.69,77.09,77.09,0,0,0,13,9.7,60.49,60.49,0,0,0,12.79,6l160.52,42.78q12.35,2.21,15.88,2.2A37.06,37.06,0,0,0,327,944q9.48-6.84,9.48-22.27V650.09l37.93,10.14V553.51L214.79,510.73V617.45L254.47,628A81,81,0,0,1,265.72,635.75Z"></path> <path class="cls-2" d="M170.25,326.83V141.17l-86-22.93V4l2.65.88L90,1.38,328.12,65.32a63.87,63.87,0,0,1,7.72,3.09c1,.59,2,1.18,2.87,1.76a94.83,94.83,0,0,1,9.92,7.06A82.62,82.62,0,0,1,359,87.15a62.45,62.45,0,0,1,8.16,11.69,25.26,25.26,0,0,1,3.31,11.91v321a22.27,22.27,0,0,1-5.29,15,21.32,21.32,0,0,1-13,11.91,57.6,57.6,0,0,1-18.75,3.09,52.55,52.55,0,0,1-8.16-.66c-2.79-.45-5.8-1-9-1.55l-60-16.31V329l2.64.88,3.09-3.53,7.94,2.65,4.85,1.32q4.41.88,9,1.76a46,46,0,0,0,8.6.89h3.09a9.3,9.3,0,0,0,.44-3.53V190.57a14.19,14.19,0,0,0-4-9.71,33.33,33.33,0,0,0-8.82-7.05c-1.76-1.77-3.09-2.65-4-2.65l-34.4-8.82v266.8a22.2,22.2,0,0,1-4.85,14.12q-3.53,8.82-13.45,12.56a56.32,56.32,0,0,1-20.06,3.75q-11.91,0-16.76-2.2L84.25,429.14V315.37l2.65.88L90,312.72l53.81,14.55h.88q4.85.89,10.36,2a53.38,53.38,0,0,0,10.36,1.1h4.41A9,9,0,0,0,170.25,326.83ZM328.12,75.47,325,74.14,89.54,11.08V114.27l86,22.94V326.83q0,7.07-4.19,9.48A20.4,20.4,0,0,1,161,338.74a64.49,64.49,0,0,1-11.68-1.1l-10.81-2L89.54,322.42V425.17l102.31,27.35q4,1.75,14.56,1.76a46,46,0,0,0,20.5-4.63q9.48-4.63,9.48-16.1V154l44.1,11.91q1.77,0,4.41,2.65a44.37,44.37,0,0,1,11.25,9.26,18.82,18.82,0,0,1,5.07,12.79V329.48q0,7-3.75,9.48a17.11,17.11,0,0,1-9.48,2.43,53.5,53.5,0,0,1-12.57-1.55q-6.39-1.54-11.24-2.42l-2.65-.88V439.29l56,15q11,2.21,15.87,2.21A44.18,44.18,0,0,0,353,452.08q9-4.41,9-15.88v-321A22,22,0,0,0,359,104.35a63.45,63.45,0,0,0-7.5-10.58,72,72,0,0,0-9.7-9.26,70.55,70.55,0,0,0-9.26-6.4A14.33,14.33,0,0,0,328.12,75.47Z"></path> </g> <g class="cls-1"> <path class="cls-3" d="M269.91,3706.2V3442l-1.32-.44a20.09,20.09,0,0,0-6.18-4.41,63,63,0,0,0-7.94-2.65l-3.08-.88V3719l-3.09,3.08v1.77q-6.17,7.5-11.91,9.92a30.2,30.2,0,0,1-11.9,2.43,38.42,38.42,0,0,1-7.5-.45,1.91,1.91,0,0,1-.88-.22,2.08,2.08,0,0,0-.88-.22l-86-22.93A49,49,0,0,1,114,3705.1a87.08,87.08,0,0,1-14.77-12.57,82.28,82.28,0,0,1-11-14.56q-4.41-7.48-4.41-14.11V3270.94l2.21,2.2,3.52-3.53,70.56,65.71v256.22q0,4.85,5.07,8.6a43.2,43.2,0,0,0,11.25,6V3298.72l2.65.88,3.08-3.53,113.78,30.43a65.18,65.18,0,0,1,16.54,7.5,91.87,91.87,0,0,1,15.87,12.35,67.86,67.86,0,0,1,11.91,15.21,32.54,32.54,0,0,1,4.63,16.1v388.51l-3.09,3.09v4.41Zm5.29-261.51V3704l61.3,57.33V3382.07a28.69,28.69,0,0,0-4.41-14.56,70.76,70.76,0,0,0-11-14.11,74.86,74.86,0,0,0-14.78-11.46,68.89,68.89,0,0,0-15.65-7.06l-108.93-29.1v304.28a21.94,21.94,0,0,1-.66,3.75c-.44,1.91-1.25,2.87-2.43,2.87l-4.85-1.33a40.33,40.33,0,0,1-15.21-7.72q-6.84-5.51-6.84-11.68V3341.5L89.1,3283.28v380.58q0,5.73,4,12.57a64,64,0,0,0,10.14,13,87.77,87.77,0,0,0,13.45,11,47.54,47.54,0,0,0,13.9,6.62l86,22.93c1.47.29,2.79.52,4,.66a31.61,31.61,0,0,0,4,.22,22.37,22.37,0,0,0,9.26-2,29.67,29.67,0,0,0,9.26-7.28V3428.37a4.23,4.23,0,0,1,3.09-1.32c2.35,0,3.67.15,4,.44l5.73,1.76a61.06,61.06,0,0,1,8.38,2.87,25.6,25.6,0,0,1,7.49,5.51,14.51,14.51,0,0,1,2.65,4.19C275.2,3443.73,275.5,3444.69,275.2,3444.69ZM247,3723.4l-.88.88A.78.78,0,0,0,247,3723.4Z"></path> <path class="cls-3" d="M264.18,3161.13c2.64,0,4.41-.3,5.29-.88.59-.59.88-2.06.88-4.42V2985.61q0-8.37-8.6-12.79a108.88,108.88,0,0,0-17-7.05,2.08,2.08,0,0,1-.88-.22,1.91,1.91,0,0,0-.88-.22l-12.35-4.41V2846.7l2.65.88,3.08-3.53,60.86,16.32a71.61,71.61,0,0,1,15.22,6,81.44,81.44,0,0,1,15.43,10.37A60.11,60.11,0,0,1,340,2890.58a30.52,30.52,0,0,1,4.85,16.53v352.8a18.41,18.41,0,0,1-5.29,12.79q-4,7.93-13.67,12.79t-17.2,5.29a13.58,13.58,0,0,1-4,.44q-4.41,0-6.18-.88L58.67,3226V3111.29l2.65.89,3.09-3.53,40.57,11V2915.05l2.2,2.21,3.53-4,68.8,61.74v164.49l81.14,21.17a3.5,3.5,0,0,0,2.2.44Zm43.21,124.36a31.44,31.44,0,0,0,9-1.55,41.49,41.49,0,0,0,9.49-4.19,26.71,26.71,0,0,0,7.49-6.61,14,14,0,0,0,3.09-8.82v-352.8a26.82,26.82,0,0,0-4.63-15A57.32,57.32,0,0,0,320.62,2884a78.4,78.4,0,0,0-14.33-9.48,71.92,71.92,0,0,0-14.33-5.73l-56-15V2957l2.65.88q4.85,1.76,11,3.53a64.65,64.65,0,0,1,12.13,4.85,32.73,32.73,0,0,1,9.92,7.71,17.33,17.33,0,0,1,4,11.69v170.22q0,7.5-4.85,10.15a32.51,32.51,0,0,1-11,3.53h-1.33c-2.05,0-3.23-.15-3.52-.45l-83.79-22V2981.2l-60.86-54.68v204.62L64,3118.35V3222l235.49,63.07c.58.58,2.35.88,5.29.88C306.22,3285.93,307.1,3285.78,307.39,3285.49Z"></path> <path class="cls-3" d="M341.79,2528.29,221,2685.29l123.92,32.63v111.57l-3.09,3.09v3.09L84.25,2766.43V2381a27,27,0,0,1,4.19-14.33,32.1,32.1,0,0,1,12.13-11.25q8.37-7.49,21.61-7.49a36.75,36.75,0,0,1,12.34,1.76l99.23,26.46a78.69,78.69,0,0,1,16.76,7.06,84.59,84.59,0,0,1,16.31,11.68,63.66,63.66,0,0,1,12.35,15.22,35.49,35.49,0,0,1,4.85,18.08v37l57.77-73.2v2.2l3.09-3.08v132.29l-3.09,4ZM213,2686.17,336.5,2526.53V2407l-60.86,77.18v-51.6a31.59,31.59,0,0,0-4.63-16.54A65.26,65.26,0,0,0,259.55,2402a69.39,69.39,0,0,0-15.22-10.8,87.26,87.26,0,0,0-15.87-6.62l-99.23-26.46c-2.64-1.18-6.47-1.76-11.46-1.76q-13.23,0-20.73,7.93T89.54,2381v381.46l247,66.15V2725.42L152.16,2676V2482.87q0-5.73,5.52-7.27a35,35,0,0,1,9-1.55h3.08a37.8,37.8,0,0,1,6.4.66c2.5.44,5.36,1,8.6,1.55a57.41,57.41,0,0,1,13.67,5.95,27.36,27.36,0,0,1,9.7,9.92c.88,1.47,2,3.46,3.31,6s1.84,3.89,1.54,4.19Zm-52.48-17.64,47.19,12.79V2501l1.32.88v-.44c-.59-.58-1.25-1.17-2-1.76a14.46,14.46,0,0,1-2.43-2.65,2.54,2.54,0,0,0-.88-1.76,22.42,22.42,0,0,0-8.6-8.38,65.52,65.52,0,0,0-12.57-5.29q-10.14-2.21-12.79-2.21h-5.73a7.85,7.85,0,0,0-3.53.89Z"></path> <path class="cls-3" d="M344.88,2322.79q0,6.61-5.73,13.67-4.41,8.39-14.56,14.55a39.38,39.38,0,0,1-20.72,6.18h-2.65a9.93,9.93,0,0,1-3.09-.44,3.86,3.86,0,0,1-1.1-.22,3.6,3.6,0,0,0-1.1-.23l-167.14-44.54a54.15,54.15,0,0,1-15.21-6.83,82.08,82.08,0,0,1-14.78-11.69,67.94,67.94,0,0,1-11-14.33,31.25,31.25,0,0,1-4.41-15.66v-389l2.65.88,3.08-3.53,255.78,68.8v111.13l-3.09,3.08v3.09l-182.57-48.51v180.37q0,4.41,5.29,9.26t9.7,5.73l90,24.26a20.93,20.93,0,0,0,5.73,1.32V2064.81l2.21,2.2,3.52-3.53,69.24,64.83Zm-8.38,4.41V2134.48l-61.3-57.32v153a12.63,12.63,0,0,1-1.32,5.73q-1.32,2.65-6.62,2.65a36.92,36.92,0,0,1-8.38-1.32l-90-24.26q-5.29-1.32-11.68-7.5t-6.4-11.46V2002.63l2.21-.88L336.5,2050.7V1947.94L88.66,1881.35v381.9a27.36,27.36,0,0,0,4,13.9,59,59,0,0,0,10.14,12.78,76.46,76.46,0,0,0,13.45,10.37,53.77,53.77,0,0,0,13.89,6.17L297.25,2351c1.47.3,2.79.52,4,.66a22.76,22.76,0,0,0,2.65.22,32.86,32.86,0,0,0,11.9-2.2,38,38,0,0,0,10.37-6,35.45,35.45,0,0,0,7.49-8.16A15.53,15.53,0,0,0,336.5,2327.2Z"></path> <path class="cls-3" d="M264.18,1761.84c2.64,0,4.41-.3,5.29-.88.59-.59.88-2.06.88-4.41V1586.32q0-8.37-8.6-12.79a108.88,108.88,0,0,0-17-7,1.94,1.94,0,0,1-.88-.22,1.91,1.91,0,0,0-.88-.22l-12.35-4.41V1447.41l2.65.88,3.08-3.53,60.86,16.32a72.14,72.14,0,0,1,15.22,6,81.44,81.44,0,0,1,15.43,10.37A60.11,60.11,0,0,1,340,1491.29a30.56,30.56,0,0,1,4.85,16.54v352.79a18.39,18.39,0,0,1-5.29,12.79q-4,7.93-13.67,12.79t-17.2,5.29a13.25,13.25,0,0,1-4,.44q-4.41,0-6.18-.88l-239.9-64.38V1712l2.65.88,3.09-3.53,40.57,11V1515.76l2.2,2.21,3.53-4,68.8,61.74v164.49l81.14,21.17a3.5,3.5,0,0,0,2.2.44Zm43.21,124.36a31.75,31.75,0,0,0,9-1.54,42.38,42.38,0,0,0,9.49-4.19,26.91,26.91,0,0,0,7.49-6.62,14,14,0,0,0,3.09-8.82V1512.24a26.85,26.85,0,0,0-4.63-15,57.32,57.32,0,0,0-11.25-12.57,78.4,78.4,0,0,0-14.33-9.48,73.15,73.15,0,0,0-14.33-5.73l-56-15v103.19l2.65.88q4.85,1.77,11,3.53a64.65,64.65,0,0,1,12.13,4.85,32.6,32.6,0,0,1,9.92,7.72,17.28,17.28,0,0,1,4,11.68v170.23c0,5-1.61,8.38-4.85,10.14a32.51,32.51,0,0,1-11,3.53h-1.33c-2.05,0-3.23-.15-3.52-.44l-83.79-22V1581.91l-60.86-54.68v204.62L64,1719.06V1822.7l235.49,63.06c.58.59,2.35.88,5.29.88C306.22,1886.64,307.1,1886.49,307.39,1886.2Z"></path> <path class="cls-3" d="M344.88,1388.31a22.18,22.18,0,0,1-5.29,14.11,36.27,36.27,0,0,1-12.35,13.67q-8.39,5.75-15.44,7.5v.88h-6.61l-10.58-.88L135,1380.81a74.56,74.56,0,0,1-18.53-7.27A69.22,69.22,0,0,1,99.91,1361,65.62,65.62,0,0,1,88,1344a47,47,0,0,1-4.63-21V988.33a50.15,50.15,0,0,1,.66-7.06A35.1,35.1,0,0,1,86.9,972a40.18,40.18,0,0,1,6.17-9.48,27.34,27.34,0,0,1,10.14-7.28,41.78,41.78,0,0,1,8.82-4.41,35.28,35.28,0,0,1,11.91-1.76,72.85,72.85,0,0,1,7.94.44,58.47,58.47,0,0,1,8.82,1.77L232,975.54a17.74,17.74,0,0,1,5.74,3.53,41.44,41.44,0,0,1,5.95,6.39q2.87,3.75,5.29,7.5a17.44,17.44,0,0,1,2.87,6.83v292.83c.59.58,2.13,1.1,4.63,1.54a39.73,39.73,0,0,0,6.83.66h4a9.88,9.88,0,0,0,3.09-.44V1028.9l2.21,2.21,3.52-3.53,68.8,63.94ZM307,1418.74h.44a22.6,22.6,0,0,0,8.38-2,37.6,37.6,0,0,0,9.48-5.73,42.42,42.42,0,0,0,7.94-8.38,16.7,16.7,0,0,0,3.31-9.92v-295l-60.86-56.45v253.13q0,4.84-5.51,6.83a32.78,32.78,0,0,1-11.25,2A27.15,27.15,0,0,1,249,1301q-5.51-2.21-5.51-4.41V1005.09a19.39,19.39,0,0,0-2.43-6.18,67.76,67.76,0,0,0-4.4-6.83,31.08,31.08,0,0,0-5.08-5.52,11.35,11.35,0,0,0-4.85-2.64l-91.28-24.26a59.55,59.55,0,0,0-8.6-1.76,63.26,63.26,0,0,0-7.28-.44q-9.7,0-15.87,3.75A29.07,29.07,0,0,0,94.17,970a30.38,30.38,0,0,0-4.41,10.36,43.25,43.25,0,0,0-1.1,7.94V1323a42.29,42.29,0,0,0,4.19,18.75,59.59,59.59,0,0,0,10.81,15.43,61.82,61.82,0,0,0,15.21,11.47,75.38,75.38,0,0,0,17.42,6.83l160.52,42.78,8.82.88h.88A.39.39,0,0,1,307,1418.74Zm-127.44-135h-1.33q1.33,0-3.08-.88l-5.3-1.32q-16.31-4.41-16.31-17.64V1081.38q0-3.53,5.07-5.73a36.4,36.4,0,0,1,7.72-2.65.89.89,0,0,0,.66-.22l.22-.22,10.14,2.65c3.24.88,4.85,2.2,4.85,4v201.54C182.15,1282.77,181.27,1283.79,179.51,1283.79Zm-4.41-10.58,1.76.44V1080.94a1.28,1.28,0,0,1-.88-.44l-8.82-2.21h-.44c-.89.3-2.5.74-4.85,1.32v179.93Q161.87,1270.13,175.1,1273.21Z"></path> <path class="cls-3" d="M261.53,639.06a84.33,84.33,0,0,0-9.26-6.17l-42.78-11.47V503.68l2.65.88,3.09-3.53L382.8,546v115.1l-3.08,3.09v3.08l-34.84-8.82V917.33q0,13.67-7.06,22a26.67,26.67,0,0,1-13.23,12.79,47.92,47.92,0,0,1-19.84,4,44.86,44.86,0,0,1-7.5-.67c-2.64-.44-5.88-1-9.7-1.54L127,911.15a53.07,53.07,0,0,1-14.33-6.61,86.31,86.31,0,0,1-14.12-11,69.59,69.59,0,0,1-10.8-13.23q-4.41-7-4.41-13.67V471l2.2,2.21,3.53-3.53,68.8,66.15V788.12q0,2.21,2.42,5.29a35,35,0,0,0,5.74,5.73,49.78,49.78,0,0,0,6.83,4.63,21.34,21.34,0,0,0,5.73,2.43l82,22a6.2,6.2,0,0,0,2.64.44,14.77,14.77,0,0,0,3.53.44V645.23C266.82,643.76,265.06,641.71,261.53,639.06Zm4.19-3.31q6.39,5.07,6.4,9.48V827.81q0,9.69-9.71,9.7a24.36,24.36,0,0,1-3.3-.22q-1.55-.22-3.75-.66l-82-22a19.9,19.9,0,0,1-6.61-2.87,67.16,67.16,0,0,1-7.94-5.73,41.46,41.46,0,0,1-6.62-6.84,11.27,11.27,0,0,1-2.64-6.61V541.6L88.66,483V866.61c0,3.83,1.32,7.79,4,11.91a60.89,60.89,0,0,0,9.92,11.69,77.09,77.09,0,0,0,13,9.7,60.49,60.49,0,0,0,12.79,6l160.52,42.78q12.35,2.21,15.88,2.2A37.06,37.06,0,0,0,327,944q9.48-6.84,9.48-22.27V650.09l37.93,10.14V553.51L214.79,510.73V617.45L254.47,628A81,81,0,0,1,265.72,635.75Z"></path> <path class="cls-3" d="M170.25,326.83V141.17l-86-22.93V4l2.65.88L90,1.38,328.12,65.32a63.87,63.87,0,0,1,7.72,3.09c1,.59,2,1.18,2.87,1.76a94.83,94.83,0,0,1,9.92,7.06A82.62,82.62,0,0,1,359,87.15a62.45,62.45,0,0,1,8.16,11.69,25.26,25.26,0,0,1,3.31,11.91v321a22.27,22.27,0,0,1-5.29,15,21.32,21.32,0,0,1-13,11.91,57.6,57.6,0,0,1-18.75,3.09,52.55,52.55,0,0,1-8.16-.66c-2.79-.45-5.8-1-9-1.55l-60-16.31V329l2.64.88,3.09-3.53,7.94,2.65,4.85,1.32q4.41.88,9,1.76a46,46,0,0,0,8.6.89h3.09a9.3,9.3,0,0,0,.44-3.53V190.57a14.19,14.19,0,0,0-4-9.71,33.33,33.33,0,0,0-8.82-7.05c-1.76-1.77-3.09-2.65-4-2.65l-34.4-8.82v266.8a22.2,22.2,0,0,1-4.85,14.12q-3.53,8.82-13.45,12.56a56.32,56.32,0,0,1-20.06,3.75q-11.91,0-16.76-2.2L84.25,429.14V315.37l2.65.88L90,312.72l53.81,14.55h.88q4.85.89,10.36,2a53.38,53.38,0,0,0,10.36,1.1h4.41A9,9,0,0,0,170.25,326.83ZM328.12,75.47,325,74.14,89.54,11.08V114.27l86,22.94V326.83q0,7.07-4.19,9.48A20.4,20.4,0,0,1,161,338.74a64.49,64.49,0,0,1-11.68-1.1l-10.81-2L89.54,322.42V425.17l102.31,27.35q4,1.75,14.56,1.76a46,46,0,0,0,20.5-4.63q9.48-4.63,9.48-16.1V154l44.1,11.91q1.77,0,4.41,2.65a44.37,44.37,0,0,1,11.25,9.26,18.82,18.82,0,0,1,5.07,12.79V329.48q0,7-3.75,9.48a17.11,17.11,0,0,1-9.48,2.43,53.5,53.5,0,0,1-12.57-1.55q-6.39-1.54-11.24-2.42l-2.65-.88V439.29l56,15q11,2.21,15.87,2.21A44.18,44.18,0,0,0,353,452.08q9-4.41,9-15.88v-321A22,22,0,0,0,359,104.35a63.45,63.45,0,0,0-7.5-10.58,72,72,0,0,0-9.7-9.26,70.55,70.55,0,0,0-9.26-6.4A14.33,14.33,0,0,0,328.12,75.47Z"></path> </g> </g> </svg> 