<?xml version="1.0" encoding="UTF-8"?> <svg xmlns="http://www.w3.org/2000/svg" width="152.583" height="64.232" viewBox="0 0 152.583 64.232"> <g id="Контур_13430" data-name="Контур 13430" transform="matrix(0.998, 0.07, -0.07, 0.998, 3.101, -2.789)" fill="none"> <path d="M74.716,2.836c41.194,1.27,74.915,14.333,75.319,29.178s-32.663,25.85-73.856,24.58S1.264,42.261.86,27.416,33.522,1.566,74.716,2.836Z" stroke="none"></path> <path d="M 68.27835845947266 3.736328125 C 53.91545867919922 3.736328125 40.36888122558594 5.248786926269531 29.10311889648438 8.1102294921875 C 23.65515899658203 9.493968963623047 18.86192321777344 11.16382598876953 14.85653686523438 13.07340621948242 C 10.85154724121094 14.98280715942383 7.704757690429688 17.09782791137695 5.503616333007812 19.35968780517578 C 3.01025390625 21.92180633544922 1.7841796875 24.62326812744141 1.859420776367188 27.38900756835938 C 1.9501953125 30.72472763061523 3.901535034179688 34.06000518798828 7.659225463867188 37.30222702026367 C 11.41618347167969 40.54380798339844 16.77418518066406 43.52510833740234 23.58438110351562 46.16330718994141 C 30.44286346435547 48.82020568847656 38.41116333007812 50.98686981201172 47.26789855957031 52.60310745239258 C 56.45262145996094 54.2791862487793 66.18995666503906 55.28560638427734 76.20945739746094 55.59440612792969 C 78.34513854980469 55.66022872924805 80.50064086914062 55.69360733032227 82.61611938476562 55.69360733032227 C 96.97900390625 55.69360733032227 110.5255813598633 54.18114852905273 121.7913208007812 51.31972885131836 C 127.2392807006836 49.93598937988281 132.0325164794922 48.26612854003906 136.0379028320312 46.35652923583984 C 140.0428771972656 44.44712829589844 143.1896667480469 42.33213043212891 145.3908233642578 40.07026672363281 C 147.8842010498047 37.50812530517578 149.1102752685547 34.80666732788086 149.0350341796875 32.04090881347656 C 148.9442596435547 28.70518684387207 146.992919921875 25.36990737915039 143.2352447509766 22.12768936157227 C 139.4782867431641 18.8861083984375 134.1202850341797 15.90480804443359 127.3100814819336 13.26660919189453 C 120.4515991210938 10.60970687866211 112.4833221435547 8.443046569824219 103.6265563964844 6.826828002929688 C 94.44186401367188 5.150749206542969 84.70452117919922 4.144329071044922 74.68502044677734 3.835529327392578 C 72.54933929443359 3.769706726074219 70.39383697509766 3.736328125 68.27835845947266 3.736328125 M 68.27835083007812 2.736324310302734 C 70.39935302734375 2.736324310302734 72.5460205078125 2.769134521484375 74.7158203125 2.836006164550781 C 115.9093170166016 4.105567932128906 149.6307067871094 17.16888809204102 150.0346527099609 32.01371002197266 C 150.4385833740234 46.85856628417969 117.3721771240234 57.86349105834961 76.17865753173828 56.59392929077148 C 34.98516082763672 55.32434844970703 1.263763427734375 42.26104736328125 0.85980224609375 27.41620635986328 C 0.477142333984375 13.35329437255859 30.13232421875 2.736324310302734 68.27835083007812 2.736324310302734 Z" stroke="none" fill="#51fec0"></path> </g> </svg> 