<?xml version="1.0" encoding="UTF-8"?> <svg xmlns="http://www.w3.org/2000/svg" width="153.426" height="66.448" viewBox="0 0 153.426 66.448"> <g id="Контур_13428" data-name="Контур 13428" transform="matrix(0.996, 0.087, -0.087, 0.996, 4.031, -2.922)" fill="none"> <path d="M74.72,3c41.231,1.509,75.03,14.676,75.492,29.409S117.624,57.86,76.393,56.351,1.363,41.676.9,26.942,33.489,1.488,74.72,3Z" stroke="none"></path> <path d="M 67.02883148193359 3.854766845703125 C 52.86433410644531 3.854766845703125 39.54331207275391 5.324726104736328 28.50587463378906 8.105705261230469 C 23.16053771972656 9.452526092529297 18.46391296386719 11.07940673828125 14.54649353027344 12.94118499755859 C 10.62977600097656 14.8026237487793 7.55780029296875 16.86708450317383 5.4158935546875 19.07720565795898 C 2.998550415039062 21.57156372070312 1.81585693359375 24.2071647644043 1.900634765625 26.91082382202148 C 2.004440307617188 30.22008514404297 3.970779418945312 33.54130554199219 7.74505615234375 36.78224563598633 C 11.51889038085938 40.02280426025391 16.89421081542969 43.0145263671875 23.72175598144531 45.6743049621582 C 30.59687805175781 48.35264587402344 38.58081817626953 50.55110549926758 47.45173645019531 52.20862579345703 C 56.65083312988281 53.92744445800781 66.40037536621094 54.98504638671875 76.42953491210938 55.35200500488281 C 78.98489379882812 55.44552612304688 81.56011199951172 55.49292373657227 84.08365631103516 55.49292373657227 C 98.2481689453125 55.49292373657227 111.5691986083984 54.02296447753906 122.6066360473633 51.24198532104492 C 127.9519958496094 49.89516448974609 132.6486206054688 48.26826477050781 136.5660552978516 46.40648651123047 C 140.4827728271484 44.5450439453125 143.5547485351562 42.48058319091797 145.6966552734375 40.27046585083008 C 148.1139984130859 37.776123046875 149.2966918945312 35.14052581787109 149.2118988037109 32.43686676025391 C 149.1080932617188 29.12760543823242 147.1417694091797 25.8063850402832 143.3674926757812 22.56544494628906 C 139.5936737060547 19.32488632202148 134.2183380126953 16.33316421508789 127.3908157348633 13.67338562011719 C 120.5156707763672 10.99504470825195 112.5317535400391 8.796585083007812 103.6608123779297 7.139064788818359 C 94.46173095703125 5.420246124267578 84.71219635009766 4.362644195556641 74.68303680419922 3.995685577392578 C 72.12767791748047 3.902164459228516 69.55243682861328 3.854766845703125 67.02883148193359 3.854766845703125 M 67.02883148193359 2.854766845703125 C 69.55702209472656 2.854766845703125 72.12001037597656 2.901222229003906 74.71959686279297 2.996345520019531 C 115.9504699707031 4.5050048828125 149.7493286132812 17.67194366455078 150.2113952636719 32.40552520751953 C 150.6443786621094 46.21016311645508 121.6540298461914 56.492919921875 84.08365631103516 56.492919921875 C 81.55546569824219 56.492919921875 78.9925537109375 56.44646453857422 76.39297485351562 56.35134506225586 C 35.16207122802734 54.84268569946289 1.363235473632812 41.67574310302734 0.9011383056640625 26.94216537475586 C 0.468170166015625 13.13752746582031 29.45844268798828 2.854766845703125 67.02883148193359 2.854766845703125 Z" stroke="none" fill="#51fec0"></path> </g> </svg> 