<?xml version="1.0" encoding="UTF-8"?> <svg xmlns="http://www.w3.org/2000/svg" width="149.847" height="58.682" viewBox="0 0 149.847 58.682"> <g id="Контур_13429" data-name="Контур 13429" transform="translate(-0.589 0.787) rotate(-1)" fill="none"> <path d="M74.875,1.822c41.115-.106,74.5,12.365,74.574,27.854s-33.2,28.131-74.317,28.237S.629,45.548.558,30.059,33.759,1.928,74.875,1.822Z" stroke="none"></path> <path d="M 75.39308166503906 2.821826934814453 C 75.22354125976562 2.821826934814453 75.04689788818359 2.822048187255859 74.8770751953125 2.822486877441406 C 59.52537536621094 2.861927032470703 44.81533813476562 4.651966094970703 32.33724212646484 7.999088287353516 C 26.34880065917969 9.605426788330078 21.03941345214844 11.52954864501953 16.55659484863281 13.7180061340332 C 12.07391357421875 15.90640640258789 8.514892578125 18.31134796142578 5.978424072265625 20.86606597900391 C 3.030593872070312 23.83502578735352 1.543212890625 26.92652893066406 1.557540893554688 30.05470848083496 C 1.573455810546875 33.52896881103516 3.429473876953125 36.9327278137207 7.074020385742188 40.17144775390625 C 10.71607971191406 43.40796661376953 15.95108032226562 46.32278823852539 22.63359832763672 48.83494567871094 C 29.36631774902344 51.36600875854492 37.21524047851562 53.35384750366211 45.96229553222656 54.7432861328125 C 55.03055572509766 56.18374633789062 64.67002105712891 56.91410827636719 74.61293792724609 56.91410827636719 C 74.78247833251953 56.91410827636719 74.95912170410156 56.91388702392578 75.12892150878906 56.91344833374023 C 90.48063659667969 56.87398910522461 105.190673828125 55.08394622802734 117.6687622070312 51.7368278503418 C 123.6571960449219 50.13050842285156 128.9665832519531 48.20638656616211 133.4494018554688 46.01790618896484 C 137.9320526123047 43.82952880859375 141.4910736083984 41.42456817626953 144.0275726318359 38.86986541748047 C 146.9753723144531 35.90090942382812 148.4627838134766 32.80941009521484 148.4484558105469 29.68122673034668 C 148.4325408935547 26.20696640014648 146.5765228271484 22.80320739746094 142.9319763183594 19.56448745727539 C 139.2899017333984 16.32796859741211 134.0549163818359 13.41314697265625 127.3724212646484 10.90098571777344 C 120.6396789550781 8.369926452636719 112.7907562255859 6.382087707519531 104.0437164306641 4.992649078369141 C 94.9754638671875 3.552188873291016 85.33599853515625 2.821826934814453 75.39308166503906 2.821826934814453 M 75.39307403564453 1.821819305419922 C 116.273193359375 1.821819305419922 149.3777465820312 14.25185394287109 149.4484405517578 29.6766471862793 C 149.5193939208984 45.16572570800781 116.2465972900391 57.80776596069336 75.13150024414062 57.91344833374023 C 74.96085357666016 57.91388702392578 74.78331756591797 57.91411590576172 74.61293792724609 57.91411590576172 C 33.73281860351562 57.91411590576172 0.6282196044921875 45.48408126831055 0.55755615234375 30.05928802490234 C 0.486572265625 14.57018661499023 33.75943756103516 1.928146362304688 74.87451934814453 1.822486877441406 C 75.04515838623047 1.822048187255859 75.22270202636719 1.821819305419922 75.39307403564453 1.821819305419922 Z" stroke="none" fill="#51fec0"></path> </g> </svg> 