<?xml version="1.0" encoding="UTF-8"?> <svg xmlns="http://www.w3.org/2000/svg" width="185.593" height="75.387" viewBox="0 0 185.593 75.387"> <g id="Контур_13423" data-name="Контур 13423" transform="translate(0.11 22.24) rotate(-7)" fill="none"> <path d="M90.585-.2C140.4-1.227,180.562,9.959,180.3,24.781s-40.852,27.667-90.662,28.69S-.338,43.309-.077,28.487,40.776.82,90.585-.2Z" stroke="none"></path> <path d="M 96.88715362548828 0.7314186096191406 C 94.81003570556641 0.7314186096191406 92.69672393798828 0.753204345703125 90.60594177246094 0.7961540222167969 C 78.47189331054688 1.045417785644531 66.68989562988281 1.994178771972656 55.58722686767578 3.616058349609375 C 44.87686157226562 5.180629730224609 35.25045776367188 7.301704406738281 26.97538757324219 9.920394897460938 C 18.74942016601562 12.52351379394531 12.29008483886719 15.48013305664062 7.776779174804688 18.70806121826172 C 5.539352416992188 20.30829620361328 3.821868896484375 21.95798873901367 2.672012329101562 23.61129760742188 C 1.540130615234375 25.23879814147949 0.951751708984375 26.88505935668945 0.9231719970703125 28.50434494018555 C 0.8829193115234375 30.78763198852539 1.952468872070312 33.05470275878906 4.102127075195312 35.24260711669922 C 6.52569580078125 37.70929718017578 10.25831604003906 40.0322265625 15.19630432128906 42.14686965942383 C 20.12322998046875 44.25677490234375 26.1353759765625 46.10884475708008 33.06575012207031 47.65170288085938 C 47.42086791992188 50.84744262695312 64.80438995361328 52.53660583496094 83.33701324462891 52.53660583496094 C 85.41413116455078 52.53660583496094 87.52744293212891 52.51482009887695 89.61822509765625 52.47187042236328 C 101.7522964477539 52.22260665893555 113.534294128418 51.27384567260742 124.636962890625 49.6519660949707 C 135.3472900390625 48.08739471435547 144.9736938476562 45.96632385253906 153.248779296875 43.34763336181641 C 161.4747467041016 40.74451446533203 167.93408203125 37.78789520263672 172.4473724365234 34.55996704101562 C 174.6847991943359 32.95972442626953 176.4022979736328 31.31003570556641 177.5521545410156 29.6567268371582 C 178.6840362548828 28.02922630310059 179.2724151611328 26.38296508789062 179.3009948730469 24.76367950439453 C 179.3412475585938 22.48039245605469 178.2716979980469 20.21332168579102 176.1220397949219 18.02541732788086 C 173.6984710693359 15.5587272644043 169.9658508300781 13.23579788208008 165.0278625488281 11.12115478515625 C 160.1009368896484 9.011249542236328 154.0888061523438 7.1591796875 147.1584167480469 5.616321563720703 C 132.8032989501953 2.420581817626953 115.4197769165039 0.7314186096191406 96.88715362548828 0.7314186096191406 M 96.88714599609375 -0.2685890197753906 C 143.743408203125 -0.2685890197753906 180.5511169433594 10.58894348144531 180.3008270263672 24.78132247924805 C 180.0394134521484 39.60334777832031 139.4486541748047 52.44844055175781 89.63877105712891 53.47165679931641 C 87.5228271484375 53.51512145996094 85.41580963134766 53.53661346435547 83.33702087402344 53.53661346435547 C 36.48075866699219 53.53661346435547 -0.3269500732421875 42.67908096313477 -0.07666015625 28.48670196533203 C 0.184722900390625 13.66468048095703 40.77554321289062 0.8195838928222656 90.58539581298828 -0.2036323547363281 C 92.70133972167969 -0.2470970153808594 94.80835723876953 -0.2685890197753906 96.88714599609375 -0.2685890197753906 Z" stroke="none" fill="#51fec0"></path> </g> </svg> 