<?xml version="1.0" encoding="UTF-8"?> <svg xmlns="http://www.w3.org/2000/svg" id="Сгруппировать_132" data-name="Сгруппировать 132" width="27.563" height="27.679" viewBox="0 0 27.563 27.679"> <path id="Path_172" data-name="Path 172" d="M25.2,26.13-.709.1.1-.705,26.011,25.323Z" transform="translate(1.13 1.127)"></path> <path id="Path_172_-_Outline" data-name="Path 172 - Outline" d="M24.913,26.267-1.416-.184-.182-1.413,26.147,25.038ZM-.572-.182,24.915,25.423l.389-.387L-.184-.569Z" transform="translate(1.416 1.413)"></path> <path id="Path_171" data-name="Path 171" d="M.1,25.6l-.8-.816L25.207-.713l.8.816L16.248,9.712Z" transform="translate(1.127 1.262)"></path> <path id="Path_171_-_Outline" data-name="Path 171 - Outline" d="M-.187,25.741-1.409,24.5,24.924-1.42,26.146-.179Zm-.378-1.234.385.391L25.3-.185l-.385-.391Z" transform="translate(1.413 1.547)"></path> </svg> 