<?xml version="1.0" encoding="UTF-8"?> <svg xmlns="http://www.w3.org/2000/svg" width="24.068" height="26" viewBox="0 0 24.068 26"> <g id="Сгруппировать_167" data-name="Сгруппировать 167" transform="translate(-110.924 -256.115)"> <path id="Контур_13148" data-name="Контур 13148" d="M364.145,301.44c-.884.717-1.728,1.4-2.575,2.089q-1.594,1.288-3.19,2.572c-.5.4-.536.551-.306,1.162.194.515.378,1.033.591,1.615-.545-.086-1.044-.158-1.54-.245-1.184-.207-2.367-.421-3.551-.632-.136-.024-.272-.05-.409-.063-.5-.046-.775.183-.762.686.023.889.074,1.778.116,2.667.038.8.081,1.6.119,2.4.006.134,0,.269,0,.421h-1.062c0-.181-.008-.363,0-.544q.107-2.2.22-4.394c.005-.1.007-.2.009-.3.017-.832-.217-1.037-1.039-.894-1.591.278-3.182.561-4.773.84-.131.023-.264.028-.436.045.218-.611.422-1.175.621-1.74.19-.538.174-.6-.272-.959q-2.789-2.261-5.581-4.52c-.068-.055-.132-.114-.25-.216.364-.171.7-.325,1.027-.482.591-.281.632-.372.434-.985q-.473-1.465-.948-2.928c-.041-.126-.069-.256-.118-.438,1.057.223,2.058.429,3.057.645.7.152.77.122,1.05-.537.161-.378.322-.756.5-1.18.134.127.244.223.344.329.729.778,1.453,1.559,2.184,2.334a1.08,1.08,0,0,0,.373.3c.119.043.347.025.4-.055a.8.8,0,0,0,.154-.534c-.132-.8-.3-1.6-.459-2.4q-.388-1.991-.774-3.983c-.011-.059-.01-.121-.018-.246.364.2.686.384,1.006.566.272.155.541.316.813.471.541.307.688.268.969-.279.585-1.135,1.163-2.274,1.745-3.411.078-.152.165-.3.282-.51.117.211.21.368.293.531q.864,1.689,1.725,3.379c.283.552.433.6.966.3.6-.338,1.193-.682,1.854-1.061-.154.8-.3,1.533-.436,2.267q-.406,2.141-.806,4.282a.876.876,0,0,0,.005.367c.1.4.388.49.7.217.168-.15.314-.324.468-.489l2.243-2.405c.191.445.368.853.542,1.262.245.574.36.628.98.495,1-.216,2.006-.425,3.076-.65-.045.205-.068.371-.119.529-.31.965-.629,1.927-.939,2.892-.174.54-.13.635.376.88C363.387,301.081,363.747,301.251,364.145,301.44Z" transform="translate(-229.153 -32.001)" fill="#fff"></path> </g> </svg> 