<?xml version="1.0" encoding="UTF-8"?> <svg xmlns="http://www.w3.org/2000/svg" id="Сгруппировать_172" data-name="Сгруппировать 172" width="13.685" height="22.784" viewBox="0 0 13.685 22.784"> <path id="Контур_13174" data-name="Контур 13174" d="M32.463,21.486l3.824-6.148a.348.348,0,0,0,.031-.062,6.833,6.833,0,1,0-11.646,0,.4.4,0,0,0,.027.055l3.687,6.17c-2.862.4-4.744,1.581-4.744,3.009,0,1.769,3.006,3.154,6.842,3.154s6.842-1.385,6.842-3.154C37.327,23.076,35.357,21.873,32.463,21.486Zm-7.1-6.554a6.067,6.067,0,1,1,10.272,0A.368.368,0,0,0,35.6,15l-4.04,6.5c-.061.093-.073.114-.147.236l-1.02,1.64-5-8.366A.385.385,0,0,0,25.359,14.932ZM30.485,26.9c-3.581,0-6.077-1.259-6.077-2.389,0-1.025,1.88-1.991,4.408-2.29L30.057,24.3a.382.382,0,0,0,.325.186h0a.383.383,0,0,0,.325-.181l1.306-2.1c2.568.278,4.546,1.269,4.546,2.306C36.562,25.64,34.066,26.9,30.485,26.9Z" transform="translate(-23.642 -4.88)" fill="#024ef9"></path> <path id="Контур_13175" data-name="Контур 13175" d="M45.7,24.413A2.484,2.484,0,1,0,43.215,26.9,2.487,2.487,0,0,0,45.7,24.413Zm-4.2,0a1.719,1.719,0,1,1,1.719,1.719A1.721,1.721,0,0,1,41.5,24.413Z" transform="translate(-36.373 -17.581)" fill="#024ef9"></path> </svg> 