<?xml version="1.0" encoding="UTF-8"?> <svg xmlns="http://www.w3.org/2000/svg" width="340.044" height="360.886" viewBox="0 0 340.044 360.886"> <g id="Сгруппировать_672" data-name="Сгруппировать 672" transform="translate(-220.555 -1203.104)"> <path id="Контур_13392" data-name="Контур 13392" d="M170.043,30.974,3.475,2.308l.17-.985L170.213,29.988Z" transform="translate(220.5 1352.998)"></path> <path id="Многоугольник_34" data-name="Многоугольник 34" d="M129.532,6,5.2,221.311H253.867L129.532,6m0-6L259.064,224.311H0Z" transform="translate(387.251 1203.104) rotate(48)"></path> <g id="Сгруппировать_147" data-name="Сгруппировать 147" transform="translate(403.658 1383.539)"> <path id="Path_172" data-name="Path 172" d="M7.712,8.017-.709-.443l.264-.263,8.421,8.46Z" transform="translate(0.709 0.705)"></path> <path id="Path_172_-_Рамка" data-name="Path 172 - Рамка" d="M7.71,8.724-1.416-.445l.973-.968L8.683,7.756Z" transform="translate(0.709 0.705)"></path> <path id="Path_171" data-name="Path 171" d="M-.44,7.841-.7,7.576,7.719-.713l.261.265L4.807,2.676Z" transform="translate(0.703 0.754)"></path> <path id="Path_171_-_Рамка" data-name="Path 171 - Рамка" d="M-.446,8.548l-.963-.978L7.725-1.42l.963.978Z" transform="translate(0.703 0.754)"></path> </g> <path id="Прямоугольник_114" data-name="Прямоугольник 114" d="M1,1V9.615H9.615V1H1M0,0H10.615V10.615H0Z" transform="translate(402.35 1553.375) rotate(90)"></path> <path id="Линия_13" data-name="Линия 13" d="M.355,83.839l-.711-.7L82.262-.352l.711.7Z" transform="translate(390.628 1299.992)"></path> <path id="Контур_186" data-name="Контур 186" d="M1109.325,885.042l-2.849-159.382,1-.018,2.849,159.382Z" transform="translate(-716.348 657.887)"></path> </g> </svg> 