<?xml version="1.0" encoding="UTF-8"?> <svg xmlns="http://www.w3.org/2000/svg" width="15.014" height="24.996" viewBox="0 0 15.014 24.996"> <g id="Сгруппировать_499" data-name="Сгруппировать 499" transform="translate(-653.494 -13773.341)"> <path id="Контур_189" data-name="Контур 189" d="M33.32,23.1l4.2-6.745a.382.382,0,0,0,.034-.069,7.5,7.5,0,1,0-12.777,0,.433.433,0,0,0,.03.06l4.045,6.769c-3.14.444-5.2,1.735-5.2,3.3,0,1.94,3.3,3.46,7.507,3.46s7.507-1.52,7.507-3.46C38.656,24.843,36.495,23.523,33.32,23.1Zm-7.794-7.19a6.656,6.656,0,1,1,11.269,0,.4.4,0,0,0-.035.07L32.328,23.1c-.067.1-.08.125-.161.259l-1.119,1.8-5.485-9.179A.422.422,0,0,0,25.525,15.908Zm5.624,13.129c-3.929,0-6.667-1.381-6.667-2.621,0-1.125,2.062-2.185,4.836-2.513l1.363,2.281a.419.419,0,0,0,.356.2h0a.42.42,0,0,0,.356-.2l1.433-2.3c2.818.305,4.987,1.392,4.987,2.529C37.816,27.655,35.078,29.037,31.149,29.037Z" transform="translate(629.852 13768.461)"></path> <path id="Контур_190" data-name="Контур 190" d="M46.182,24.655a2.726,2.726,0,1,0-2.726,2.726A2.729,2.729,0,0,0,46.182,24.655Zm-4.612,0a1.886,1.886,0,1,1,1.886,1.886A1.888,1.888,0,0,1,41.57,24.655Z" transform="translate(617.544 13756.184)"></path> </g> </svg> 