<?xml version="1.0" encoding="UTF-8"?> <svg xmlns="http://www.w3.org/2000/svg" width="394.337" height="389.324" viewBox="0 0 394.337 389.324"> <g id="Сгруппировать_708" data-name="Сгруппировать 708" transform="matrix(0.998, 0.07, -0.07, 0.998, 3376.225, 1896.847)"> <g id="Многоугольник_116" data-name="Многоугольник 116" transform="matrix(0.809, 0.588, -0.588, 0.809, -3335.017, -1668.272)" fill="none"> <path d="M149.229,0,298.458,257.791H0Z" stroke="none"></path> <path d="M 149.2290496826172 5.9881591796875 L 5.203033447265625 254.7906799316406 L 293.2550659179688 254.7906799316406 L 149.2290496826172 5.9881591796875 M 149.2290496826172 0 L 298.4580993652344 257.7906799316406 L 0 257.7906799316406 L 149.2290496826172 0 Z" stroke="none" fill="#000"></path> </g> <path id="Контур_13417" data-name="Контур 13417" d="M0,0,108.3,36.635" transform="matrix(0.719, 0.695, -0.695, 0.719, -3299.26, -1388.85)" fill="none" stroke="#000" stroke-width="2"></path> <line id="Линия_202" data-name="Линия 202" x2="71.406" y2="192.605" transform="matrix(0.719, 0.695, -0.695, 0.719, -3216.831, -1577.001)" fill="none" stroke="#000" stroke-width="2"></line> <line id="Линия_203" data-name="Линия 203" y1="76.636" x2="181.768" transform="matrix(0.719, 0.695, -0.695, 0.719, -3430.014, -1515.117)" fill="none" stroke="#000" stroke-width="2"></line> </g> </svg> 