<?xml version="1.0" encoding="UTF-8"?> <svg xmlns="http://www.w3.org/2000/svg" id="Tilda_Icons_2web_phone" width="16.108" height="16.789" viewBox="0 0 16.108 16.789"> <path id="Контур_158" data-name="Контур 158" d="M17.777,31.592a5.037,5.037,0,0,0,2.441.708,3.368,3.368,0,0,0,1.792-.5L24,30.573a.317.317,0,0,0,.1-.437l-1.724-2.794a.317.317,0,0,0-.437-.1l-2,1.237a1.476,1.476,0,0,1-1.083.167,1.39,1.39,0,0,1-.891-.606l-2.723-4.413a1.362,1.362,0,0,1,.442-1.871h0l2.08-1.284a.317.317,0,0,0,.1-.437l-1.724-2.793a.317.317,0,0,0-.437-.1l-2.078,1.283c-2.316,1.429-2.235,5.182.2,9.125A11.6,11.6,0,0,0,17.777,31.592ZM13.961,18.958l1.808-1.116L17.159,20.1l-1.81,1.117h0a2,2,0,0,0-.648,2.744l2.723,4.413a2.027,2.027,0,0,0,1.294.892,2.117,2.117,0,0,0,1.553-.247L22,27.946,23.4,30.2l-1.719,1.06a3.507,3.507,0,0,1-3.589-.222,10.966,10.966,0,0,1-3.722-3.827C12.129,23.585,11.963,20.192,13.961,18.958Z" transform="translate(-11.944 -15.51)" fill="#fff"></path> <path id="Контур_159" data-name="Контур 159" d="M48.467,31.189a3.2,3.2,0,0,1,2.846,4.2.317.317,0,0,0,.2.4.312.312,0,0,0,.1.016.317.317,0,0,0,.3-.217A3.83,3.83,0,0,0,48.5,30.555a.317.317,0,0,0-.037.634Z" transform="translate(-40.504 -26.127)" fill="#fff"></path> <path id="Контур_160" data-name="Контур 160" d="M50.632,20.061a5.582,5.582,0,0,1,4.736,7.087.317.317,0,1,0,.61.175A6.217,6.217,0,0,0,50.7,19.43a.317.317,0,1,0-.072.63Z" transform="translate(-42.225 -17.354)" fill="#fff"></path> <path id="Контур_161" data-name="Контур 161" d="M52.713,10.259a7.7,7.7,0,0,1,6.368,9.624.317.317,0,0,0,.613.165A8.33,8.33,0,0,0,52.8,9.63a.317.317,0,0,0-.088.629Z" transform="translate(-43.872 -9.628)" fill="#fff"></path> </svg> 