<?xml version="1.0" encoding="UTF-8"?> <svg xmlns="http://www.w3.org/2000/svg" width="7.89" height="15.074" viewBox="0 0 7.89 15.074"> <path id="Контур_13256" data-name="Контур 13256" d="M1687.621-717.933h2.314c0-.18-.006-.345,0-.508a23.642,23.642,0,0,1,.119-2.448,2.967,2.967,0,0,1,2.827-2.558c.814-.044,1.635.024,2.452.056a.253.253,0,0,1,.169.179c.012.743.008,1.487.008,2.272-.329,0-.641-.006-.953,0a9.608,9.608,0,0,0-.973.051.835.835,0,0,0-.787.78c-.036.712-.01,1.428-.01,2.176h2.642c-.121.929-.236,1.82-.356,2.742h-2.306v6.8h-2.823v-6.791h-2.324Z" transform="translate(-1687.621 723.461)" fill="#fff"></path> </svg> 