<?xml version="1.0" encoding="UTF-8"?> <svg xmlns="http://www.w3.org/2000/svg" width="13.601" height="22.644" viewBox="0 0 13.601 22.644"> <g id="Сгруппировать_295" data-name="Сгруппировать 295" transform="translate(-1435.771 -265.342)"> <path id="Контур_13174" data-name="Контур 13174" d="M32.409,21.384l3.8-6.111a.346.346,0,0,0,.031-.062,6.791,6.791,0,1,0-11.575,0,.392.392,0,0,0,.027.055L28.357,21.4c-2.844.4-4.715,1.572-4.715,2.99,0,1.758,2.987,3.134,6.8,3.134s6.8-1.377,6.8-3.134C37.243,22.964,35.286,21.769,32.409,21.384ZM25.348,14.87a6.03,6.03,0,1,1,10.209,0,.366.366,0,0,0-.031.063l-4.015,6.455c-.06.093-.072.114-.146.235l-1.014,1.63-4.969-8.315A.382.382,0,0,0,25.348,14.87Zm5.095,11.893c-3.56,0-6.04-1.251-6.04-2.374,0-1.019,1.868-1.979,4.381-2.276l1.234,2.066a.38.38,0,0,0,.323.185h0a.381.381,0,0,0,.323-.179l1.3-2.087c2.553.277,4.518,1.261,4.518,2.291C36.483,25.513,34,26.764,30.443,26.764Z" transform="translate(1412.129 260.462)" fill="#fff"></path> <path id="Контур_13175" data-name="Контур 13175" d="M45.669,24.4A2.469,2.469,0,1,0,43.2,26.867,2.472,2.472,0,0,0,45.669,24.4Zm-4.178,0A1.709,1.709,0,1,1,43.2,26.107,1.711,1.711,0,0,1,41.491,24.4Z" transform="translate(1399.372 247.735)" fill="#fff"></path> </g> </svg> 