<?xml version="1.0" encoding="UTF-8"?> <svg xmlns="http://www.w3.org/2000/svg" id="Сгруппировать_324" data-name="Сгруппировать 324" width="15.119" height="15.074" viewBox="0 0 15.119 15.074"> <path id="Контур_13257" data-name="Контур 13257" d="M1786.252-316.585h-3.128v-10.053h2.992v1.389a3.291,3.291,0,0,1,2.119-1.552,4.524,4.524,0,0,1,2.475.13,2.939,2.939,0,0,1,1.969,2.417,7.837,7.837,0,0,1,.182,1.49c.02,2.042.008,4.084.008,6.154h-3.131v-.356c0-1.63,0-3.26,0-4.89a5.719,5.719,0,0,0-.07-.9,1.557,1.557,0,0,0-2.148-1.315,1.614,1.614,0,0,0-1.186,1.464,8.215,8.215,0,0,0-.081,1.233c-.007,1.463,0,2.925,0,4.388C1786.252-316.866,1786.252-316.745,1786.252-316.585Z" transform="translate(-1777.754 331.659)" fill="#fff"></path> <path id="Контур_13258" data-name="Контур 13258" d="M1707.061-322.739h3.121v10.027h-3.121Z" transform="translate(-1706.791 327.763)" fill="#fff"></path> <path id="Контур_13259" data-name="Контур 13259" d="M1704.829-394.049a1.817,1.817,0,0,1-1.8-1.845,1.842,1.842,0,0,1,1.836-1.787,1.835,1.835,0,0,1,1.817,1.837A1.81,1.81,0,0,1,1704.829-394.049Z" transform="translate(-1703.027 397.681)" fill="#fff"></path> </svg> 