<?xml version="1.0" encoding="UTF-8"?> <svg xmlns="http://www.w3.org/2000/svg" id="Сгруппировать_323" data-name="Сгруппировать 323" width="15.072" height="15.074" viewBox="0 0 15.072 15.074"> <path id="Контур_13253" data-name="Контур 13253" d="M1651.258-993.054c-1.24-.06-2.5-.087-3.761-.191a3.879,3.879,0,0,1-3.592-3.728,57.754,57.754,0,0,1-.056-6.649,4.968,4.968,0,0,1,.878-2.9,3.731,3.731,0,0,1,2.915-1.5c1.854-.087,3.713-.1,5.57-.11a13.4,13.4,0,0,1,2.237.162,3.855,3.855,0,0,1,3.257,3.553,52.685,52.685,0,0,1,.042,7.262,4.144,4.144,0,0,1-1.29,2.908,3.7,3.7,0,0,1-2.3.993C1653.868-993.153,1652.575-993.117,1651.258-993.054Zm6.251-7.359c-.062-1.444-.1-2.654-.171-3.861a2.393,2.393,0,0,0-1.776-2.229,6.182,6.182,0,0,0-1.607-.219c-2-.009-4,0-5.995.05a2.59,2.59,0,0,0-2.7,2.649,58.042,58.042,0,0,0,0,6.831,2.541,2.541,0,0,0,2.335,2.576c.405.059.817.07,1.227.089a47.994,47.994,0,0,0,6.152-.072,2.4,2.4,0,0,0,2.294-2.118C1657.428-998.018,1657.446-999.334,1657.509-1000.413Z" transform="translate(-1643.78 1008.128)" fill="#fff"></path> <path id="Контур_13254" data-name="Контур 13254" d="M1707.2-949.1a3.873,3.873,0,0,1,3.877,3.741,3.868,3.868,0,0,1-3.78,3.992,3.845,3.845,0,0,1-3.944-3.85A3.841,3.841,0,0,1,1707.2-949.1Zm2.487,3.9a2.471,2.471,0,0,0-2.382-2.514,2.471,2.471,0,0,0-2.573,2.351,2.463,2.463,0,0,0,2.407,2.609A2.479,2.479,0,0,0,1709.687-945.2Z" transform="translate(-1699.678 952.743)" fill="#fff"></path> <path id="Контур_13255" data-name="Контур 13255" d="M1817.856-965.358a.91.91,0,0,1-.914.885.929.929,0,0,1-.917-.924.947.947,0,0,1,.939-.909A.931.931,0,0,1,1817.856-965.358Z" transform="translate(-1805.402 968.886)" fill="#fff"></path> </svg> 