<?xml version="1.0" encoding="UTF-8"?> <svg xmlns="http://www.w3.org/2000/svg" width="16.704" height="11.216" viewBox="0 0 16.704 11.216"> <path id="Tilda_Icons_2web_letter" d="M23.653,32.147a.3.3,0,0,0,.015-.092V21.439a.3.3,0,0,0-.016-.092s0-.008,0-.012a.3.3,0,0,0-.053-.092l0-.006,0,0a.292.292,0,0,0-.086-.065l-.007,0a.279.279,0,0,0-.1-.025H7.236a.283.283,0,0,0-.1.025l-.005,0a.288.288,0,0,0-.087.065l0,0s0,0,0,.006a.3.3,0,0,0-.054.092s0,.008,0,.012a.3.3,0,0,0-.016.092V32.056a.3.3,0,0,0,.016.094l0,.012a.3.3,0,0,0,.054.092l0,.005,0,0a.3.3,0,0,0,.031.028l.014.012a.267.267,0,0,0,.041.023l.01.006a.283.283,0,0,0,.114.024H23.377a.28.28,0,0,0,.114-.024l.016-.009a.294.294,0,0,0,.035-.02l.017-.014a.269.269,0,0,0,.028-.026l0,0,0-.006a.3.3,0,0,0,.053-.092A.112.112,0,0,0,23.653,32.147ZM7.546,22.118l4.892,4.608L7.546,31.372ZM17.572,26.5a.278.278,0,0,0-.058.044c-.006.007-.009.017-.014.024l-2.184,2.057L8,21.738H22.628Zm-4.7.632,2.251,2.121a.284.284,0,0,0,.392,0l2.224-2.095,4.891,4.6H8Zm5.3-.38,4.92-4.635v9.259Z" transform="translate(-6.964 -21.139)" fill="#fff"></path> </svg> 