<?xml version="1.0" encoding="UTF-8"?> <svg xmlns="http://www.w3.org/2000/svg" id="Layer_1" data-name="Layer 1" viewBox="0 0 140 142"> <defs> <style>.cls-1{stroke:#000;stroke-miterlimit:10;stroke-width:0.25px;}</style> </defs> <path class="cls-1" d="M108.41,141.62.9,44.31,139.1.38C128.85,47.55,118.64,94.52,108.41,141.62Zm-23.14-61L129.43,8.76,12.89,45.8Zm44.89-62.93-.18-.1c-.16.22-.33.43-.47.66q-4.18,6.8-8.35,13.59c-3.29,5.36-6.55,10.72-9.84,16.07Q105.65,57.14,100,66.34c-3.44,5.58-6.85,11.18-10.32,16.75a2.34,2.34,0,0,0-.22,2.38q8.14,20.41,16.24,40.87l.46,1.06.22,0ZM20.6,55.13l0,.16,79.92,72.34a2.82,2.82,0,0,0-.26-1.34q-7.89-19.86-15.79-39.71a3.09,3.09,0,0,0-1.27-1.34c-1.07-.62-2.23-1.08-3.34-1.62L50.68,69.57,27.48,58.41Z"></path> </svg> 