<?xml version="1.0" encoding="UTF-8"?> <svg xmlns="http://www.w3.org/2000/svg" width="85.385" height="13.731" viewBox="0 0 85.385 13.731"> <g id="Сгруппировать_784" data-name="Сгруппировать 784" transform="translate(0 0.023)"> <g id="Сгруппировать_132" data-name="Сгруппировать 132" transform="translate(85.385 0.102) rotate(90)"> <path id="Path_172" data-name="Path 172" d="M11.486,11.926-.709-.325l.382-.38,12.2,12.252Z" transform="translate(0.907 0.904)"></path> <path id="Path_172_-_Outline" data-name="Path 172 - Outline" d="M10.977,11.616-1.416-.834l.581-.578,12.393,12.45Zm-12-12.45,12,12.053.183-.182-12-12.053Z" transform="translate(1.416 1.413)"></path> <path id="Path_171" data-name="Path 171" d="M-.323,11.675-.7,11.291l12.2-12,.378.384-4.6,4.523Z" transform="translate(0.902 0.971)"></path> <path id="Path_171_-_Outline" data-name="Path 171 - Outline" d="M-.834,11.365l-.575-.584,12.4-12.2.575.584Zm-.178-.581.181.184L11.165-.839l-.181-.184Z" transform="translate(1.411 1.48)"></path> </g> <path id="Rectangle_111" data-name="Rectangle 111" d="M.842.842V11.79H11.79V.842H.842M0,0H12.632V12.632H0Z" transform="translate(36.676 12.904) rotate(180)"></path> <path id="Rectangle_112" data-name="Rectangle 112" d="M6.532.871a5.661,5.661,0,0,0-4,9.665,5.661,5.661,0,0,0,8.006-8.006,5.624,5.624,0,0,0-4-1.658m0-.871A6.532,6.532,0,1,1,0,6.532,6.532,6.532,0,0,1,6.532,0Z" transform="matrix(-0.999, 0.052, -0.052, -0.999, 13.731, 13.024)"></path> <path id="Polygon_32" data-name="Polygon 32" d="M7.3,1.683,1.459,11.79H13.138L7.3,1.683M7.3,0l7.3,12.632H0Z" transform="translate(47.446 0.345)" opacity="0.998"></path> </g> </svg> 