<?xml version="1.0" encoding="UTF-8"?> <svg xmlns="http://www.w3.org/2000/svg" width="21.417" height="13.945" viewBox="0 0 21.417 13.945"> <path id="Tilda_Icons_2web_letter" d="M28.362,34.825a.369.369,0,0,0,.02-.114v-13.2a.366.366,0,0,0-.02-.115s0-.01,0-.015a.371.371,0,0,0-.069-.114s0,0,0-.007l0,0a.374.374,0,0,0-.11-.08l-.009,0a.367.367,0,0,0-.127-.031H7.313a.372.372,0,0,0-.129.031l-.007,0a.369.369,0,0,0-.111.081l0,0s0,0,0,.007a.372.372,0,0,0-.069.115s0,.01,0,.015a.366.366,0,0,0-.02.115v13.2a.369.369,0,0,0,.02.116l0,.015a.373.373,0,0,0,.07.115l0,.006.005,0a.376.376,0,0,0,.04.035l.018.015a.345.345,0,0,0,.052.029l.013.007a.373.373,0,0,0,.146.03H28.009a.369.369,0,0,0,.146-.03l.02-.011a.381.381,0,0,0,.045-.025L28.241,35a.342.342,0,0,0,.036-.032l.006-.005s0-.005,0-.007a.372.372,0,0,0,.068-.114A.137.137,0,0,0,28.362,34.825ZM7.71,22.357l6.273,5.729L7.71,33.861Zm12.856,5.449a.355.355,0,0,0-.075.055c-.008.009-.011.021-.018.03l-2.8,2.558L8.3,21.884H27.048Zm-6.031.785,2.887,2.637a.372.372,0,0,0,.5,0l2.851-2.6,6.272,5.715H8.292Zm6.793-.472,6.308-5.762V33.867Z" transform="translate(-6.964 -21.139)" fill="#024ef9"></path> </svg> 