<?xml version="1.0" encoding="UTF-8"?> <svg xmlns="http://www.w3.org/2000/svg" id="Tilda_Icons_2web_phone" width="21.86" height="22.784" viewBox="0 0 21.86 22.784"> <path id="Контур_158" data-name="Контур 158" d="M19.86,36.77a6.835,6.835,0,0,0,3.312.96,4.57,4.57,0,0,0,2.431-.677l2.7-1.665a.43.43,0,0,0,.14-.593L26.1,31a.43.43,0,0,0-.593-.14l-2.719,1.678a2,2,0,0,1-1.47.227,1.886,1.886,0,0,1-1.208-.822l-3.7-5.989a1.848,1.848,0,0,1,.6-2.54h0l2.822-1.742a.431.431,0,0,0,.14-.593l-2.339-3.79a.43.43,0,0,0-.593-.14l-2.82,1.74c-3.143,1.94-3.033,7.032.269,12.383A15.737,15.737,0,0,0,19.86,36.77ZM14.681,19.626l2.453-1.514,1.887,3.057-2.456,1.516h0a2.71,2.71,0,0,0-.88,3.724l3.7,5.989a2.751,2.751,0,0,0,1.756,1.211,2.873,2.873,0,0,0,2.108-.335L25.6,31.823l1.887,3.058-2.332,1.439a4.759,4.759,0,0,1-4.87-.3,14.881,14.881,0,0,1-5.051-5.194C12.2,25.9,11.97,21.3,14.681,19.626Z" transform="translate(-11.944 -14.946)" fill="#024ef9"></path> <path id="Контур_159" data-name="Контур 159" d="M48.574,31.415a4.336,4.336,0,0,1,3.862,5.7.43.43,0,0,0,.272.544.423.423,0,0,0,.136.022.43.43,0,0,0,.409-.295,5.2,5.2,0,0,0-4.629-6.835.431.431,0,0,0-.051.86Z" transform="translate(-37.768 -24.546)" fill="#024ef9"></path> <path id="Контур_160" data-name="Контур 160" d="M50.733,20.286A7.575,7.575,0,0,1,57.159,29.9a.43.43,0,1,0,.827.238,8.436,8.436,0,0,0-7.156-10.71.431.431,0,1,0-.1.856Z" transform="translate(-39.324 -16.614)" fill="#024ef9"></path> <path id="Контур_161" data-name="Контур 161" d="M52.81,10.484a10.443,10.443,0,0,1,8.642,13.061.431.431,0,0,0,.832.224A11.3,11.3,0,0,0,52.929,9.631a.431.431,0,0,0-.119.853Z" transform="translate(-40.812 -9.628)" fill="#024ef9"></path> </svg> 