<?xml version="1.0" encoding="UTF-8"?> <svg xmlns="http://www.w3.org/2000/svg" width="23.497" height="15.299" viewBox="0 0 23.497 15.299"> <path id="Tilda_Icons_2web_letter" d="M30.439,36.154a.4.4,0,0,0,.022-.125V21.548a.4.4,0,0,0-.022-.126c0-.005,0-.011-.005-.016a.407.407,0,0,0-.075-.125s0-.005,0-.008l0,0a.41.41,0,0,0-.12-.088l-.01-.005a.4.4,0,0,0-.139-.034H7.346a.408.408,0,0,0-.141.034l-.008,0a.4.4,0,0,0-.122.089l0,0s0,.005,0,.008a.409.409,0,0,0-.076.126c0,.005,0,.011-.005.017a.4.4,0,0,0-.022.126V36.029a.4.4,0,0,0,.022.128l0,.016a.409.409,0,0,0,.076.126l0,.007.006,0a.413.413,0,0,0,.043.038l.02.016A.379.379,0,0,0,7.2,36.4l.014.008a.409.409,0,0,0,.161.033H30.052a.4.4,0,0,0,.161-.033l.022-.012a.417.417,0,0,0,.049-.028c.008-.006.016-.013.023-.019a.375.375,0,0,0,.04-.035l.007-.006s0-.006,0-.008a.409.409,0,0,0,.075-.125A.15.15,0,0,0,30.439,36.154ZM7.782,22.475l6.882,6.286L7.782,35.1Zm14.1,5.978a.39.39,0,0,0-.082.06c-.009.01-.012.023-.02.033l-3.072,2.806-10.286-9.4H29Zm-6.617.862,3.167,2.893a.408.408,0,0,0,.551,0l3.128-2.857L29,35.62H8.421Zm7.453-.518,6.921-6.321V35.1Z" transform="translate(-6.964 -21.139)"></path> </svg> 