<?xml version="1.0" encoding="UTF-8"?> <svg xmlns="http://www.w3.org/2000/svg" id="Tilda_Icons_2web_phone" width="23.982" height="24.996" viewBox="0 0 23.982 24.996"> <path id="Контур_158" data-name="Контур 158" d="M20.629,38.681a7.5,7.5,0,0,0,3.634,1.053,5.014,5.014,0,0,0,2.667-.743l2.961-1.826a.472.472,0,0,0,.154-.65l-2.566-4.159a.472.472,0,0,0-.65-.154l-2.983,1.841a2.2,2.2,0,0,1-1.613.249,2.07,2.07,0,0,1-1.326-.9l-4.054-6.57a2.027,2.027,0,0,1,.659-2.786h0l3.1-1.911a.472.472,0,0,0,.154-.65l-2.567-4.158a.472.472,0,0,0-.65-.154L14.45,19.069C11,21.2,11.123,26.783,14.745,32.654A17.265,17.265,0,0,0,20.629,38.681ZM14.947,19.873l2.691-1.661,2.07,3.354-2.694,1.663h0a2.973,2.973,0,0,0-.965,4.085l4.054,6.57a3.018,3.018,0,0,0,1.927,1.329,3.152,3.152,0,0,0,2.312-.368l2.581-1.593,2.07,3.355-2.559,1.578c-1.869,1.153-3.937.457-5.343-.33a16.326,16.326,0,0,1-5.541-5.7C12.22,26.761,11.972,21.709,14.947,19.873Z" transform="translate(-11.944 -14.738)" fill="#51fec0"></path> <path id="Контур_159" data-name="Контур 159" d="M48.613,31.5a4.757,4.757,0,0,1,4.237,6.257.472.472,0,0,0,.3.6.464.464,0,0,0,.149.024.472.472,0,0,0,.448-.323,5.7,5.7,0,0,0-5.078-7.5.473.473,0,0,0-.056.944Z" transform="translate(-36.758 -23.963)" fill="#51fec0"></path> <path id="Контур_160" data-name="Контур 160" d="M50.77,20.37A8.311,8.311,0,0,1,57.82,30.921a.472.472,0,1,0,.908.261,9.255,9.255,0,0,0-7.851-11.75.472.472,0,1,0-.108.939Z" transform="translate(-38.253 -16.341)" fill="#51fec0"></path> <path id="Контур_161" data-name="Контур 161" d="M52.846,10.568A11.457,11.457,0,0,1,62.327,24.9a.473.473,0,0,0,.913.246A12.4,12.4,0,0,0,52.977,9.632a.472.472,0,0,0-.131.936Z" transform="translate(-39.684 -9.628)" fill="#51fec0"></path> </svg> 