<?xml version="1.0" encoding="UTF-8"?> <svg xmlns="http://www.w3.org/2000/svg" width="26.06" height="30.134" viewBox="0 0 26.06 30.134"> <g id="Tilda_Icons_30_system_download" transform="translate(0.25 0.25)"> <path id="Контур_162" data-name="Контур 162" d="M40.892,63.888a.555.555,0,0,0-.556.556V71.3H17V64.444a.556.556,0,1,0-1.111,0v7.409a.555.555,0,0,0,.556.556H40.892a.555.555,0,0,0,.556-.556V64.444A.556.556,0,0,0,40.892,63.888Z" transform="translate(-15.888 -42.774)" stroke="#000" stroke-width="0.5"></path> <path id="Контур_163" data-name="Контур 163" d="M40.868,30.062a.556.556,0,0,0,.786,0l4.816-4.816a.556.556,0,1,0-.786-.786l-3.867,3.867V7.444a.556.556,0,1,0-1.111,0V28.328l-3.867-3.867a.556.556,0,0,0-.786.786Z" transform="translate(-28.481 -6.888)" stroke="#000" stroke-width="0.5"></path> </g> </svg> 